G75*
%MOIN*%
%OFA0B0*%
%FSLAX25Y25*%
%IPPOS*%
%LPD*%
%AMOC8*
5,1,8,0,0,1.08239X$1,22.5*
%
%ADD10C,0.00000*%
%ADD11OC8,0.12661*%
%ADD12OC8,0.05200*%
%ADD13C,0.05200*%
%ADD14OC8,0.06000*%
%ADD15C,0.01600*%
%ADD16C,0.03200*%
%ADD17C,0.02400*%
%ADD18C,0.02800*%
%ADD19C,0.01000*%
%ADD20OC8,0.03562*%
D10*
X0001800Y0001800D02*
X0001800Y0196800D01*
X0196800Y0196800D01*
X0196800Y0001800D01*
X0001800Y0001800D01*
X0093001Y0016446D02*
X0093003Y0016604D01*
X0093009Y0016762D01*
X0093019Y0016920D01*
X0093033Y0017078D01*
X0093051Y0017235D01*
X0093072Y0017392D01*
X0093098Y0017548D01*
X0093128Y0017704D01*
X0093161Y0017859D01*
X0093199Y0018012D01*
X0093240Y0018165D01*
X0093285Y0018317D01*
X0093334Y0018468D01*
X0093387Y0018617D01*
X0093443Y0018765D01*
X0093503Y0018911D01*
X0093567Y0019056D01*
X0093635Y0019199D01*
X0093706Y0019341D01*
X0093780Y0019481D01*
X0093858Y0019618D01*
X0093940Y0019754D01*
X0094024Y0019888D01*
X0094113Y0020019D01*
X0094204Y0020148D01*
X0094299Y0020275D01*
X0094396Y0020400D01*
X0094497Y0020522D01*
X0094601Y0020641D01*
X0094708Y0020758D01*
X0094818Y0020872D01*
X0094931Y0020983D01*
X0095046Y0021092D01*
X0095164Y0021197D01*
X0095285Y0021299D01*
X0095408Y0021399D01*
X0095534Y0021495D01*
X0095662Y0021588D01*
X0095792Y0021678D01*
X0095925Y0021764D01*
X0096060Y0021848D01*
X0096196Y0021927D01*
X0096335Y0022004D01*
X0096476Y0022076D01*
X0096618Y0022146D01*
X0096762Y0022211D01*
X0096908Y0022273D01*
X0097055Y0022331D01*
X0097204Y0022386D01*
X0097354Y0022437D01*
X0097505Y0022484D01*
X0097657Y0022527D01*
X0097810Y0022566D01*
X0097965Y0022602D01*
X0098120Y0022633D01*
X0098276Y0022661D01*
X0098432Y0022685D01*
X0098589Y0022705D01*
X0098747Y0022721D01*
X0098904Y0022733D01*
X0099063Y0022741D01*
X0099221Y0022745D01*
X0099379Y0022745D01*
X0099537Y0022741D01*
X0099696Y0022733D01*
X0099853Y0022721D01*
X0100011Y0022705D01*
X0100168Y0022685D01*
X0100324Y0022661D01*
X0100480Y0022633D01*
X0100635Y0022602D01*
X0100790Y0022566D01*
X0100943Y0022527D01*
X0101095Y0022484D01*
X0101246Y0022437D01*
X0101396Y0022386D01*
X0101545Y0022331D01*
X0101692Y0022273D01*
X0101838Y0022211D01*
X0101982Y0022146D01*
X0102124Y0022076D01*
X0102265Y0022004D01*
X0102404Y0021927D01*
X0102540Y0021848D01*
X0102675Y0021764D01*
X0102808Y0021678D01*
X0102938Y0021588D01*
X0103066Y0021495D01*
X0103192Y0021399D01*
X0103315Y0021299D01*
X0103436Y0021197D01*
X0103554Y0021092D01*
X0103669Y0020983D01*
X0103782Y0020872D01*
X0103892Y0020758D01*
X0103999Y0020641D01*
X0104103Y0020522D01*
X0104204Y0020400D01*
X0104301Y0020275D01*
X0104396Y0020148D01*
X0104487Y0020019D01*
X0104576Y0019888D01*
X0104660Y0019754D01*
X0104742Y0019618D01*
X0104820Y0019481D01*
X0104894Y0019341D01*
X0104965Y0019199D01*
X0105033Y0019056D01*
X0105097Y0018911D01*
X0105157Y0018765D01*
X0105213Y0018617D01*
X0105266Y0018468D01*
X0105315Y0018317D01*
X0105360Y0018165D01*
X0105401Y0018012D01*
X0105439Y0017859D01*
X0105472Y0017704D01*
X0105502Y0017548D01*
X0105528Y0017392D01*
X0105549Y0017235D01*
X0105567Y0017078D01*
X0105581Y0016920D01*
X0105591Y0016762D01*
X0105597Y0016604D01*
X0105599Y0016446D01*
X0105597Y0016288D01*
X0105591Y0016130D01*
X0105581Y0015972D01*
X0105567Y0015814D01*
X0105549Y0015657D01*
X0105528Y0015500D01*
X0105502Y0015344D01*
X0105472Y0015188D01*
X0105439Y0015033D01*
X0105401Y0014880D01*
X0105360Y0014727D01*
X0105315Y0014575D01*
X0105266Y0014424D01*
X0105213Y0014275D01*
X0105157Y0014127D01*
X0105097Y0013981D01*
X0105033Y0013836D01*
X0104965Y0013693D01*
X0104894Y0013551D01*
X0104820Y0013411D01*
X0104742Y0013274D01*
X0104660Y0013138D01*
X0104576Y0013004D01*
X0104487Y0012873D01*
X0104396Y0012744D01*
X0104301Y0012617D01*
X0104204Y0012492D01*
X0104103Y0012370D01*
X0103999Y0012251D01*
X0103892Y0012134D01*
X0103782Y0012020D01*
X0103669Y0011909D01*
X0103554Y0011800D01*
X0103436Y0011695D01*
X0103315Y0011593D01*
X0103192Y0011493D01*
X0103066Y0011397D01*
X0102938Y0011304D01*
X0102808Y0011214D01*
X0102675Y0011128D01*
X0102540Y0011044D01*
X0102404Y0010965D01*
X0102265Y0010888D01*
X0102124Y0010816D01*
X0101982Y0010746D01*
X0101838Y0010681D01*
X0101692Y0010619D01*
X0101545Y0010561D01*
X0101396Y0010506D01*
X0101246Y0010455D01*
X0101095Y0010408D01*
X0100943Y0010365D01*
X0100790Y0010326D01*
X0100635Y0010290D01*
X0100480Y0010259D01*
X0100324Y0010231D01*
X0100168Y0010207D01*
X0100011Y0010187D01*
X0099853Y0010171D01*
X0099696Y0010159D01*
X0099537Y0010151D01*
X0099379Y0010147D01*
X0099221Y0010147D01*
X0099063Y0010151D01*
X0098904Y0010159D01*
X0098747Y0010171D01*
X0098589Y0010187D01*
X0098432Y0010207D01*
X0098276Y0010231D01*
X0098120Y0010259D01*
X0097965Y0010290D01*
X0097810Y0010326D01*
X0097657Y0010365D01*
X0097505Y0010408D01*
X0097354Y0010455D01*
X0097204Y0010506D01*
X0097055Y0010561D01*
X0096908Y0010619D01*
X0096762Y0010681D01*
X0096618Y0010746D01*
X0096476Y0010816D01*
X0096335Y0010888D01*
X0096196Y0010965D01*
X0096060Y0011044D01*
X0095925Y0011128D01*
X0095792Y0011214D01*
X0095662Y0011304D01*
X0095534Y0011397D01*
X0095408Y0011493D01*
X0095285Y0011593D01*
X0095164Y0011695D01*
X0095046Y0011800D01*
X0094931Y0011909D01*
X0094818Y0012020D01*
X0094708Y0012134D01*
X0094601Y0012251D01*
X0094497Y0012370D01*
X0094396Y0012492D01*
X0094299Y0012617D01*
X0094204Y0012744D01*
X0094113Y0012873D01*
X0094024Y0013004D01*
X0093940Y0013138D01*
X0093858Y0013274D01*
X0093780Y0013411D01*
X0093706Y0013551D01*
X0093635Y0013693D01*
X0093567Y0013836D01*
X0093503Y0013981D01*
X0093443Y0014127D01*
X0093387Y0014275D01*
X0093334Y0014424D01*
X0093285Y0014575D01*
X0093240Y0014727D01*
X0093199Y0014880D01*
X0093161Y0015033D01*
X0093128Y0015188D01*
X0093098Y0015344D01*
X0093072Y0015500D01*
X0093051Y0015657D01*
X0093033Y0015814D01*
X0093019Y0015972D01*
X0093009Y0016130D01*
X0093003Y0016288D01*
X0093001Y0016446D01*
X0047410Y0124300D02*
X0047412Y0124469D01*
X0047418Y0124638D01*
X0047429Y0124807D01*
X0047443Y0124975D01*
X0047462Y0125143D01*
X0047485Y0125311D01*
X0047511Y0125478D01*
X0047542Y0125644D01*
X0047577Y0125810D01*
X0047616Y0125974D01*
X0047660Y0126138D01*
X0047707Y0126300D01*
X0047758Y0126461D01*
X0047813Y0126621D01*
X0047872Y0126780D01*
X0047934Y0126937D01*
X0048001Y0127092D01*
X0048072Y0127246D01*
X0048146Y0127398D01*
X0048224Y0127548D01*
X0048305Y0127696D01*
X0048390Y0127842D01*
X0048479Y0127986D01*
X0048571Y0128128D01*
X0048667Y0128267D01*
X0048766Y0128404D01*
X0048868Y0128539D01*
X0048974Y0128671D01*
X0049083Y0128800D01*
X0049195Y0128927D01*
X0049310Y0129051D01*
X0049428Y0129172D01*
X0049549Y0129290D01*
X0049673Y0129405D01*
X0049800Y0129517D01*
X0049929Y0129626D01*
X0050061Y0129732D01*
X0050196Y0129834D01*
X0050333Y0129933D01*
X0050472Y0130029D01*
X0050614Y0130121D01*
X0050758Y0130210D01*
X0050904Y0130295D01*
X0051052Y0130376D01*
X0051202Y0130454D01*
X0051354Y0130528D01*
X0051508Y0130599D01*
X0051663Y0130666D01*
X0051820Y0130728D01*
X0051979Y0130787D01*
X0052139Y0130842D01*
X0052300Y0130893D01*
X0052462Y0130940D01*
X0052626Y0130984D01*
X0052790Y0131023D01*
X0052956Y0131058D01*
X0053122Y0131089D01*
X0053289Y0131115D01*
X0053457Y0131138D01*
X0053625Y0131157D01*
X0053793Y0131171D01*
X0053962Y0131182D01*
X0054131Y0131188D01*
X0054300Y0131190D01*
X0054469Y0131188D01*
X0054638Y0131182D01*
X0054807Y0131171D01*
X0054975Y0131157D01*
X0055143Y0131138D01*
X0055311Y0131115D01*
X0055478Y0131089D01*
X0055644Y0131058D01*
X0055810Y0131023D01*
X0055974Y0130984D01*
X0056138Y0130940D01*
X0056300Y0130893D01*
X0056461Y0130842D01*
X0056621Y0130787D01*
X0056780Y0130728D01*
X0056937Y0130666D01*
X0057092Y0130599D01*
X0057246Y0130528D01*
X0057398Y0130454D01*
X0057548Y0130376D01*
X0057696Y0130295D01*
X0057842Y0130210D01*
X0057986Y0130121D01*
X0058128Y0130029D01*
X0058267Y0129933D01*
X0058404Y0129834D01*
X0058539Y0129732D01*
X0058671Y0129626D01*
X0058800Y0129517D01*
X0058927Y0129405D01*
X0059051Y0129290D01*
X0059172Y0129172D01*
X0059290Y0129051D01*
X0059405Y0128927D01*
X0059517Y0128800D01*
X0059626Y0128671D01*
X0059732Y0128539D01*
X0059834Y0128404D01*
X0059933Y0128267D01*
X0060029Y0128128D01*
X0060121Y0127986D01*
X0060210Y0127842D01*
X0060295Y0127696D01*
X0060376Y0127548D01*
X0060454Y0127398D01*
X0060528Y0127246D01*
X0060599Y0127092D01*
X0060666Y0126937D01*
X0060728Y0126780D01*
X0060787Y0126621D01*
X0060842Y0126461D01*
X0060893Y0126300D01*
X0060940Y0126138D01*
X0060984Y0125974D01*
X0061023Y0125810D01*
X0061058Y0125644D01*
X0061089Y0125478D01*
X0061115Y0125311D01*
X0061138Y0125143D01*
X0061157Y0124975D01*
X0061171Y0124807D01*
X0061182Y0124638D01*
X0061188Y0124469D01*
X0061190Y0124300D01*
X0061188Y0124131D01*
X0061182Y0123962D01*
X0061171Y0123793D01*
X0061157Y0123625D01*
X0061138Y0123457D01*
X0061115Y0123289D01*
X0061089Y0123122D01*
X0061058Y0122956D01*
X0061023Y0122790D01*
X0060984Y0122626D01*
X0060940Y0122462D01*
X0060893Y0122300D01*
X0060842Y0122139D01*
X0060787Y0121979D01*
X0060728Y0121820D01*
X0060666Y0121663D01*
X0060599Y0121508D01*
X0060528Y0121354D01*
X0060454Y0121202D01*
X0060376Y0121052D01*
X0060295Y0120904D01*
X0060210Y0120758D01*
X0060121Y0120614D01*
X0060029Y0120472D01*
X0059933Y0120333D01*
X0059834Y0120196D01*
X0059732Y0120061D01*
X0059626Y0119929D01*
X0059517Y0119800D01*
X0059405Y0119673D01*
X0059290Y0119549D01*
X0059172Y0119428D01*
X0059051Y0119310D01*
X0058927Y0119195D01*
X0058800Y0119083D01*
X0058671Y0118974D01*
X0058539Y0118868D01*
X0058404Y0118766D01*
X0058267Y0118667D01*
X0058128Y0118571D01*
X0057986Y0118479D01*
X0057842Y0118390D01*
X0057696Y0118305D01*
X0057548Y0118224D01*
X0057398Y0118146D01*
X0057246Y0118072D01*
X0057092Y0118001D01*
X0056937Y0117934D01*
X0056780Y0117872D01*
X0056621Y0117813D01*
X0056461Y0117758D01*
X0056300Y0117707D01*
X0056138Y0117660D01*
X0055974Y0117616D01*
X0055810Y0117577D01*
X0055644Y0117542D01*
X0055478Y0117511D01*
X0055311Y0117485D01*
X0055143Y0117462D01*
X0054975Y0117443D01*
X0054807Y0117429D01*
X0054638Y0117418D01*
X0054469Y0117412D01*
X0054300Y0117410D01*
X0054131Y0117412D01*
X0053962Y0117418D01*
X0053793Y0117429D01*
X0053625Y0117443D01*
X0053457Y0117462D01*
X0053289Y0117485D01*
X0053122Y0117511D01*
X0052956Y0117542D01*
X0052790Y0117577D01*
X0052626Y0117616D01*
X0052462Y0117660D01*
X0052300Y0117707D01*
X0052139Y0117758D01*
X0051979Y0117813D01*
X0051820Y0117872D01*
X0051663Y0117934D01*
X0051508Y0118001D01*
X0051354Y0118072D01*
X0051202Y0118146D01*
X0051052Y0118224D01*
X0050904Y0118305D01*
X0050758Y0118390D01*
X0050614Y0118479D01*
X0050472Y0118571D01*
X0050333Y0118667D01*
X0050196Y0118766D01*
X0050061Y0118868D01*
X0049929Y0118974D01*
X0049800Y0119083D01*
X0049673Y0119195D01*
X0049549Y0119310D01*
X0049428Y0119428D01*
X0049310Y0119549D01*
X0049195Y0119673D01*
X0049083Y0119800D01*
X0048974Y0119929D01*
X0048868Y0120061D01*
X0048766Y0120196D01*
X0048667Y0120333D01*
X0048571Y0120472D01*
X0048479Y0120614D01*
X0048390Y0120758D01*
X0048305Y0120904D01*
X0048224Y0121052D01*
X0048146Y0121202D01*
X0048072Y0121354D01*
X0048001Y0121508D01*
X0047934Y0121663D01*
X0047872Y0121820D01*
X0047813Y0121979D01*
X0047758Y0122139D01*
X0047707Y0122300D01*
X0047660Y0122462D01*
X0047616Y0122626D01*
X0047577Y0122790D01*
X0047542Y0122956D01*
X0047511Y0123122D01*
X0047485Y0123289D01*
X0047462Y0123457D01*
X0047443Y0123625D01*
X0047429Y0123793D01*
X0047418Y0123962D01*
X0047412Y0124131D01*
X0047410Y0124300D01*
X0093001Y0181800D02*
X0093003Y0181958D01*
X0093009Y0182116D01*
X0093019Y0182274D01*
X0093033Y0182432D01*
X0093051Y0182589D01*
X0093072Y0182746D01*
X0093098Y0182902D01*
X0093128Y0183058D01*
X0093161Y0183213D01*
X0093199Y0183366D01*
X0093240Y0183519D01*
X0093285Y0183671D01*
X0093334Y0183822D01*
X0093387Y0183971D01*
X0093443Y0184119D01*
X0093503Y0184265D01*
X0093567Y0184410D01*
X0093635Y0184553D01*
X0093706Y0184695D01*
X0093780Y0184835D01*
X0093858Y0184972D01*
X0093940Y0185108D01*
X0094024Y0185242D01*
X0094113Y0185373D01*
X0094204Y0185502D01*
X0094299Y0185629D01*
X0094396Y0185754D01*
X0094497Y0185876D01*
X0094601Y0185995D01*
X0094708Y0186112D01*
X0094818Y0186226D01*
X0094931Y0186337D01*
X0095046Y0186446D01*
X0095164Y0186551D01*
X0095285Y0186653D01*
X0095408Y0186753D01*
X0095534Y0186849D01*
X0095662Y0186942D01*
X0095792Y0187032D01*
X0095925Y0187118D01*
X0096060Y0187202D01*
X0096196Y0187281D01*
X0096335Y0187358D01*
X0096476Y0187430D01*
X0096618Y0187500D01*
X0096762Y0187565D01*
X0096908Y0187627D01*
X0097055Y0187685D01*
X0097204Y0187740D01*
X0097354Y0187791D01*
X0097505Y0187838D01*
X0097657Y0187881D01*
X0097810Y0187920D01*
X0097965Y0187956D01*
X0098120Y0187987D01*
X0098276Y0188015D01*
X0098432Y0188039D01*
X0098589Y0188059D01*
X0098747Y0188075D01*
X0098904Y0188087D01*
X0099063Y0188095D01*
X0099221Y0188099D01*
X0099379Y0188099D01*
X0099537Y0188095D01*
X0099696Y0188087D01*
X0099853Y0188075D01*
X0100011Y0188059D01*
X0100168Y0188039D01*
X0100324Y0188015D01*
X0100480Y0187987D01*
X0100635Y0187956D01*
X0100790Y0187920D01*
X0100943Y0187881D01*
X0101095Y0187838D01*
X0101246Y0187791D01*
X0101396Y0187740D01*
X0101545Y0187685D01*
X0101692Y0187627D01*
X0101838Y0187565D01*
X0101982Y0187500D01*
X0102124Y0187430D01*
X0102265Y0187358D01*
X0102404Y0187281D01*
X0102540Y0187202D01*
X0102675Y0187118D01*
X0102808Y0187032D01*
X0102938Y0186942D01*
X0103066Y0186849D01*
X0103192Y0186753D01*
X0103315Y0186653D01*
X0103436Y0186551D01*
X0103554Y0186446D01*
X0103669Y0186337D01*
X0103782Y0186226D01*
X0103892Y0186112D01*
X0103999Y0185995D01*
X0104103Y0185876D01*
X0104204Y0185754D01*
X0104301Y0185629D01*
X0104396Y0185502D01*
X0104487Y0185373D01*
X0104576Y0185242D01*
X0104660Y0185108D01*
X0104742Y0184972D01*
X0104820Y0184835D01*
X0104894Y0184695D01*
X0104965Y0184553D01*
X0105033Y0184410D01*
X0105097Y0184265D01*
X0105157Y0184119D01*
X0105213Y0183971D01*
X0105266Y0183822D01*
X0105315Y0183671D01*
X0105360Y0183519D01*
X0105401Y0183366D01*
X0105439Y0183213D01*
X0105472Y0183058D01*
X0105502Y0182902D01*
X0105528Y0182746D01*
X0105549Y0182589D01*
X0105567Y0182432D01*
X0105581Y0182274D01*
X0105591Y0182116D01*
X0105597Y0181958D01*
X0105599Y0181800D01*
X0105597Y0181642D01*
X0105591Y0181484D01*
X0105581Y0181326D01*
X0105567Y0181168D01*
X0105549Y0181011D01*
X0105528Y0180854D01*
X0105502Y0180698D01*
X0105472Y0180542D01*
X0105439Y0180387D01*
X0105401Y0180234D01*
X0105360Y0180081D01*
X0105315Y0179929D01*
X0105266Y0179778D01*
X0105213Y0179629D01*
X0105157Y0179481D01*
X0105097Y0179335D01*
X0105033Y0179190D01*
X0104965Y0179047D01*
X0104894Y0178905D01*
X0104820Y0178765D01*
X0104742Y0178628D01*
X0104660Y0178492D01*
X0104576Y0178358D01*
X0104487Y0178227D01*
X0104396Y0178098D01*
X0104301Y0177971D01*
X0104204Y0177846D01*
X0104103Y0177724D01*
X0103999Y0177605D01*
X0103892Y0177488D01*
X0103782Y0177374D01*
X0103669Y0177263D01*
X0103554Y0177154D01*
X0103436Y0177049D01*
X0103315Y0176947D01*
X0103192Y0176847D01*
X0103066Y0176751D01*
X0102938Y0176658D01*
X0102808Y0176568D01*
X0102675Y0176482D01*
X0102540Y0176398D01*
X0102404Y0176319D01*
X0102265Y0176242D01*
X0102124Y0176170D01*
X0101982Y0176100D01*
X0101838Y0176035D01*
X0101692Y0175973D01*
X0101545Y0175915D01*
X0101396Y0175860D01*
X0101246Y0175809D01*
X0101095Y0175762D01*
X0100943Y0175719D01*
X0100790Y0175680D01*
X0100635Y0175644D01*
X0100480Y0175613D01*
X0100324Y0175585D01*
X0100168Y0175561D01*
X0100011Y0175541D01*
X0099853Y0175525D01*
X0099696Y0175513D01*
X0099537Y0175505D01*
X0099379Y0175501D01*
X0099221Y0175501D01*
X0099063Y0175505D01*
X0098904Y0175513D01*
X0098747Y0175525D01*
X0098589Y0175541D01*
X0098432Y0175561D01*
X0098276Y0175585D01*
X0098120Y0175613D01*
X0097965Y0175644D01*
X0097810Y0175680D01*
X0097657Y0175719D01*
X0097505Y0175762D01*
X0097354Y0175809D01*
X0097204Y0175860D01*
X0097055Y0175915D01*
X0096908Y0175973D01*
X0096762Y0176035D01*
X0096618Y0176100D01*
X0096476Y0176170D01*
X0096335Y0176242D01*
X0096196Y0176319D01*
X0096060Y0176398D01*
X0095925Y0176482D01*
X0095792Y0176568D01*
X0095662Y0176658D01*
X0095534Y0176751D01*
X0095408Y0176847D01*
X0095285Y0176947D01*
X0095164Y0177049D01*
X0095046Y0177154D01*
X0094931Y0177263D01*
X0094818Y0177374D01*
X0094708Y0177488D01*
X0094601Y0177605D01*
X0094497Y0177724D01*
X0094396Y0177846D01*
X0094299Y0177971D01*
X0094204Y0178098D01*
X0094113Y0178227D01*
X0094024Y0178358D01*
X0093940Y0178492D01*
X0093858Y0178628D01*
X0093780Y0178765D01*
X0093706Y0178905D01*
X0093635Y0179047D01*
X0093567Y0179190D01*
X0093503Y0179335D01*
X0093443Y0179481D01*
X0093387Y0179629D01*
X0093334Y0179778D01*
X0093285Y0179929D01*
X0093240Y0180081D01*
X0093199Y0180234D01*
X0093161Y0180387D01*
X0093128Y0180542D01*
X0093098Y0180698D01*
X0093072Y0180854D01*
X0093051Y0181011D01*
X0093033Y0181168D01*
X0093019Y0181326D01*
X0093009Y0181484D01*
X0093003Y0181642D01*
X0093001Y0181800D01*
X0137410Y0124300D02*
X0137412Y0124469D01*
X0137418Y0124638D01*
X0137429Y0124807D01*
X0137443Y0124975D01*
X0137462Y0125143D01*
X0137485Y0125311D01*
X0137511Y0125478D01*
X0137542Y0125644D01*
X0137577Y0125810D01*
X0137616Y0125974D01*
X0137660Y0126138D01*
X0137707Y0126300D01*
X0137758Y0126461D01*
X0137813Y0126621D01*
X0137872Y0126780D01*
X0137934Y0126937D01*
X0138001Y0127092D01*
X0138072Y0127246D01*
X0138146Y0127398D01*
X0138224Y0127548D01*
X0138305Y0127696D01*
X0138390Y0127842D01*
X0138479Y0127986D01*
X0138571Y0128128D01*
X0138667Y0128267D01*
X0138766Y0128404D01*
X0138868Y0128539D01*
X0138974Y0128671D01*
X0139083Y0128800D01*
X0139195Y0128927D01*
X0139310Y0129051D01*
X0139428Y0129172D01*
X0139549Y0129290D01*
X0139673Y0129405D01*
X0139800Y0129517D01*
X0139929Y0129626D01*
X0140061Y0129732D01*
X0140196Y0129834D01*
X0140333Y0129933D01*
X0140472Y0130029D01*
X0140614Y0130121D01*
X0140758Y0130210D01*
X0140904Y0130295D01*
X0141052Y0130376D01*
X0141202Y0130454D01*
X0141354Y0130528D01*
X0141508Y0130599D01*
X0141663Y0130666D01*
X0141820Y0130728D01*
X0141979Y0130787D01*
X0142139Y0130842D01*
X0142300Y0130893D01*
X0142462Y0130940D01*
X0142626Y0130984D01*
X0142790Y0131023D01*
X0142956Y0131058D01*
X0143122Y0131089D01*
X0143289Y0131115D01*
X0143457Y0131138D01*
X0143625Y0131157D01*
X0143793Y0131171D01*
X0143962Y0131182D01*
X0144131Y0131188D01*
X0144300Y0131190D01*
X0144469Y0131188D01*
X0144638Y0131182D01*
X0144807Y0131171D01*
X0144975Y0131157D01*
X0145143Y0131138D01*
X0145311Y0131115D01*
X0145478Y0131089D01*
X0145644Y0131058D01*
X0145810Y0131023D01*
X0145974Y0130984D01*
X0146138Y0130940D01*
X0146300Y0130893D01*
X0146461Y0130842D01*
X0146621Y0130787D01*
X0146780Y0130728D01*
X0146937Y0130666D01*
X0147092Y0130599D01*
X0147246Y0130528D01*
X0147398Y0130454D01*
X0147548Y0130376D01*
X0147696Y0130295D01*
X0147842Y0130210D01*
X0147986Y0130121D01*
X0148128Y0130029D01*
X0148267Y0129933D01*
X0148404Y0129834D01*
X0148539Y0129732D01*
X0148671Y0129626D01*
X0148800Y0129517D01*
X0148927Y0129405D01*
X0149051Y0129290D01*
X0149172Y0129172D01*
X0149290Y0129051D01*
X0149405Y0128927D01*
X0149517Y0128800D01*
X0149626Y0128671D01*
X0149732Y0128539D01*
X0149834Y0128404D01*
X0149933Y0128267D01*
X0150029Y0128128D01*
X0150121Y0127986D01*
X0150210Y0127842D01*
X0150295Y0127696D01*
X0150376Y0127548D01*
X0150454Y0127398D01*
X0150528Y0127246D01*
X0150599Y0127092D01*
X0150666Y0126937D01*
X0150728Y0126780D01*
X0150787Y0126621D01*
X0150842Y0126461D01*
X0150893Y0126300D01*
X0150940Y0126138D01*
X0150984Y0125974D01*
X0151023Y0125810D01*
X0151058Y0125644D01*
X0151089Y0125478D01*
X0151115Y0125311D01*
X0151138Y0125143D01*
X0151157Y0124975D01*
X0151171Y0124807D01*
X0151182Y0124638D01*
X0151188Y0124469D01*
X0151190Y0124300D01*
X0151188Y0124131D01*
X0151182Y0123962D01*
X0151171Y0123793D01*
X0151157Y0123625D01*
X0151138Y0123457D01*
X0151115Y0123289D01*
X0151089Y0123122D01*
X0151058Y0122956D01*
X0151023Y0122790D01*
X0150984Y0122626D01*
X0150940Y0122462D01*
X0150893Y0122300D01*
X0150842Y0122139D01*
X0150787Y0121979D01*
X0150728Y0121820D01*
X0150666Y0121663D01*
X0150599Y0121508D01*
X0150528Y0121354D01*
X0150454Y0121202D01*
X0150376Y0121052D01*
X0150295Y0120904D01*
X0150210Y0120758D01*
X0150121Y0120614D01*
X0150029Y0120472D01*
X0149933Y0120333D01*
X0149834Y0120196D01*
X0149732Y0120061D01*
X0149626Y0119929D01*
X0149517Y0119800D01*
X0149405Y0119673D01*
X0149290Y0119549D01*
X0149172Y0119428D01*
X0149051Y0119310D01*
X0148927Y0119195D01*
X0148800Y0119083D01*
X0148671Y0118974D01*
X0148539Y0118868D01*
X0148404Y0118766D01*
X0148267Y0118667D01*
X0148128Y0118571D01*
X0147986Y0118479D01*
X0147842Y0118390D01*
X0147696Y0118305D01*
X0147548Y0118224D01*
X0147398Y0118146D01*
X0147246Y0118072D01*
X0147092Y0118001D01*
X0146937Y0117934D01*
X0146780Y0117872D01*
X0146621Y0117813D01*
X0146461Y0117758D01*
X0146300Y0117707D01*
X0146138Y0117660D01*
X0145974Y0117616D01*
X0145810Y0117577D01*
X0145644Y0117542D01*
X0145478Y0117511D01*
X0145311Y0117485D01*
X0145143Y0117462D01*
X0144975Y0117443D01*
X0144807Y0117429D01*
X0144638Y0117418D01*
X0144469Y0117412D01*
X0144300Y0117410D01*
X0144131Y0117412D01*
X0143962Y0117418D01*
X0143793Y0117429D01*
X0143625Y0117443D01*
X0143457Y0117462D01*
X0143289Y0117485D01*
X0143122Y0117511D01*
X0142956Y0117542D01*
X0142790Y0117577D01*
X0142626Y0117616D01*
X0142462Y0117660D01*
X0142300Y0117707D01*
X0142139Y0117758D01*
X0141979Y0117813D01*
X0141820Y0117872D01*
X0141663Y0117934D01*
X0141508Y0118001D01*
X0141354Y0118072D01*
X0141202Y0118146D01*
X0141052Y0118224D01*
X0140904Y0118305D01*
X0140758Y0118390D01*
X0140614Y0118479D01*
X0140472Y0118571D01*
X0140333Y0118667D01*
X0140196Y0118766D01*
X0140061Y0118868D01*
X0139929Y0118974D01*
X0139800Y0119083D01*
X0139673Y0119195D01*
X0139549Y0119310D01*
X0139428Y0119428D01*
X0139310Y0119549D01*
X0139195Y0119673D01*
X0139083Y0119800D01*
X0138974Y0119929D01*
X0138868Y0120061D01*
X0138766Y0120196D01*
X0138667Y0120333D01*
X0138571Y0120472D01*
X0138479Y0120614D01*
X0138390Y0120758D01*
X0138305Y0120904D01*
X0138224Y0121052D01*
X0138146Y0121202D01*
X0138072Y0121354D01*
X0138001Y0121508D01*
X0137934Y0121663D01*
X0137872Y0121820D01*
X0137813Y0121979D01*
X0137758Y0122139D01*
X0137707Y0122300D01*
X0137660Y0122462D01*
X0137616Y0122626D01*
X0137577Y0122790D01*
X0137542Y0122956D01*
X0137511Y0123122D01*
X0137485Y0123289D01*
X0137462Y0123457D01*
X0137443Y0123625D01*
X0137429Y0123793D01*
X0137418Y0123962D01*
X0137412Y0124131D01*
X0137410Y0124300D01*
D11*
X0121662Y0124300D03*
X0121662Y0106583D03*
X0128552Y0092804D03*
X0144300Y0088867D03*
X0160048Y0092804D03*
X0166938Y0106583D03*
X0166938Y0124300D03*
X0166938Y0142017D03*
X0160048Y0155796D03*
X0144300Y0159733D03*
X0128552Y0155796D03*
X0121662Y0142017D03*
X0076938Y0142017D03*
X0070048Y0155796D03*
X0054300Y0159733D03*
X0038552Y0155796D03*
X0031662Y0142017D03*
X0031662Y0124300D03*
X0031662Y0106583D03*
X0038552Y0092804D03*
X0054300Y0088867D03*
X0070048Y0092804D03*
X0076938Y0106583D03*
X0076938Y0124300D03*
D12*
X0080550Y0172800D03*
X0118050Y0172800D03*
X0158050Y0172800D03*
X0040550Y0172800D03*
X0076800Y0033050D03*
X0076800Y0013050D03*
X0121800Y0013050D03*
X0121800Y0033050D03*
D13*
X0121800Y0041700D02*
X0121800Y0046900D01*
X0111800Y0046900D02*
X0111800Y0041700D01*
X0131800Y0041700D02*
X0131800Y0046900D01*
X0141800Y0046900D02*
X0141800Y0041700D01*
X0151800Y0041700D02*
X0151800Y0046900D01*
X0161800Y0046900D02*
X0161800Y0041700D01*
X0171800Y0041700D02*
X0171800Y0046900D01*
X0181800Y0046900D02*
X0181800Y0041700D01*
X0181800Y0071700D02*
X0181800Y0076900D01*
X0171800Y0076900D02*
X0171800Y0071700D01*
X0161800Y0071700D02*
X0161800Y0076900D01*
X0151800Y0076900D02*
X0151800Y0071700D01*
X0141800Y0071700D02*
X0141800Y0076900D01*
X0131800Y0076900D02*
X0131800Y0071700D01*
X0121800Y0071700D02*
X0121800Y0076900D01*
X0111800Y0076900D02*
X0111800Y0071700D01*
X0086800Y0071700D02*
X0086800Y0076900D01*
X0076800Y0076900D02*
X0076800Y0071700D01*
X0066800Y0071700D02*
X0066800Y0076900D01*
X0056800Y0076900D02*
X0056800Y0071700D01*
X0046800Y0071700D02*
X0046800Y0076900D01*
X0036800Y0076900D02*
X0036800Y0071700D01*
X0026800Y0071700D02*
X0026800Y0076900D01*
X0016800Y0076900D02*
X0016800Y0071700D01*
X0016800Y0046900D02*
X0016800Y0041700D01*
X0026800Y0041700D02*
X0026800Y0046900D01*
X0036800Y0046900D02*
X0036800Y0041700D01*
X0046800Y0041700D02*
X0046800Y0046900D01*
X0056800Y0046900D02*
X0056800Y0041700D01*
X0066800Y0041700D02*
X0066800Y0046900D01*
X0076800Y0046900D02*
X0076800Y0041700D01*
X0086800Y0041700D02*
X0086800Y0046900D01*
D14*
X0056800Y0026800D03*
X0056800Y0016800D03*
X0046800Y0016800D03*
X0046800Y0026800D03*
X0036800Y0026800D03*
X0036800Y0016800D03*
X0026800Y0016800D03*
X0026800Y0026800D03*
X0016800Y0026800D03*
X0016800Y0016800D03*
X0141800Y0016800D03*
X0141800Y0026800D03*
X0151800Y0026800D03*
X0151800Y0016800D03*
X0161800Y0016800D03*
X0161800Y0026800D03*
X0171800Y0026800D03*
X0171800Y0016800D03*
X0181800Y0016800D03*
X0181800Y0026800D03*
X0181800Y0171800D03*
X0181800Y0181800D03*
X0171800Y0181800D03*
X0171800Y0171800D03*
X0026800Y0171800D03*
X0026800Y0181800D03*
X0016800Y0181800D03*
X0016800Y0171800D03*
D15*
X0017000Y0172000D02*
X0021600Y0172000D01*
X0021600Y0173788D01*
X0018788Y0176600D01*
X0017000Y0176600D01*
X0017000Y0172000D01*
X0017000Y0171600D01*
X0021600Y0171600D01*
X0021600Y0169812D01*
X0018788Y0167000D01*
X0017000Y0167000D01*
X0017000Y0171600D01*
X0016600Y0171600D01*
X0016600Y0167000D01*
X0014812Y0167000D01*
X0012000Y0169812D01*
X0012000Y0171600D01*
X0016600Y0171600D01*
X0016600Y0172000D01*
X0016600Y0176600D01*
X0014812Y0176600D01*
X0012000Y0173788D01*
X0012000Y0172000D01*
X0016600Y0172000D01*
X0017000Y0172000D01*
X0017000Y0171242D02*
X0016600Y0171242D01*
X0016600Y0169644D02*
X0017000Y0169644D01*
X0017000Y0168045D02*
X0016600Y0168045D01*
X0019833Y0168045D02*
X0023767Y0168045D01*
X0024812Y0167000D02*
X0022000Y0169812D01*
X0022000Y0171600D01*
X0026600Y0171600D01*
X0027000Y0171600D01*
X0027000Y0172000D01*
X0031600Y0172000D01*
X0031600Y0173788D01*
X0028788Y0176600D01*
X0027000Y0176600D01*
X0027000Y0172000D01*
X0026600Y0172000D01*
X0026600Y0176600D01*
X0024812Y0176600D01*
X0022000Y0173788D01*
X0022000Y0172000D01*
X0026600Y0172000D01*
X0026600Y0171600D01*
X0026600Y0167000D01*
X0024812Y0167000D01*
X0026600Y0168045D02*
X0027000Y0168045D01*
X0027000Y0167000D02*
X0028788Y0167000D01*
X0031600Y0169812D01*
X0031600Y0171600D01*
X0027000Y0171600D01*
X0027000Y0167000D01*
X0029105Y0166447D02*
X0003800Y0166447D01*
X0003800Y0168045D02*
X0013767Y0168045D01*
X0012168Y0169644D02*
X0003800Y0169644D01*
X0003800Y0171242D02*
X0012000Y0171242D01*
X0012000Y0172841D02*
X0003800Y0172841D01*
X0003800Y0174439D02*
X0012651Y0174439D01*
X0014250Y0176038D02*
X0003800Y0176038D01*
X0003800Y0177636D02*
X0013893Y0177636D01*
X0014729Y0176800D02*
X0011800Y0179729D01*
X0011800Y0183871D01*
X0014729Y0186800D01*
X0018871Y0186800D01*
X0021800Y0183871D01*
X0021800Y0179729D01*
X0024729Y0176800D01*
X0028871Y0176800D01*
X0031800Y0179729D01*
X0031800Y0183871D01*
X0028871Y0186800D01*
X0024729Y0186800D01*
X0021800Y0183871D01*
X0021800Y0179729D01*
X0018871Y0176800D01*
X0014729Y0176800D01*
X0016600Y0176038D02*
X0017000Y0176038D01*
X0017000Y0174439D02*
X0016600Y0174439D01*
X0016600Y0172841D02*
X0017000Y0172841D01*
X0019350Y0176038D02*
X0024250Y0176038D01*
X0023893Y0177636D02*
X0019707Y0177636D01*
X0021306Y0179235D02*
X0022294Y0179235D01*
X0021800Y0180833D02*
X0021800Y0180833D01*
X0021800Y0182432D02*
X0021800Y0182432D01*
X0021641Y0184030D02*
X0021959Y0184030D01*
X0023558Y0185629D02*
X0020042Y0185629D01*
X0013558Y0185629D02*
X0003800Y0185629D01*
X0003800Y0187227D02*
X0084315Y0187227D01*
X0083822Y0185629D02*
X0030042Y0185629D01*
X0031641Y0184030D02*
X0083429Y0184030D01*
X0083429Y0184357D02*
X0083429Y0179573D01*
X0084833Y0175022D01*
X0082455Y0177400D01*
X0078645Y0177400D01*
X0075950Y0174705D01*
X0075950Y0170895D01*
X0078645Y0168200D01*
X0082455Y0168200D01*
X0085150Y0170895D01*
X0085150Y0174546D01*
X0087535Y0171049D01*
X0091275Y0168066D01*
X0095729Y0166318D01*
X0100499Y0165960D01*
X0100499Y0165960D01*
X0105164Y0167025D01*
X0109307Y0169417D01*
X0112561Y0172924D01*
X0112561Y0172924D01*
X0114637Y0177235D01*
X0115350Y0181965D01*
X0114637Y0186696D01*
X0114637Y0186696D01*
X0112561Y0191007D01*
X0109307Y0194514D01*
X0108811Y0194800D01*
X0194800Y0194800D01*
X0194800Y0003800D01*
X0108852Y0003800D01*
X0109307Y0004063D01*
X0112561Y0007570D01*
X0114637Y0011880D01*
X0115350Y0016611D01*
X0114637Y0021342D01*
X0112561Y0025652D01*
X0112561Y0025652D01*
X0109307Y0029159D01*
X0105164Y0031551D01*
X0105164Y0031551D01*
X0101446Y0032400D01*
X0101476Y0032400D01*
X0102726Y0032918D01*
X0103682Y0033874D01*
X0104200Y0035124D01*
X0104200Y0036476D01*
X0103682Y0037726D01*
X0103108Y0038300D01*
X0103682Y0038874D01*
X0104200Y0040124D01*
X0104200Y0041476D01*
X0103682Y0042726D01*
X0103358Y0043050D01*
X0103682Y0043374D01*
X0104200Y0044624D01*
X0104200Y0045493D01*
X0105226Y0045918D01*
X0106182Y0046874D01*
X0106700Y0048124D01*
X0106700Y0049476D01*
X0106566Y0049800D01*
X0108195Y0049800D01*
X0107900Y0049506D01*
X0107200Y0047815D01*
X0107200Y0040785D01*
X0107900Y0039094D01*
X0109194Y0037800D01*
X0110885Y0037100D01*
X0112715Y0037100D01*
X0114406Y0037800D01*
X0115700Y0039094D01*
X0116400Y0040785D01*
X0116400Y0047815D01*
X0115700Y0049506D01*
X0115405Y0049800D01*
X0118195Y0049800D01*
X0117900Y0049506D01*
X0117200Y0047815D01*
X0117200Y0040785D01*
X0117900Y0039094D01*
X0119194Y0037800D01*
X0119796Y0037551D01*
X0117200Y0034955D01*
X0117200Y0031145D01*
X0119895Y0028450D01*
X0123705Y0028450D01*
X0125105Y0029850D01*
X0137779Y0029850D01*
X0136800Y0028871D01*
X0136800Y0024729D01*
X0139729Y0021800D01*
X0136800Y0018871D01*
X0136800Y0014729D01*
X0139729Y0011800D01*
X0143871Y0011800D01*
X0146800Y0014729D01*
X0149729Y0011800D01*
X0153871Y0011800D01*
X0156800Y0014729D01*
X0159729Y0011800D01*
X0163871Y0011800D01*
X0166800Y0014729D01*
X0169729Y0011800D01*
X0173871Y0011800D01*
X0176800Y0014729D01*
X0176800Y0018871D01*
X0173871Y0021800D01*
X0176800Y0024729D01*
X0176800Y0028871D01*
X0173871Y0031800D01*
X0169729Y0031800D01*
X0166800Y0028871D01*
X0166800Y0024729D01*
X0169729Y0021800D01*
X0173871Y0021800D01*
X0169729Y0021800D01*
X0166800Y0018871D01*
X0166800Y0014729D01*
X0166800Y0018871D01*
X0163871Y0021800D01*
X0166800Y0024729D01*
X0166800Y0028871D01*
X0163871Y0031800D01*
X0159729Y0031800D01*
X0156800Y0028871D01*
X0156800Y0024729D01*
X0159729Y0021800D01*
X0163871Y0021800D01*
X0159729Y0021800D01*
X0156800Y0018871D01*
X0156800Y0014729D01*
X0156800Y0018871D01*
X0153871Y0021800D01*
X0149729Y0021800D01*
X0146800Y0018871D01*
X0146800Y0014729D01*
X0146800Y0018871D01*
X0143871Y0021800D01*
X0139729Y0021800D01*
X0143871Y0021800D01*
X0146800Y0024729D01*
X0149729Y0021800D01*
X0153871Y0021800D01*
X0156800Y0024729D01*
X0156800Y0028871D01*
X0153871Y0031800D01*
X0152575Y0031800D01*
X0153613Y0032837D01*
X0154513Y0033737D01*
X0155000Y0034913D01*
X0155000Y0038395D01*
X0155700Y0039094D01*
X0156400Y0040785D01*
X0156400Y0047815D01*
X0155700Y0049506D01*
X0155000Y0050205D01*
X0155000Y0063600D01*
X0181725Y0063600D01*
X0184850Y0060475D01*
X0184850Y0050355D01*
X0184406Y0050800D01*
X0182715Y0051500D01*
X0180885Y0051500D01*
X0179194Y0050800D01*
X0177900Y0049506D01*
X0177200Y0047815D01*
X0177200Y0040785D01*
X0177900Y0039094D01*
X0179194Y0037800D01*
X0180885Y0037100D01*
X0182715Y0037100D01*
X0184406Y0037800D01*
X0184850Y0038245D01*
X0184850Y0034375D01*
X0182275Y0031800D01*
X0179729Y0031800D01*
X0176800Y0028871D01*
X0176800Y0024729D01*
X0179729Y0021800D01*
X0183871Y0021800D01*
X0186800Y0024729D01*
X0186800Y0027275D01*
X0189863Y0030337D01*
X0190763Y0031237D01*
X0191250Y0032413D01*
X0191250Y0062437D01*
X0190763Y0063613D01*
X0185763Y0068613D01*
X0185490Y0068885D01*
X0185700Y0069094D01*
X0186400Y0070785D01*
X0186400Y0077815D01*
X0185700Y0079506D01*
X0184406Y0080800D01*
X0182715Y0081500D01*
X0180885Y0081500D01*
X0179194Y0080800D01*
X0177900Y0079506D01*
X0177200Y0077815D01*
X0177200Y0070785D01*
X0177525Y0070000D01*
X0176075Y0070000D01*
X0176400Y0070785D01*
X0176400Y0077815D01*
X0175700Y0079506D01*
X0174406Y0080800D01*
X0172715Y0081500D01*
X0170885Y0081500D01*
X0169194Y0080800D01*
X0167900Y0079506D01*
X0167200Y0077815D01*
X0167200Y0070785D01*
X0167525Y0070000D01*
X0166075Y0070000D01*
X0166400Y0070785D01*
X0166400Y0077815D01*
X0165700Y0079506D01*
X0164406Y0080800D01*
X0162715Y0081500D01*
X0160885Y0081500D01*
X0159194Y0080800D01*
X0157900Y0079506D01*
X0157200Y0077815D01*
X0157200Y0070785D01*
X0157525Y0070000D01*
X0155872Y0070000D01*
X0155878Y0070011D01*
X0156092Y0070670D01*
X0156200Y0071354D01*
X0156200Y0074300D01*
X0156200Y0077246D01*
X0156092Y0077930D01*
X0155878Y0078589D01*
X0155563Y0079206D01*
X0155156Y0079766D01*
X0154666Y0080256D01*
X0154106Y0080663D01*
X0153489Y0080978D01*
X0152830Y0081192D01*
X0152146Y0081300D01*
X0151800Y0081300D01*
X0151800Y0074300D01*
X0151800Y0074300D01*
X0156200Y0074300D01*
X0151800Y0074300D01*
X0151800Y0074300D01*
X0151800Y0074300D01*
X0147400Y0074300D01*
X0147400Y0077246D01*
X0147508Y0077930D01*
X0147722Y0078589D01*
X0148037Y0079206D01*
X0148444Y0079766D01*
X0148934Y0080256D01*
X0149494Y0080663D01*
X0150111Y0080978D01*
X0150770Y0081192D01*
X0151454Y0081300D01*
X0151800Y0081300D01*
X0151800Y0074300D01*
X0147400Y0074300D01*
X0147400Y0071354D01*
X0147508Y0070670D01*
X0147722Y0070011D01*
X0147728Y0070000D01*
X0146075Y0070000D01*
X0146400Y0070785D01*
X0146400Y0077815D01*
X0145700Y0079506D01*
X0144669Y0080536D01*
X0147751Y0080536D01*
X0152631Y0085416D01*
X0152631Y0088440D01*
X0156597Y0084473D01*
X0163499Y0084473D01*
X0168379Y0089353D01*
X0168379Y0096255D01*
X0166381Y0098253D01*
X0170388Y0098253D01*
X0175268Y0103133D01*
X0175268Y0110034D01*
X0170388Y0114914D01*
X0163487Y0114914D01*
X0158607Y0110034D01*
X0158607Y0103133D01*
X0160605Y0101135D01*
X0156597Y0101135D01*
X0151717Y0096255D01*
X0151717Y0093231D01*
X0147751Y0097198D01*
X0140849Y0097198D01*
X0136883Y0093231D01*
X0136883Y0096255D01*
X0132003Y0101135D01*
X0127995Y0101135D01*
X0129993Y0103133D01*
X0129993Y0110034D01*
X0125113Y0114914D01*
X0118212Y0114914D01*
X0113331Y0110034D01*
X0113331Y0103133D01*
X0118212Y0098253D01*
X0122219Y0098253D01*
X0120371Y0096404D01*
X0117287Y0096404D01*
X0111650Y0102041D01*
X0111650Y0161309D01*
X0118541Y0168200D01*
X0119955Y0168200D01*
X0122650Y0170895D01*
X0122650Y0174705D01*
X0119955Y0177400D01*
X0116145Y0177400D01*
X0113450Y0174705D01*
X0113450Y0173291D01*
X0104998Y0164839D01*
X0104450Y0163516D01*
X0104450Y0147675D01*
X0104081Y0148044D01*
X0104081Y0148866D01*
X0101866Y0151081D01*
X0098734Y0151081D01*
X0096519Y0148866D01*
X0096519Y0145734D01*
X0098734Y0143519D01*
X0099100Y0143519D01*
X0099100Y0098163D01*
X0099587Y0096987D01*
X0100487Y0096087D01*
X0117487Y0079087D01*
X0117692Y0079002D01*
X0117200Y0077815D01*
X0117200Y0070785D01*
X0117525Y0070000D01*
X0116075Y0070000D01*
X0116400Y0070785D01*
X0116400Y0077815D01*
X0115700Y0079506D01*
X0114406Y0080800D01*
X0112715Y0081500D01*
X0110885Y0081500D01*
X0109194Y0080800D01*
X0107900Y0079506D01*
X0107200Y0077815D01*
X0107200Y0070785D01*
X0107525Y0070000D01*
X0091075Y0070000D01*
X0091400Y0070785D01*
X0091400Y0077815D01*
X0090700Y0079506D01*
X0089406Y0080800D01*
X0087715Y0081500D01*
X0085885Y0081500D01*
X0084194Y0080800D01*
X0082900Y0079506D01*
X0082200Y0077815D01*
X0082200Y0070785D01*
X0082525Y0070000D01*
X0081075Y0070000D01*
X0081400Y0070785D01*
X0081400Y0077815D01*
X0080700Y0079506D01*
X0079406Y0080800D01*
X0077715Y0081500D01*
X0075885Y0081500D01*
X0074194Y0080800D01*
X0072900Y0079506D01*
X0072200Y0077815D01*
X0072200Y0070785D01*
X0072525Y0070000D01*
X0071075Y0070000D01*
X0071400Y0070785D01*
X0071400Y0077815D01*
X0070700Y0079506D01*
X0069406Y0080800D01*
X0067715Y0081500D01*
X0065885Y0081500D01*
X0064194Y0080800D01*
X0062900Y0079506D01*
X0062200Y0077815D01*
X0062200Y0070785D01*
X0062525Y0070000D01*
X0060872Y0070000D01*
X0060878Y0070011D01*
X0061092Y0070670D01*
X0061200Y0071354D01*
X0061200Y0074300D01*
X0061200Y0077246D01*
X0061092Y0077930D01*
X0060878Y0078589D01*
X0060563Y0079206D01*
X0060156Y0079766D01*
X0059666Y0080256D01*
X0059106Y0080663D01*
X0058489Y0080978D01*
X0058265Y0081050D01*
X0062631Y0085416D01*
X0062631Y0088440D01*
X0066597Y0084473D01*
X0073499Y0084473D01*
X0078379Y0089353D01*
X0078379Y0096255D01*
X0076381Y0098253D01*
X0080388Y0098253D01*
X0085268Y0103133D01*
X0085268Y0110034D01*
X0080388Y0114914D01*
X0073487Y0114914D01*
X0068607Y0110034D01*
X0068607Y0103133D01*
X0070605Y0101135D01*
X0066597Y0101135D01*
X0061717Y0096255D01*
X0061717Y0093231D01*
X0057751Y0097198D01*
X0050849Y0097198D01*
X0046883Y0093231D01*
X0046883Y0096255D01*
X0042003Y0101135D01*
X0037995Y0101135D01*
X0039993Y0103133D01*
X0039993Y0110034D01*
X0035113Y0114914D01*
X0028212Y0114914D01*
X0023331Y0110034D01*
X0023331Y0103133D01*
X0028212Y0098253D01*
X0032219Y0098253D01*
X0030371Y0096404D01*
X0024787Y0096404D01*
X0021650Y0099541D01*
X0021650Y0148809D01*
X0030221Y0157380D01*
X0030221Y0152345D01*
X0032219Y0150347D01*
X0028212Y0150347D01*
X0023331Y0145467D01*
X0023331Y0138566D01*
X0028212Y0133686D01*
X0035113Y0133686D01*
X0039993Y0138566D01*
X0039993Y0145467D01*
X0037995Y0147465D01*
X0042003Y0147465D01*
X0046883Y0152345D01*
X0046883Y0155369D01*
X0050849Y0151402D01*
X0057751Y0151402D01*
X0061717Y0155369D01*
X0061717Y0152345D01*
X0066597Y0147465D01*
X0070605Y0147465D01*
X0068607Y0145467D01*
X0068607Y0138566D01*
X0073487Y0133686D01*
X0080388Y0133686D01*
X0085268Y0138566D01*
X0085268Y0145467D01*
X0080388Y0150347D01*
X0076381Y0150347D01*
X0078379Y0152345D01*
X0078379Y0159247D01*
X0073499Y0164127D01*
X0066597Y0164127D01*
X0062631Y0160160D01*
X0062631Y0163184D01*
X0057751Y0168064D01*
X0050849Y0168064D01*
X0045969Y0163184D01*
X0045969Y0160160D01*
X0042003Y0164127D01*
X0036968Y0164127D01*
X0041041Y0168200D01*
X0042455Y0168200D01*
X0045150Y0170895D01*
X0045150Y0174705D01*
X0042455Y0177400D01*
X0038645Y0177400D01*
X0035950Y0174705D01*
X0035950Y0173291D01*
X0016011Y0153352D01*
X0014998Y0152339D01*
X0014450Y0151016D01*
X0014450Y0097334D01*
X0014998Y0096011D01*
X0020244Y0090765D01*
X0021257Y0089752D01*
X0022580Y0089204D01*
X0030371Y0089204D01*
X0034575Y0085000D01*
X0022125Y0085000D01*
X0010000Y0097125D01*
X0010000Y0158153D01*
X0010581Y0158734D01*
X0010581Y0161866D01*
X0008366Y0164081D01*
X0005234Y0164081D01*
X0003800Y0162647D01*
X0003800Y0194800D01*
X0089940Y0194800D01*
X0087535Y0192882D01*
X0087535Y0192882D01*
X0084840Y0188929D01*
X0083429Y0184357D01*
X0083429Y0182432D02*
X0031800Y0182432D01*
X0031800Y0180833D02*
X0083429Y0180833D01*
X0083534Y0179235D02*
X0031306Y0179235D01*
X0029707Y0177636D02*
X0084027Y0177636D01*
X0083818Y0176038D02*
X0084520Y0176038D01*
X0085150Y0174439D02*
X0085223Y0174439D01*
X0085150Y0172841D02*
X0086313Y0172841D01*
X0087403Y0171242D02*
X0085150Y0171242D01*
X0083899Y0169644D02*
X0089296Y0169644D01*
X0087535Y0171049D02*
X0087535Y0171049D01*
X0087535Y0171049D01*
X0091275Y0168066D02*
X0091275Y0168066D01*
X0091327Y0168045D02*
X0057769Y0168045D01*
X0059368Y0166447D02*
X0095400Y0166447D01*
X0095729Y0166318D02*
X0095729Y0166318D01*
X0102630Y0166447D02*
X0106605Y0166447D01*
X0105164Y0167025D02*
X0105164Y0167025D01*
X0106931Y0168045D02*
X0108204Y0168045D01*
X0109307Y0169417D02*
X0109307Y0169417D01*
X0109307Y0169417D01*
X0109517Y0169644D02*
X0109803Y0169644D01*
X0111000Y0171242D02*
X0111401Y0171242D01*
X0112484Y0172841D02*
X0113000Y0172841D01*
X0113291Y0174439D02*
X0113450Y0174439D01*
X0114060Y0176038D02*
X0114782Y0176038D01*
X0114637Y0177235D02*
X0114637Y0177235D01*
X0114697Y0177636D02*
X0168893Y0177636D01*
X0169729Y0176800D02*
X0173871Y0176800D01*
X0176800Y0179729D01*
X0179729Y0176800D01*
X0183871Y0176800D01*
X0186800Y0179729D01*
X0186800Y0183871D01*
X0183871Y0186800D01*
X0179729Y0186800D01*
X0176800Y0183871D01*
X0176800Y0179729D01*
X0176800Y0183871D01*
X0173871Y0186800D01*
X0169729Y0186800D01*
X0166800Y0183871D01*
X0166800Y0179729D01*
X0169729Y0176800D01*
X0169812Y0176600D02*
X0167000Y0173788D01*
X0167000Y0172000D01*
X0171600Y0172000D01*
X0171600Y0176600D01*
X0169812Y0176600D01*
X0169250Y0176038D02*
X0161318Y0176038D01*
X0162650Y0174705D02*
X0159955Y0177400D01*
X0156145Y0177400D01*
X0153450Y0174705D01*
X0153450Y0170895D01*
X0156145Y0168200D01*
X0159955Y0168200D01*
X0162650Y0170895D01*
X0162650Y0174705D01*
X0162650Y0174439D02*
X0167651Y0174439D01*
X0167000Y0172841D02*
X0162650Y0172841D01*
X0162650Y0171242D02*
X0167000Y0171242D01*
X0167000Y0171600D02*
X0167000Y0169812D01*
X0169812Y0167000D01*
X0171600Y0167000D01*
X0171600Y0171600D01*
X0172000Y0171600D01*
X0172000Y0172000D01*
X0176600Y0172000D01*
X0176600Y0173788D01*
X0173788Y0176600D01*
X0172000Y0176600D01*
X0172000Y0172000D01*
X0171600Y0172000D01*
X0171600Y0171600D01*
X0167000Y0171600D01*
X0167168Y0169644D02*
X0161399Y0169644D01*
X0163499Y0164127D02*
X0156597Y0164127D01*
X0152631Y0160160D01*
X0152631Y0163184D01*
X0147751Y0168064D01*
X0140849Y0168064D01*
X0135969Y0163184D01*
X0135969Y0160160D01*
X0132003Y0164127D01*
X0125101Y0164127D01*
X0120221Y0159247D01*
X0120221Y0152345D01*
X0122219Y0150347D01*
X0118212Y0150347D01*
X0113331Y0145467D01*
X0113331Y0138566D01*
X0118212Y0133686D01*
X0125113Y0133686D01*
X0129993Y0138566D01*
X0129993Y0145467D01*
X0127995Y0147465D01*
X0132003Y0147465D01*
X0136883Y0152345D01*
X0136883Y0155369D01*
X0140849Y0151402D01*
X0147751Y0151402D01*
X0151717Y0155369D01*
X0151717Y0152345D01*
X0156597Y0147465D01*
X0160605Y0147465D01*
X0158607Y0145467D01*
X0158607Y0138566D01*
X0163487Y0133686D01*
X0170388Y0133686D01*
X0175268Y0138566D01*
X0175268Y0145467D01*
X0170388Y0150347D01*
X0166381Y0150347D01*
X0168379Y0152345D01*
X0168379Y0159247D01*
X0163499Y0164127D01*
X0164376Y0163250D02*
X0194800Y0163250D01*
X0194800Y0164848D02*
X0150966Y0164848D01*
X0149368Y0166447D02*
X0194800Y0166447D01*
X0194800Y0168045D02*
X0184833Y0168045D01*
X0183788Y0167000D02*
X0186600Y0169812D01*
X0186600Y0171600D01*
X0182000Y0171600D01*
X0182000Y0172000D01*
X0186600Y0172000D01*
X0186600Y0173788D01*
X0183788Y0176600D01*
X0182000Y0176600D01*
X0182000Y0172000D01*
X0181600Y0172000D01*
X0181600Y0176600D01*
X0179812Y0176600D01*
X0177000Y0173788D01*
X0177000Y0172000D01*
X0181600Y0172000D01*
X0181600Y0171600D01*
X0182000Y0171600D01*
X0182000Y0167000D01*
X0183788Y0167000D01*
X0182000Y0168045D02*
X0181600Y0168045D01*
X0181600Y0167000D02*
X0181600Y0171600D01*
X0177000Y0171600D01*
X0177000Y0169812D01*
X0179812Y0167000D01*
X0181600Y0167000D01*
X0181600Y0169644D02*
X0182000Y0169644D01*
X0182000Y0171242D02*
X0181600Y0171242D01*
X0181600Y0172841D02*
X0182000Y0172841D01*
X0182000Y0174439D02*
X0181600Y0174439D01*
X0181600Y0176038D02*
X0182000Y0176038D01*
X0184350Y0176038D02*
X0194800Y0176038D01*
X0194800Y0177636D02*
X0184707Y0177636D01*
X0186306Y0179235D02*
X0194800Y0179235D01*
X0194800Y0180833D02*
X0186800Y0180833D01*
X0186800Y0182432D02*
X0194800Y0182432D01*
X0194800Y0184030D02*
X0186641Y0184030D01*
X0185042Y0185629D02*
X0194800Y0185629D01*
X0194800Y0187227D02*
X0114381Y0187227D01*
X0114798Y0185629D02*
X0168558Y0185629D01*
X0166959Y0184030D02*
X0115039Y0184030D01*
X0115280Y0182432D02*
X0166800Y0182432D01*
X0166800Y0180833D02*
X0115179Y0180833D01*
X0114938Y0179235D02*
X0167294Y0179235D01*
X0171600Y0176038D02*
X0172000Y0176038D01*
X0172000Y0174439D02*
X0171600Y0174439D01*
X0171600Y0172841D02*
X0172000Y0172841D01*
X0172000Y0171600D02*
X0176600Y0171600D01*
X0176600Y0169812D01*
X0173788Y0167000D01*
X0172000Y0167000D01*
X0172000Y0171600D01*
X0172000Y0171242D02*
X0171600Y0171242D01*
X0171600Y0169644D02*
X0172000Y0169644D01*
X0172000Y0168045D02*
X0171600Y0168045D01*
X0168767Y0168045D02*
X0147769Y0168045D01*
X0152565Y0163250D02*
X0155720Y0163250D01*
X0154122Y0161651D02*
X0152631Y0161651D01*
X0151717Y0155257D02*
X0151605Y0155257D01*
X0151717Y0153659D02*
X0150007Y0153659D01*
X0148408Y0152060D02*
X0152003Y0152060D01*
X0153601Y0150462D02*
X0134999Y0150462D01*
X0136597Y0152060D02*
X0140192Y0152060D01*
X0138593Y0153659D02*
X0136883Y0153659D01*
X0136883Y0155257D02*
X0136995Y0155257D01*
X0135969Y0161651D02*
X0134478Y0161651D01*
X0136035Y0163250D02*
X0132880Y0163250D01*
X0137634Y0164848D02*
X0115189Y0164848D01*
X0113591Y0163250D02*
X0124224Y0163250D01*
X0122626Y0161651D02*
X0111992Y0161651D01*
X0111650Y0160053D02*
X0121027Y0160053D01*
X0120221Y0158454D02*
X0111650Y0158454D01*
X0111650Y0156856D02*
X0120221Y0156856D01*
X0120221Y0155257D02*
X0111650Y0155257D01*
X0111650Y0153659D02*
X0120221Y0153659D01*
X0120507Y0152060D02*
X0111650Y0152060D01*
X0111650Y0150462D02*
X0122105Y0150462D01*
X0116727Y0148863D02*
X0111650Y0148863D01*
X0111650Y0147265D02*
X0115129Y0147265D01*
X0113530Y0145666D02*
X0111650Y0145666D01*
X0111650Y0144068D02*
X0113331Y0144068D01*
X0113331Y0142469D02*
X0111650Y0142469D01*
X0111650Y0140870D02*
X0113331Y0140870D01*
X0113331Y0139272D02*
X0111650Y0139272D01*
X0111650Y0137673D02*
X0114224Y0137673D01*
X0115822Y0136075D02*
X0111650Y0136075D01*
X0111650Y0134476D02*
X0117421Y0134476D01*
X0118212Y0132631D02*
X0113331Y0127751D01*
X0113331Y0120849D01*
X0118212Y0115969D01*
X0125113Y0115969D01*
X0129993Y0120849D01*
X0129993Y0127751D01*
X0125113Y0132631D01*
X0118212Y0132631D01*
X0116860Y0131279D02*
X0111650Y0131279D01*
X0111650Y0129681D02*
X0115262Y0129681D01*
X0113663Y0128082D02*
X0111650Y0128082D01*
X0111650Y0126484D02*
X0113331Y0126484D01*
X0113331Y0124885D02*
X0111650Y0124885D01*
X0111650Y0123287D02*
X0113331Y0123287D01*
X0113331Y0121688D02*
X0111650Y0121688D01*
X0111650Y0120090D02*
X0114091Y0120090D01*
X0115689Y0118491D02*
X0111650Y0118491D01*
X0111650Y0116893D02*
X0117288Y0116893D01*
X0116993Y0113696D02*
X0111650Y0113696D01*
X0111650Y0115294D02*
X0194800Y0115294D01*
X0194800Y0113696D02*
X0171607Y0113696D01*
X0173205Y0112097D02*
X0194800Y0112097D01*
X0194800Y0110499D02*
X0174804Y0110499D01*
X0175268Y0108900D02*
X0194800Y0108900D01*
X0194800Y0107302D02*
X0175268Y0107302D01*
X0175268Y0105703D02*
X0194800Y0105703D01*
X0194800Y0104105D02*
X0175268Y0104105D01*
X0174642Y0102506D02*
X0194800Y0102506D01*
X0194800Y0100908D02*
X0173043Y0100908D01*
X0171445Y0099309D02*
X0194800Y0099309D01*
X0194800Y0097711D02*
X0166923Y0097711D01*
X0168379Y0096112D02*
X0194800Y0096112D01*
X0194800Y0094514D02*
X0168379Y0094514D01*
X0168379Y0092915D02*
X0194800Y0092915D01*
X0194800Y0091317D02*
X0168379Y0091317D01*
X0168379Y0089718D02*
X0194800Y0089718D01*
X0194800Y0088120D02*
X0167145Y0088120D01*
X0165547Y0086521D02*
X0194800Y0086521D01*
X0194800Y0084923D02*
X0163948Y0084923D01*
X0165078Y0080127D02*
X0168522Y0080127D01*
X0167496Y0078529D02*
X0166104Y0078529D01*
X0166400Y0076930D02*
X0167200Y0076930D01*
X0167200Y0075332D02*
X0166400Y0075332D01*
X0166400Y0073733D02*
X0167200Y0073733D01*
X0167200Y0072134D02*
X0166400Y0072134D01*
X0166297Y0070536D02*
X0167303Y0070536D01*
X0176297Y0070536D02*
X0177303Y0070536D01*
X0177200Y0072134D02*
X0176400Y0072134D01*
X0176400Y0073733D02*
X0177200Y0073733D01*
X0177200Y0075332D02*
X0176400Y0075332D01*
X0176400Y0076930D02*
X0177200Y0076930D01*
X0177496Y0078529D02*
X0176104Y0078529D01*
X0175078Y0080127D02*
X0178522Y0080127D01*
X0185078Y0080127D02*
X0194800Y0080127D01*
X0194800Y0078529D02*
X0186104Y0078529D01*
X0186400Y0076930D02*
X0194800Y0076930D01*
X0194800Y0075332D02*
X0186400Y0075332D01*
X0186400Y0073733D02*
X0194800Y0073733D01*
X0194800Y0072134D02*
X0186400Y0072134D01*
X0186297Y0070536D02*
X0194800Y0070536D01*
X0194800Y0068937D02*
X0185543Y0068937D01*
X0187037Y0067339D02*
X0194800Y0067339D01*
X0194800Y0065740D02*
X0188635Y0065740D01*
X0190234Y0064142D02*
X0194800Y0064142D01*
X0194800Y0062543D02*
X0191206Y0062543D01*
X0191250Y0060945D02*
X0194800Y0060945D01*
X0194800Y0059346D02*
X0191250Y0059346D01*
X0191250Y0057748D02*
X0194800Y0057748D01*
X0194800Y0056149D02*
X0191250Y0056149D01*
X0191250Y0054551D02*
X0194800Y0054551D01*
X0194800Y0052952D02*
X0191250Y0052952D01*
X0191250Y0051354D02*
X0194800Y0051354D01*
X0194800Y0049755D02*
X0191250Y0049755D01*
X0191250Y0048157D02*
X0194800Y0048157D01*
X0194800Y0046558D02*
X0191250Y0046558D01*
X0191250Y0044960D02*
X0194800Y0044960D01*
X0194800Y0043361D02*
X0191250Y0043361D01*
X0191250Y0041763D02*
X0194800Y0041763D01*
X0194800Y0040164D02*
X0191250Y0040164D01*
X0191250Y0038566D02*
X0194800Y0038566D01*
X0194800Y0036967D02*
X0191250Y0036967D01*
X0191250Y0035369D02*
X0194800Y0035369D01*
X0194800Y0033770D02*
X0191250Y0033770D01*
X0191150Y0032172D02*
X0194800Y0032172D01*
X0194800Y0030573D02*
X0190099Y0030573D01*
X0188500Y0028975D02*
X0194800Y0028975D01*
X0194800Y0027376D02*
X0186902Y0027376D01*
X0186800Y0025778D02*
X0194800Y0025778D01*
X0194800Y0024179D02*
X0186250Y0024179D01*
X0184652Y0022581D02*
X0194800Y0022581D01*
X0194800Y0020982D02*
X0184406Y0020982D01*
X0183788Y0021600D02*
X0182000Y0021600D01*
X0182000Y0017000D01*
X0186600Y0017000D01*
X0186600Y0018788D01*
X0183788Y0021600D01*
X0182000Y0020982D02*
X0181600Y0020982D01*
X0181600Y0021600D02*
X0179812Y0021600D01*
X0177000Y0018788D01*
X0177000Y0017000D01*
X0181600Y0017000D01*
X0181600Y0021600D01*
X0181600Y0019384D02*
X0182000Y0019384D01*
X0182000Y0017785D02*
X0181600Y0017785D01*
X0181600Y0017000D02*
X0182000Y0017000D01*
X0182000Y0016600D01*
X0186600Y0016600D01*
X0186600Y0014812D01*
X0183788Y0012000D01*
X0182000Y0012000D01*
X0182000Y0016600D01*
X0181600Y0016600D01*
X0181600Y0012000D01*
X0179812Y0012000D01*
X0177000Y0014812D01*
X0177000Y0016600D01*
X0181600Y0016600D01*
X0181600Y0017000D01*
X0181600Y0016187D02*
X0182000Y0016187D01*
X0182000Y0014588D02*
X0181600Y0014588D01*
X0181600Y0012990D02*
X0182000Y0012990D01*
X0178822Y0012990D02*
X0175061Y0012990D01*
X0176659Y0014588D02*
X0177224Y0014588D01*
X0177000Y0016187D02*
X0176800Y0016187D01*
X0176800Y0017785D02*
X0177000Y0017785D01*
X0177595Y0019384D02*
X0176287Y0019384D01*
X0174689Y0020982D02*
X0179194Y0020982D01*
X0178948Y0022581D02*
X0174652Y0022581D01*
X0176250Y0024179D02*
X0177350Y0024179D01*
X0176800Y0025778D02*
X0176800Y0025778D01*
X0176800Y0027376D02*
X0176800Y0027376D01*
X0176696Y0028975D02*
X0176904Y0028975D01*
X0178502Y0030573D02*
X0175098Y0030573D01*
X0172715Y0037100D02*
X0174406Y0037800D01*
X0175700Y0039094D01*
X0176400Y0040785D01*
X0176400Y0047815D01*
X0175700Y0049506D01*
X0174406Y0050800D01*
X0172715Y0051500D01*
X0170885Y0051500D01*
X0169194Y0050800D01*
X0167900Y0049506D01*
X0167200Y0047815D01*
X0167200Y0040785D01*
X0167900Y0039094D01*
X0169194Y0037800D01*
X0170885Y0037100D01*
X0172715Y0037100D01*
X0175171Y0038566D02*
X0178429Y0038566D01*
X0177457Y0040164D02*
X0176143Y0040164D01*
X0176400Y0041763D02*
X0177200Y0041763D01*
X0177200Y0043361D02*
X0176400Y0043361D01*
X0176400Y0044960D02*
X0177200Y0044960D01*
X0177200Y0046558D02*
X0176400Y0046558D01*
X0176258Y0048157D02*
X0177342Y0048157D01*
X0178150Y0049755D02*
X0175450Y0049755D01*
X0173068Y0051354D02*
X0180532Y0051354D01*
X0183068Y0051354D02*
X0184850Y0051354D01*
X0184850Y0052952D02*
X0155000Y0052952D01*
X0155000Y0051354D02*
X0160532Y0051354D01*
X0160885Y0051500D02*
X0159194Y0050800D01*
X0157900Y0049506D01*
X0157200Y0047815D01*
X0157200Y0040785D01*
X0157900Y0039094D01*
X0159194Y0037800D01*
X0160885Y0037100D01*
X0162715Y0037100D01*
X0164406Y0037800D01*
X0165700Y0039094D01*
X0166400Y0040785D01*
X0166400Y0047815D01*
X0165700Y0049506D01*
X0164406Y0050800D01*
X0162715Y0051500D01*
X0160885Y0051500D01*
X0163068Y0051354D02*
X0170532Y0051354D01*
X0168150Y0049755D02*
X0165450Y0049755D01*
X0166258Y0048157D02*
X0167342Y0048157D01*
X0167200Y0046558D02*
X0166400Y0046558D01*
X0166400Y0044960D02*
X0167200Y0044960D01*
X0167200Y0043361D02*
X0166400Y0043361D01*
X0166400Y0041763D02*
X0167200Y0041763D01*
X0167457Y0040164D02*
X0166143Y0040164D01*
X0165171Y0038566D02*
X0168429Y0038566D01*
X0168502Y0030573D02*
X0165098Y0030573D01*
X0166696Y0028975D02*
X0166904Y0028975D01*
X0166800Y0027376D02*
X0166800Y0027376D01*
X0166800Y0025778D02*
X0166800Y0025778D01*
X0166250Y0024179D02*
X0167350Y0024179D01*
X0168948Y0022581D02*
X0164652Y0022581D01*
X0164689Y0020982D02*
X0168911Y0020982D01*
X0167313Y0019384D02*
X0166287Y0019384D01*
X0166800Y0017785D02*
X0166800Y0017785D01*
X0166800Y0016187D02*
X0166800Y0016187D01*
X0166659Y0014588D02*
X0166941Y0014588D01*
X0168539Y0012990D02*
X0165061Y0012990D01*
X0158539Y0012990D02*
X0155061Y0012990D01*
X0156659Y0014588D02*
X0156941Y0014588D01*
X0156800Y0016187D02*
X0156800Y0016187D01*
X0156800Y0017785D02*
X0156800Y0017785D01*
X0156287Y0019384D02*
X0157313Y0019384D01*
X0158911Y0020982D02*
X0154689Y0020982D01*
X0154652Y0022581D02*
X0158948Y0022581D01*
X0157350Y0024179D02*
X0156250Y0024179D01*
X0156800Y0025778D02*
X0156800Y0025778D01*
X0156800Y0027376D02*
X0156800Y0027376D01*
X0156696Y0028975D02*
X0156904Y0028975D01*
X0158502Y0030573D02*
X0155098Y0030573D01*
X0152947Y0032172D02*
X0182646Y0032172D01*
X0184245Y0033770D02*
X0154526Y0033770D01*
X0155000Y0035369D02*
X0184850Y0035369D01*
X0184850Y0036967D02*
X0155000Y0036967D01*
X0155171Y0038566D02*
X0158429Y0038566D01*
X0157457Y0040164D02*
X0156143Y0040164D01*
X0156400Y0041763D02*
X0157200Y0041763D01*
X0157200Y0043361D02*
X0156400Y0043361D01*
X0156400Y0044960D02*
X0157200Y0044960D01*
X0157200Y0046558D02*
X0156400Y0046558D01*
X0156258Y0048157D02*
X0157342Y0048157D01*
X0158150Y0049755D02*
X0155450Y0049755D01*
X0155000Y0054551D02*
X0184850Y0054551D01*
X0184850Y0056149D02*
X0155000Y0056149D01*
X0155000Y0057748D02*
X0184850Y0057748D01*
X0184850Y0059346D02*
X0155000Y0059346D01*
X0155000Y0060945D02*
X0184380Y0060945D01*
X0182781Y0062543D02*
X0155000Y0062543D01*
X0156048Y0070536D02*
X0157303Y0070536D01*
X0157200Y0072134D02*
X0156200Y0072134D01*
X0156200Y0073733D02*
X0157200Y0073733D01*
X0157200Y0075332D02*
X0156200Y0075332D01*
X0156200Y0076930D02*
X0157200Y0076930D01*
X0157496Y0078529D02*
X0155897Y0078529D01*
X0154795Y0080127D02*
X0158522Y0080127D01*
X0156148Y0084923D02*
X0152137Y0084923D01*
X0152631Y0086521D02*
X0154549Y0086521D01*
X0152951Y0088120D02*
X0152631Y0088120D01*
X0150539Y0083324D02*
X0194800Y0083324D01*
X0194800Y0081726D02*
X0148940Y0081726D01*
X0148805Y0080127D02*
X0145078Y0080127D01*
X0146104Y0078529D02*
X0147703Y0078529D01*
X0147400Y0076930D02*
X0146400Y0076930D01*
X0146400Y0075332D02*
X0147400Y0075332D01*
X0147400Y0073733D02*
X0146400Y0073733D01*
X0146400Y0072134D02*
X0147400Y0072134D01*
X0147552Y0070536D02*
X0146297Y0070536D01*
X0151800Y0075332D02*
X0151800Y0075332D01*
X0151800Y0076930D02*
X0151800Y0076930D01*
X0151800Y0078529D02*
X0151800Y0078529D01*
X0151800Y0080127D02*
X0151800Y0080127D01*
X0151717Y0094514D02*
X0150435Y0094514D01*
X0151717Y0096112D02*
X0148836Y0096112D01*
X0153173Y0097711D02*
X0135427Y0097711D01*
X0136883Y0096112D02*
X0139764Y0096112D01*
X0138165Y0094514D02*
X0136883Y0094514D01*
X0133828Y0099309D02*
X0154772Y0099309D01*
X0156370Y0100908D02*
X0132230Y0100908D01*
X0129366Y0102506D02*
X0159234Y0102506D01*
X0158607Y0104105D02*
X0129993Y0104105D01*
X0129993Y0105703D02*
X0158607Y0105703D01*
X0158607Y0107302D02*
X0129993Y0107302D01*
X0129993Y0108900D02*
X0158607Y0108900D01*
X0159072Y0110499D02*
X0129528Y0110499D01*
X0127930Y0112097D02*
X0160670Y0112097D01*
X0162269Y0113696D02*
X0126331Y0113696D01*
X0126036Y0116893D02*
X0139135Y0116893D01*
X0139264Y0116764D02*
X0142532Y0115410D01*
X0146068Y0115410D01*
X0149336Y0116764D01*
X0151836Y0119264D01*
X0153190Y0122532D01*
X0153190Y0126068D01*
X0151836Y0129336D01*
X0149336Y0131836D01*
X0146068Y0133190D01*
X0142532Y0133190D01*
X0139264Y0131836D01*
X0136764Y0129336D01*
X0135410Y0126068D01*
X0135410Y0122532D01*
X0136764Y0119264D01*
X0139264Y0116764D01*
X0137537Y0118491D02*
X0127635Y0118491D01*
X0129233Y0120090D02*
X0136422Y0120090D01*
X0135760Y0121688D02*
X0129993Y0121688D01*
X0129993Y0123287D02*
X0135410Y0123287D01*
X0135410Y0124885D02*
X0129993Y0124885D01*
X0129993Y0126484D02*
X0135582Y0126484D01*
X0136245Y0128082D02*
X0129661Y0128082D01*
X0128063Y0129681D02*
X0137109Y0129681D01*
X0138707Y0131279D02*
X0126464Y0131279D01*
X0125903Y0134476D02*
X0162696Y0134476D01*
X0163487Y0132631D02*
X0158607Y0127751D01*
X0158607Y0120849D01*
X0163487Y0115969D01*
X0170388Y0115969D01*
X0175268Y0120849D01*
X0175268Y0127751D01*
X0170388Y0132631D01*
X0163487Y0132631D01*
X0162136Y0131279D02*
X0149893Y0131279D01*
X0151491Y0129681D02*
X0160537Y0129681D01*
X0158939Y0128082D02*
X0152355Y0128082D01*
X0153018Y0126484D02*
X0158607Y0126484D01*
X0158607Y0124885D02*
X0153190Y0124885D01*
X0153190Y0123287D02*
X0158607Y0123287D01*
X0158607Y0121688D02*
X0152840Y0121688D01*
X0152178Y0120090D02*
X0159367Y0120090D01*
X0160965Y0118491D02*
X0151063Y0118491D01*
X0149465Y0116893D02*
X0162564Y0116893D01*
X0171312Y0116893D02*
X0194800Y0116893D01*
X0194800Y0118491D02*
X0172911Y0118491D01*
X0174509Y0120090D02*
X0194800Y0120090D01*
X0194800Y0121688D02*
X0175268Y0121688D01*
X0175268Y0123287D02*
X0194800Y0123287D01*
X0194800Y0124885D02*
X0175268Y0124885D01*
X0175268Y0126484D02*
X0194800Y0126484D01*
X0194800Y0128082D02*
X0174937Y0128082D01*
X0173338Y0129681D02*
X0194800Y0129681D01*
X0194800Y0131279D02*
X0171740Y0131279D01*
X0171179Y0134476D02*
X0194800Y0134476D01*
X0194800Y0132878D02*
X0146821Y0132878D01*
X0141779Y0132878D02*
X0111650Y0132878D01*
X0099100Y0132878D02*
X0056821Y0132878D01*
X0056068Y0133190D02*
X0052532Y0133190D01*
X0049264Y0131836D01*
X0046764Y0129336D01*
X0045410Y0126068D01*
X0045410Y0122532D01*
X0046764Y0119264D01*
X0049264Y0116764D01*
X0052532Y0115410D01*
X0056068Y0115410D01*
X0059336Y0116764D01*
X0061836Y0119264D01*
X0063190Y0122532D01*
X0063190Y0126068D01*
X0061836Y0129336D01*
X0059336Y0131836D01*
X0056068Y0133190D01*
X0059893Y0131279D02*
X0072136Y0131279D01*
X0073487Y0132631D02*
X0068607Y0127751D01*
X0068607Y0120849D01*
X0073487Y0115969D01*
X0080388Y0115969D01*
X0085268Y0120849D01*
X0085268Y0127751D01*
X0080388Y0132631D01*
X0073487Y0132631D01*
X0072696Y0134476D02*
X0035903Y0134476D01*
X0035113Y0132631D02*
X0028212Y0132631D01*
X0023331Y0127751D01*
X0023331Y0120849D01*
X0028212Y0115969D01*
X0035113Y0115969D01*
X0039993Y0120849D01*
X0039993Y0127751D01*
X0035113Y0132631D01*
X0036464Y0131279D02*
X0048707Y0131279D01*
X0047109Y0129681D02*
X0038063Y0129681D01*
X0039661Y0128082D02*
X0046245Y0128082D01*
X0045582Y0126484D02*
X0039993Y0126484D01*
X0039993Y0124885D02*
X0045410Y0124885D01*
X0045410Y0123287D02*
X0039993Y0123287D01*
X0039993Y0121688D02*
X0045760Y0121688D01*
X0046422Y0120090D02*
X0039233Y0120090D01*
X0037635Y0118491D02*
X0047537Y0118491D01*
X0049135Y0116893D02*
X0036036Y0116893D01*
X0036331Y0113696D02*
X0072269Y0113696D01*
X0070670Y0112097D02*
X0037930Y0112097D01*
X0039528Y0110499D02*
X0069072Y0110499D01*
X0068607Y0108900D02*
X0039993Y0108900D01*
X0039993Y0107302D02*
X0068607Y0107302D01*
X0068607Y0105703D02*
X0039993Y0105703D01*
X0039993Y0104105D02*
X0068607Y0104105D01*
X0069234Y0102506D02*
X0039366Y0102506D01*
X0042230Y0100908D02*
X0066370Y0100908D01*
X0064772Y0099309D02*
X0043828Y0099309D01*
X0045427Y0097711D02*
X0063173Y0097711D01*
X0061717Y0096112D02*
X0058836Y0096112D01*
X0060435Y0094514D02*
X0061717Y0094514D01*
X0062631Y0088120D02*
X0062951Y0088120D01*
X0062631Y0086521D02*
X0064549Y0086521D01*
X0066148Y0084923D02*
X0062137Y0084923D01*
X0060539Y0083324D02*
X0113250Y0083324D01*
X0111652Y0084923D02*
X0073948Y0084923D01*
X0075547Y0086521D02*
X0110053Y0086521D01*
X0108455Y0088120D02*
X0077145Y0088120D01*
X0078379Y0089718D02*
X0106856Y0089718D01*
X0105258Y0091317D02*
X0078379Y0091317D01*
X0078379Y0092915D02*
X0103659Y0092915D01*
X0102061Y0094514D02*
X0078379Y0094514D01*
X0078379Y0096112D02*
X0100462Y0096112D01*
X0099288Y0097711D02*
X0076923Y0097711D01*
X0081445Y0099309D02*
X0099100Y0099309D01*
X0099100Y0100908D02*
X0083043Y0100908D01*
X0084642Y0102506D02*
X0099100Y0102506D01*
X0099100Y0104105D02*
X0085268Y0104105D01*
X0085268Y0105703D02*
X0099100Y0105703D01*
X0099100Y0107302D02*
X0085268Y0107302D01*
X0085268Y0108900D02*
X0099100Y0108900D01*
X0099100Y0110499D02*
X0084804Y0110499D01*
X0083205Y0112097D02*
X0099100Y0112097D01*
X0099100Y0113696D02*
X0081607Y0113696D01*
X0081312Y0116893D02*
X0099100Y0116893D01*
X0099100Y0118491D02*
X0082911Y0118491D01*
X0084509Y0120090D02*
X0099100Y0120090D01*
X0099100Y0121688D02*
X0085268Y0121688D01*
X0085268Y0123287D02*
X0099100Y0123287D01*
X0099100Y0124885D02*
X0085268Y0124885D01*
X0085268Y0126484D02*
X0099100Y0126484D01*
X0099100Y0128082D02*
X0084937Y0128082D01*
X0083338Y0129681D02*
X0099100Y0129681D01*
X0099100Y0131279D02*
X0081740Y0131279D01*
X0081179Y0134476D02*
X0099100Y0134476D01*
X0099100Y0136075D02*
X0082778Y0136075D01*
X0084376Y0137673D02*
X0099100Y0137673D01*
X0099100Y0139272D02*
X0085268Y0139272D01*
X0085268Y0140870D02*
X0099100Y0140870D01*
X0099100Y0142469D02*
X0085268Y0142469D01*
X0085268Y0144068D02*
X0098185Y0144068D01*
X0096587Y0145666D02*
X0085070Y0145666D01*
X0083471Y0147265D02*
X0096519Y0147265D01*
X0096519Y0148863D02*
X0081873Y0148863D01*
X0078093Y0152060D02*
X0104450Y0152060D01*
X0104450Y0150462D02*
X0102486Y0150462D01*
X0104081Y0148863D02*
X0104450Y0148863D01*
X0104450Y0153659D02*
X0078379Y0153659D01*
X0078379Y0155257D02*
X0104450Y0155257D01*
X0104450Y0156856D02*
X0078379Y0156856D01*
X0078379Y0158454D02*
X0104450Y0158454D01*
X0104450Y0160053D02*
X0077573Y0160053D01*
X0075974Y0161651D02*
X0104450Y0161651D01*
X0104450Y0163250D02*
X0074376Y0163250D01*
X0077201Y0169644D02*
X0043899Y0169644D01*
X0045150Y0171242D02*
X0075950Y0171242D01*
X0075950Y0172841D02*
X0045150Y0172841D01*
X0045150Y0174439D02*
X0075950Y0174439D01*
X0077282Y0176038D02*
X0043818Y0176038D01*
X0037282Y0176038D02*
X0029350Y0176038D01*
X0030949Y0174439D02*
X0035950Y0174439D01*
X0035500Y0172841D02*
X0031600Y0172841D01*
X0031600Y0171242D02*
X0033901Y0171242D01*
X0032303Y0169644D02*
X0031432Y0169644D01*
X0030704Y0168045D02*
X0029833Y0168045D01*
X0027000Y0169644D02*
X0026600Y0169644D01*
X0026600Y0171242D02*
X0027000Y0171242D01*
X0027000Y0172841D02*
X0026600Y0172841D01*
X0026600Y0174439D02*
X0027000Y0174439D01*
X0027000Y0176038D02*
X0026600Y0176038D01*
X0022651Y0174439D02*
X0020949Y0174439D01*
X0021600Y0172841D02*
X0022000Y0172841D01*
X0022000Y0171242D02*
X0021600Y0171242D01*
X0021432Y0169644D02*
X0022168Y0169644D01*
X0027507Y0164848D02*
X0003800Y0164848D01*
X0003800Y0163250D02*
X0004402Y0163250D01*
X0009198Y0163250D02*
X0025908Y0163250D01*
X0024310Y0161651D02*
X0010581Y0161651D01*
X0010581Y0160053D02*
X0022711Y0160053D01*
X0021113Y0158454D02*
X0010301Y0158454D01*
X0010000Y0156856D02*
X0019514Y0156856D01*
X0017916Y0155257D02*
X0010000Y0155257D01*
X0010000Y0153659D02*
X0016317Y0153659D01*
X0014882Y0152060D02*
X0010000Y0152060D01*
X0010000Y0150462D02*
X0014450Y0150462D01*
X0014450Y0148863D02*
X0010000Y0148863D01*
X0010000Y0147265D02*
X0014450Y0147265D01*
X0014450Y0145666D02*
X0010000Y0145666D01*
X0010000Y0144068D02*
X0014450Y0144068D01*
X0014450Y0142469D02*
X0010000Y0142469D01*
X0010000Y0140870D02*
X0014450Y0140870D01*
X0014450Y0139272D02*
X0010000Y0139272D01*
X0010000Y0137673D02*
X0014450Y0137673D01*
X0014450Y0136075D02*
X0010000Y0136075D01*
X0010000Y0134476D02*
X0014450Y0134476D01*
X0014450Y0132878D02*
X0010000Y0132878D01*
X0010000Y0131279D02*
X0014450Y0131279D01*
X0014450Y0129681D02*
X0010000Y0129681D01*
X0010000Y0128082D02*
X0014450Y0128082D01*
X0014450Y0126484D02*
X0010000Y0126484D01*
X0010000Y0124885D02*
X0014450Y0124885D01*
X0014450Y0123287D02*
X0010000Y0123287D01*
X0010000Y0121688D02*
X0014450Y0121688D01*
X0014450Y0120090D02*
X0010000Y0120090D01*
X0010000Y0118491D02*
X0014450Y0118491D01*
X0014450Y0116893D02*
X0010000Y0116893D01*
X0010000Y0115294D02*
X0014450Y0115294D01*
X0014450Y0113696D02*
X0010000Y0113696D01*
X0010000Y0112097D02*
X0014450Y0112097D01*
X0014450Y0110499D02*
X0010000Y0110499D01*
X0010000Y0108900D02*
X0014450Y0108900D01*
X0014450Y0107302D02*
X0010000Y0107302D01*
X0010000Y0105703D02*
X0014450Y0105703D01*
X0014450Y0104105D02*
X0010000Y0104105D01*
X0010000Y0102506D02*
X0014450Y0102506D01*
X0014450Y0100908D02*
X0010000Y0100908D01*
X0010000Y0099309D02*
X0014450Y0099309D01*
X0014450Y0097711D02*
X0010000Y0097711D01*
X0011013Y0096112D02*
X0014956Y0096112D01*
X0016495Y0094514D02*
X0012612Y0094514D01*
X0014210Y0092915D02*
X0018094Y0092915D01*
X0019692Y0091317D02*
X0015809Y0091317D01*
X0017407Y0089718D02*
X0021339Y0089718D01*
X0019006Y0088120D02*
X0031455Y0088120D01*
X0033053Y0086521D02*
X0020604Y0086521D01*
X0016349Y0081726D02*
X0003800Y0081726D01*
X0003800Y0083324D02*
X0014750Y0083324D01*
X0015885Y0081500D02*
X0016575Y0081500D01*
X0004987Y0093087D01*
X0004987Y0093087D01*
X0004087Y0093987D01*
X0003800Y0094681D01*
X0003800Y0003800D01*
X0089910Y0003800D01*
X0087535Y0005694D01*
X0087535Y0005694D01*
X0087535Y0005694D01*
X0084840Y0009647D01*
X0084840Y0009647D01*
X0083429Y0014219D01*
X0083429Y0019003D01*
X0084840Y0023575D01*
X0087535Y0027528D01*
X0087535Y0027528D01*
X0091275Y0030511D01*
X0091275Y0030511D01*
X0095729Y0032259D01*
X0095729Y0032259D01*
X0099740Y0032559D01*
X0098874Y0032918D01*
X0097918Y0033874D01*
X0097400Y0035124D01*
X0097400Y0036164D01*
X0091400Y0042164D01*
X0091400Y0040785D01*
X0090700Y0039094D01*
X0089406Y0037800D01*
X0087715Y0037100D01*
X0085885Y0037100D01*
X0084194Y0037800D01*
X0082900Y0039094D01*
X0082200Y0040785D01*
X0082200Y0047815D01*
X0082608Y0048800D01*
X0080992Y0048800D01*
X0081400Y0047815D01*
X0081400Y0040785D01*
X0080700Y0039094D01*
X0079406Y0037800D01*
X0078804Y0037551D01*
X0081400Y0034955D01*
X0081400Y0031145D01*
X0078705Y0028450D01*
X0074895Y0028450D01*
X0073495Y0029850D01*
X0062413Y0029850D01*
X0061237Y0030337D01*
X0054987Y0036587D01*
X0054087Y0037487D01*
X0053790Y0038205D01*
X0052900Y0039094D01*
X0052200Y0040785D01*
X0052200Y0047815D01*
X0052900Y0049506D01*
X0053600Y0050205D01*
X0053600Y0063600D01*
X0016875Y0063600D01*
X0013750Y0060475D01*
X0013750Y0050355D01*
X0014194Y0050800D01*
X0015885Y0051500D01*
X0017715Y0051500D01*
X0019406Y0050800D01*
X0020700Y0049506D01*
X0021400Y0047815D01*
X0021400Y0040785D01*
X0020700Y0039094D01*
X0019406Y0037800D01*
X0017715Y0037100D01*
X0015885Y0037100D01*
X0014194Y0037800D01*
X0013750Y0038245D01*
X0013750Y0034375D01*
X0016325Y0031800D01*
X0018871Y0031800D01*
X0021800Y0028871D01*
X0021800Y0024729D01*
X0024729Y0021800D01*
X0028871Y0021800D01*
X0031800Y0024729D01*
X0034729Y0021800D01*
X0038871Y0021800D01*
X0041800Y0024729D01*
X0044729Y0021800D01*
X0048871Y0021800D01*
X0051800Y0024729D01*
X0054729Y0021800D01*
X0058871Y0021800D01*
X0061800Y0024729D01*
X0061800Y0028871D01*
X0058871Y0031800D01*
X0054729Y0031800D01*
X0051800Y0028871D01*
X0051800Y0024729D01*
X0051800Y0028871D01*
X0048871Y0031800D01*
X0044729Y0031800D01*
X0041800Y0028871D01*
X0041800Y0024729D01*
X0041800Y0028871D01*
X0038871Y0031800D01*
X0034729Y0031800D01*
X0031800Y0028871D01*
X0031800Y0024729D01*
X0031800Y0028871D01*
X0028871Y0031800D01*
X0024729Y0031800D01*
X0021800Y0028871D01*
X0021800Y0024729D01*
X0018871Y0021800D01*
X0014729Y0021800D01*
X0011800Y0024729D01*
X0011800Y0027275D01*
X0008737Y0030337D01*
X0007837Y0031237D01*
X0007350Y0032413D01*
X0007350Y0062437D01*
X0007837Y0063613D01*
X0012837Y0068613D01*
X0013110Y0068885D01*
X0012900Y0069094D01*
X0012200Y0070785D01*
X0012200Y0077815D01*
X0012900Y0079506D01*
X0014194Y0080800D01*
X0015885Y0081500D01*
X0013522Y0080127D02*
X0003800Y0080127D01*
X0003800Y0078529D02*
X0012496Y0078529D01*
X0012200Y0076930D02*
X0003800Y0076930D01*
X0003800Y0075332D02*
X0012200Y0075332D01*
X0012200Y0073733D02*
X0003800Y0073733D01*
X0003800Y0072134D02*
X0012200Y0072134D01*
X0012303Y0070536D02*
X0003800Y0070536D01*
X0003800Y0068937D02*
X0013057Y0068937D01*
X0011563Y0067339D02*
X0003800Y0067339D01*
X0003800Y0065740D02*
X0009965Y0065740D01*
X0008366Y0064142D02*
X0003800Y0064142D01*
X0003800Y0062543D02*
X0007394Y0062543D01*
X0007350Y0060945D02*
X0003800Y0060945D01*
X0003800Y0059346D02*
X0007350Y0059346D01*
X0007350Y0057748D02*
X0003800Y0057748D01*
X0003800Y0056149D02*
X0007350Y0056149D01*
X0007350Y0054551D02*
X0003800Y0054551D01*
X0003800Y0052952D02*
X0007350Y0052952D01*
X0007350Y0051354D02*
X0003800Y0051354D01*
X0003800Y0049755D02*
X0007350Y0049755D01*
X0007350Y0048157D02*
X0003800Y0048157D01*
X0003800Y0046558D02*
X0007350Y0046558D01*
X0007350Y0044960D02*
X0003800Y0044960D01*
X0003800Y0043361D02*
X0007350Y0043361D01*
X0007350Y0041763D02*
X0003800Y0041763D01*
X0003800Y0040164D02*
X0007350Y0040164D01*
X0007350Y0038566D02*
X0003800Y0038566D01*
X0003800Y0036967D02*
X0007350Y0036967D01*
X0007350Y0035369D02*
X0003800Y0035369D01*
X0003800Y0033770D02*
X0007350Y0033770D01*
X0007450Y0032172D02*
X0003800Y0032172D01*
X0003800Y0030573D02*
X0008501Y0030573D01*
X0010100Y0028975D02*
X0003800Y0028975D01*
X0003800Y0027376D02*
X0011698Y0027376D01*
X0011800Y0025778D02*
X0003800Y0025778D01*
X0003800Y0024179D02*
X0012350Y0024179D01*
X0013948Y0022581D02*
X0003800Y0022581D01*
X0003800Y0020982D02*
X0014194Y0020982D01*
X0014812Y0021600D02*
X0012000Y0018788D01*
X0012000Y0017000D01*
X0016600Y0017000D01*
X0016600Y0021600D01*
X0014812Y0021600D01*
X0016600Y0020982D02*
X0017000Y0020982D01*
X0017000Y0021600D02*
X0018788Y0021600D01*
X0021600Y0018788D01*
X0021600Y0017000D01*
X0017000Y0017000D01*
X0017000Y0016600D01*
X0021600Y0016600D01*
X0021600Y0014812D01*
X0018788Y0012000D01*
X0017000Y0012000D01*
X0017000Y0016600D01*
X0016600Y0016600D01*
X0016600Y0012000D01*
X0014812Y0012000D01*
X0012000Y0014812D01*
X0012000Y0016600D01*
X0016600Y0016600D01*
X0016600Y0017000D01*
X0017000Y0017000D01*
X0017000Y0021600D01*
X0017000Y0019384D02*
X0016600Y0019384D01*
X0016600Y0017785D02*
X0017000Y0017785D01*
X0017000Y0016187D02*
X0016600Y0016187D01*
X0016600Y0014588D02*
X0017000Y0014588D01*
X0017000Y0012990D02*
X0016600Y0012990D01*
X0019778Y0012990D02*
X0023539Y0012990D01*
X0024729Y0011800D02*
X0021800Y0014729D01*
X0021800Y0018871D01*
X0024729Y0021800D01*
X0028871Y0021800D01*
X0031800Y0018871D01*
X0031800Y0014729D01*
X0034729Y0011800D01*
X0038871Y0011800D01*
X0041800Y0014729D01*
X0044729Y0011800D01*
X0048871Y0011800D01*
X0051800Y0014729D01*
X0054729Y0011800D01*
X0058871Y0011800D01*
X0061800Y0014729D01*
X0061800Y0018871D01*
X0058871Y0021800D01*
X0054729Y0021800D01*
X0051800Y0018871D01*
X0051800Y0014729D01*
X0051800Y0018871D01*
X0048871Y0021800D01*
X0044729Y0021800D01*
X0041800Y0018871D01*
X0041800Y0014729D01*
X0041800Y0018871D01*
X0038871Y0021800D01*
X0034729Y0021800D01*
X0031800Y0018871D01*
X0031800Y0014729D01*
X0028871Y0011800D01*
X0024729Y0011800D01*
X0021941Y0014588D02*
X0021376Y0014588D01*
X0021600Y0016187D02*
X0021800Y0016187D01*
X0021800Y0017785D02*
X0021600Y0017785D01*
X0021005Y0019384D02*
X0022313Y0019384D01*
X0023911Y0020982D02*
X0019406Y0020982D01*
X0019652Y0022581D02*
X0023948Y0022581D01*
X0022350Y0024179D02*
X0021250Y0024179D01*
X0021800Y0025778D02*
X0021800Y0025778D01*
X0021800Y0027376D02*
X0021800Y0027376D01*
X0021696Y0028975D02*
X0021904Y0028975D01*
X0023502Y0030573D02*
X0020098Y0030573D01*
X0015954Y0032172D02*
X0059403Y0032172D01*
X0060098Y0030573D02*
X0061001Y0030573D01*
X0061696Y0028975D02*
X0074370Y0028975D01*
X0079230Y0028975D02*
X0089349Y0028975D01*
X0087431Y0027376D02*
X0061800Y0027376D01*
X0061800Y0025778D02*
X0086341Y0025778D01*
X0085252Y0024179D02*
X0061250Y0024179D01*
X0059652Y0022581D02*
X0084533Y0022581D01*
X0084040Y0020982D02*
X0059689Y0020982D01*
X0061287Y0019384D02*
X0083547Y0019384D01*
X0083429Y0017785D02*
X0061800Y0017785D01*
X0061800Y0016187D02*
X0073714Y0016187D01*
X0074977Y0017450D02*
X0072400Y0014873D01*
X0072400Y0013050D01*
X0076800Y0013050D01*
X0076800Y0013050D01*
X0076800Y0017450D01*
X0078623Y0017450D01*
X0081200Y0014873D01*
X0081200Y0013050D01*
X0076800Y0013050D01*
X0076800Y0013050D01*
X0076800Y0013050D01*
X0076800Y0017450D01*
X0074977Y0017450D01*
X0076800Y0016187D02*
X0076800Y0016187D01*
X0076800Y0014588D02*
X0076800Y0014588D01*
X0076800Y0013050D02*
X0072400Y0013050D01*
X0072400Y0011227D01*
X0074977Y0008650D01*
X0076800Y0008650D01*
X0078623Y0008650D01*
X0081200Y0011227D01*
X0081200Y0013050D01*
X0076800Y0013050D01*
X0076800Y0008650D01*
X0076800Y0013050D01*
X0076800Y0013050D01*
X0076800Y0012990D02*
X0076800Y0012990D01*
X0076800Y0011391D02*
X0076800Y0011391D01*
X0076800Y0009793D02*
X0076800Y0009793D01*
X0073835Y0009793D02*
X0003800Y0009793D01*
X0003800Y0011391D02*
X0072400Y0011391D01*
X0072400Y0012990D02*
X0060061Y0012990D01*
X0061659Y0014588D02*
X0072400Y0014588D01*
X0079886Y0016187D02*
X0083429Y0016187D01*
X0083429Y0014588D02*
X0081200Y0014588D01*
X0081200Y0012990D02*
X0083809Y0012990D01*
X0084302Y0011391D02*
X0081200Y0011391D01*
X0079765Y0009793D02*
X0084795Y0009793D01*
X0085830Y0008194D02*
X0003800Y0008194D01*
X0003800Y0006596D02*
X0086920Y0006596D01*
X0088409Y0004997D02*
X0003800Y0004997D01*
X0003800Y0012990D02*
X0013822Y0012990D01*
X0012224Y0014588D02*
X0003800Y0014588D01*
X0003800Y0016187D02*
X0012000Y0016187D01*
X0012000Y0017785D02*
X0003800Y0017785D01*
X0003800Y0019384D02*
X0012595Y0019384D01*
X0014355Y0033770D02*
X0057804Y0033770D01*
X0056206Y0035369D02*
X0013750Y0035369D01*
X0013750Y0036967D02*
X0054607Y0036967D01*
X0053429Y0038566D02*
X0050171Y0038566D01*
X0050700Y0039094D02*
X0051400Y0040785D01*
X0051400Y0047815D01*
X0050700Y0049506D01*
X0049406Y0050800D01*
X0047715Y0051500D01*
X0045885Y0051500D01*
X0044194Y0050800D01*
X0042900Y0049506D01*
X0042200Y0047815D01*
X0042200Y0040785D01*
X0042900Y0039094D01*
X0044194Y0037800D01*
X0045885Y0037100D01*
X0047715Y0037100D01*
X0049406Y0037800D01*
X0050700Y0039094D01*
X0051143Y0040164D02*
X0052457Y0040164D01*
X0052200Y0041763D02*
X0051400Y0041763D01*
X0051400Y0043361D02*
X0052200Y0043361D01*
X0052200Y0044960D02*
X0051400Y0044960D01*
X0051400Y0046558D02*
X0052200Y0046558D01*
X0052342Y0048157D02*
X0051258Y0048157D01*
X0050450Y0049755D02*
X0053150Y0049755D01*
X0053600Y0051354D02*
X0048068Y0051354D01*
X0045532Y0051354D02*
X0038068Y0051354D01*
X0037715Y0051500D02*
X0039406Y0050800D01*
X0040700Y0049506D01*
X0041400Y0047815D01*
X0041400Y0040785D01*
X0040700Y0039094D01*
X0039406Y0037800D01*
X0037715Y0037100D01*
X0035885Y0037100D01*
X0034194Y0037800D01*
X0032900Y0039094D01*
X0032200Y0040785D01*
X0032200Y0047815D01*
X0032900Y0049506D01*
X0034194Y0050800D01*
X0035885Y0051500D01*
X0037715Y0051500D01*
X0035532Y0051354D02*
X0028068Y0051354D01*
X0027715Y0051500D02*
X0029406Y0050800D01*
X0030700Y0049506D01*
X0031400Y0047815D01*
X0031400Y0040785D01*
X0030700Y0039094D01*
X0029406Y0037800D01*
X0027715Y0037100D01*
X0025885Y0037100D01*
X0024194Y0037800D01*
X0022900Y0039094D01*
X0022200Y0040785D01*
X0022200Y0047815D01*
X0022900Y0049506D01*
X0024194Y0050800D01*
X0025885Y0051500D01*
X0027715Y0051500D01*
X0025532Y0051354D02*
X0018068Y0051354D01*
X0020450Y0049755D02*
X0023150Y0049755D01*
X0022342Y0048157D02*
X0021258Y0048157D01*
X0021400Y0046558D02*
X0022200Y0046558D01*
X0022200Y0044960D02*
X0021400Y0044960D01*
X0021400Y0043361D02*
X0022200Y0043361D01*
X0022200Y0041763D02*
X0021400Y0041763D01*
X0021143Y0040164D02*
X0022457Y0040164D01*
X0023429Y0038566D02*
X0020171Y0038566D01*
X0030171Y0038566D02*
X0033429Y0038566D01*
X0032457Y0040164D02*
X0031143Y0040164D01*
X0031400Y0041763D02*
X0032200Y0041763D01*
X0032200Y0043361D02*
X0031400Y0043361D01*
X0031400Y0044960D02*
X0032200Y0044960D01*
X0032200Y0046558D02*
X0031400Y0046558D01*
X0031258Y0048157D02*
X0032342Y0048157D01*
X0033150Y0049755D02*
X0030450Y0049755D01*
X0040450Y0049755D02*
X0043150Y0049755D01*
X0042342Y0048157D02*
X0041258Y0048157D01*
X0041400Y0046558D02*
X0042200Y0046558D01*
X0042200Y0044960D02*
X0041400Y0044960D01*
X0041400Y0043361D02*
X0042200Y0043361D01*
X0042200Y0041763D02*
X0041400Y0041763D01*
X0041143Y0040164D02*
X0042457Y0040164D01*
X0043429Y0038566D02*
X0040171Y0038566D01*
X0040098Y0030573D02*
X0043502Y0030573D01*
X0041904Y0028975D02*
X0041696Y0028975D01*
X0041800Y0027376D02*
X0041800Y0027376D01*
X0041800Y0025778D02*
X0041800Y0025778D01*
X0041250Y0024179D02*
X0042350Y0024179D01*
X0043948Y0022581D02*
X0039652Y0022581D01*
X0039689Y0020982D02*
X0043911Y0020982D01*
X0042313Y0019384D02*
X0041287Y0019384D01*
X0041800Y0017785D02*
X0041800Y0017785D01*
X0041800Y0016187D02*
X0041800Y0016187D01*
X0041659Y0014588D02*
X0041941Y0014588D01*
X0043539Y0012990D02*
X0040061Y0012990D01*
X0033539Y0012990D02*
X0030061Y0012990D01*
X0031659Y0014588D02*
X0031941Y0014588D01*
X0031800Y0016187D02*
X0031800Y0016187D01*
X0031800Y0017785D02*
X0031800Y0017785D01*
X0031287Y0019384D02*
X0032313Y0019384D01*
X0033911Y0020982D02*
X0029689Y0020982D01*
X0029652Y0022581D02*
X0033948Y0022581D01*
X0032350Y0024179D02*
X0031250Y0024179D01*
X0031800Y0025778D02*
X0031800Y0025778D01*
X0031800Y0027376D02*
X0031800Y0027376D01*
X0031696Y0028975D02*
X0031904Y0028975D01*
X0033502Y0030573D02*
X0030098Y0030573D01*
X0050098Y0030573D02*
X0053502Y0030573D01*
X0051904Y0028975D02*
X0051696Y0028975D01*
X0051800Y0027376D02*
X0051800Y0027376D01*
X0051800Y0025778D02*
X0051800Y0025778D01*
X0051250Y0024179D02*
X0052350Y0024179D01*
X0053948Y0022581D02*
X0049652Y0022581D01*
X0049689Y0020982D02*
X0053911Y0020982D01*
X0052313Y0019384D02*
X0051287Y0019384D01*
X0051800Y0017785D02*
X0051800Y0017785D01*
X0051800Y0016187D02*
X0051800Y0016187D01*
X0051659Y0014588D02*
X0051941Y0014588D01*
X0053539Y0012990D02*
X0050061Y0012990D01*
X0079388Y0036967D02*
X0096597Y0036967D01*
X0097400Y0035369D02*
X0080987Y0035369D01*
X0081400Y0033770D02*
X0098021Y0033770D01*
X0095507Y0032172D02*
X0081400Y0032172D01*
X0080829Y0030573D02*
X0091434Y0030573D01*
X0090171Y0038566D02*
X0094999Y0038566D01*
X0093400Y0040164D02*
X0091143Y0040164D01*
X0091400Y0041763D02*
X0091802Y0041763D01*
X0083429Y0038566D02*
X0080171Y0038566D01*
X0081143Y0040164D02*
X0082457Y0040164D01*
X0082200Y0041763D02*
X0081400Y0041763D01*
X0081400Y0043361D02*
X0082200Y0043361D01*
X0082200Y0044960D02*
X0081400Y0044960D01*
X0081400Y0046558D02*
X0082200Y0046558D01*
X0082342Y0048157D02*
X0081258Y0048157D01*
X0081297Y0070536D02*
X0082303Y0070536D01*
X0082200Y0072134D02*
X0081400Y0072134D01*
X0081400Y0073733D02*
X0082200Y0073733D01*
X0082200Y0075332D02*
X0081400Y0075332D01*
X0081400Y0076930D02*
X0082200Y0076930D01*
X0082496Y0078529D02*
X0081104Y0078529D01*
X0080078Y0080127D02*
X0083522Y0080127D01*
X0090078Y0080127D02*
X0108522Y0080127D01*
X0107496Y0078529D02*
X0091104Y0078529D01*
X0091400Y0076930D02*
X0107200Y0076930D01*
X0107200Y0075332D02*
X0091400Y0075332D01*
X0091400Y0073733D02*
X0107200Y0073733D01*
X0107200Y0072134D02*
X0091400Y0072134D01*
X0091297Y0070536D02*
X0107303Y0070536D01*
X0116297Y0070536D02*
X0117303Y0070536D01*
X0117200Y0072134D02*
X0116400Y0072134D01*
X0116400Y0073733D02*
X0117200Y0073733D01*
X0117200Y0075332D02*
X0116400Y0075332D01*
X0116400Y0076930D02*
X0117200Y0076930D01*
X0117496Y0078529D02*
X0116104Y0078529D01*
X0116447Y0080127D02*
X0115078Y0080127D01*
X0114849Y0081726D02*
X0058940Y0081726D01*
X0059795Y0080127D02*
X0063522Y0080127D01*
X0062496Y0078529D02*
X0060897Y0078529D01*
X0061200Y0076930D02*
X0062200Y0076930D01*
X0062200Y0075332D02*
X0061200Y0075332D01*
X0061200Y0074300D02*
X0056800Y0074300D01*
X0056800Y0074300D01*
X0061200Y0074300D01*
X0061200Y0073733D02*
X0062200Y0073733D01*
X0062200Y0072134D02*
X0061200Y0072134D01*
X0061048Y0070536D02*
X0062303Y0070536D01*
X0056800Y0074300D02*
X0052400Y0074300D01*
X0056800Y0074300D01*
X0056800Y0074300D01*
X0052400Y0074300D02*
X0052400Y0071354D01*
X0052508Y0070670D01*
X0052722Y0070011D01*
X0052728Y0070000D01*
X0051075Y0070000D01*
X0051400Y0070785D01*
X0051400Y0077815D01*
X0050700Y0079506D01*
X0049406Y0080800D01*
X0049269Y0080856D01*
X0048613Y0081513D01*
X0048613Y0081513D01*
X0046513Y0083613D01*
X0045613Y0084513D01*
X0044437Y0085000D01*
X0042529Y0085000D01*
X0045969Y0088440D01*
X0045969Y0085416D01*
X0050849Y0080536D01*
X0054319Y0080536D01*
X0053934Y0080256D01*
X0053444Y0079766D01*
X0053037Y0079206D01*
X0052722Y0078589D01*
X0052508Y0077930D01*
X0052400Y0077246D01*
X0052400Y0074300D01*
X0052400Y0073733D02*
X0051400Y0073733D01*
X0051400Y0072134D02*
X0052400Y0072134D01*
X0052552Y0070536D02*
X0051297Y0070536D01*
X0051400Y0075332D02*
X0052400Y0075332D01*
X0052400Y0076930D02*
X0051400Y0076930D01*
X0051104Y0078529D02*
X0052703Y0078529D01*
X0053805Y0080127D02*
X0050078Y0080127D01*
X0049660Y0081726D02*
X0048400Y0081726D01*
X0048061Y0083324D02*
X0046801Y0083324D01*
X0046513Y0083613D02*
X0046513Y0083613D01*
X0046463Y0084923D02*
X0044623Y0084923D01*
X0044051Y0086521D02*
X0045969Y0086521D01*
X0045969Y0088120D02*
X0045649Y0088120D01*
X0046883Y0094514D02*
X0048165Y0094514D01*
X0046883Y0096112D02*
X0049764Y0096112D01*
X0031677Y0097711D02*
X0023480Y0097711D01*
X0021882Y0099309D02*
X0027155Y0099309D01*
X0025557Y0100908D02*
X0021650Y0100908D01*
X0021650Y0102506D02*
X0023958Y0102506D01*
X0023331Y0104105D02*
X0021650Y0104105D01*
X0021650Y0105703D02*
X0023331Y0105703D01*
X0023331Y0107302D02*
X0021650Y0107302D01*
X0021650Y0108900D02*
X0023331Y0108900D01*
X0023796Y0110499D02*
X0021650Y0110499D01*
X0021650Y0112097D02*
X0025395Y0112097D01*
X0026993Y0113696D02*
X0021650Y0113696D01*
X0021650Y0115294D02*
X0099100Y0115294D01*
X0111650Y0112097D02*
X0115395Y0112097D01*
X0113796Y0110499D02*
X0111650Y0110499D01*
X0111650Y0108900D02*
X0113331Y0108900D01*
X0113331Y0107302D02*
X0111650Y0107302D01*
X0111650Y0105703D02*
X0113331Y0105703D01*
X0113331Y0104105D02*
X0111650Y0104105D01*
X0111650Y0102506D02*
X0113958Y0102506D01*
X0112783Y0100908D02*
X0115557Y0100908D01*
X0114382Y0099309D02*
X0117155Y0099309D01*
X0115980Y0097711D02*
X0121677Y0097711D01*
X0127502Y0136075D02*
X0161098Y0136075D01*
X0159499Y0137673D02*
X0129101Y0137673D01*
X0129993Y0139272D02*
X0158607Y0139272D01*
X0158607Y0140870D02*
X0129993Y0140870D01*
X0129993Y0142469D02*
X0158607Y0142469D01*
X0158607Y0144068D02*
X0129993Y0144068D01*
X0129794Y0145666D02*
X0158806Y0145666D01*
X0160404Y0147265D02*
X0128196Y0147265D01*
X0133400Y0148863D02*
X0155200Y0148863D01*
X0166495Y0150462D02*
X0194800Y0150462D01*
X0194800Y0152060D02*
X0168093Y0152060D01*
X0168379Y0153659D02*
X0194800Y0153659D01*
X0194800Y0155257D02*
X0168379Y0155257D01*
X0168379Y0156856D02*
X0194800Y0156856D01*
X0194800Y0158454D02*
X0168379Y0158454D01*
X0167573Y0160053D02*
X0194800Y0160053D01*
X0194800Y0161651D02*
X0165974Y0161651D01*
X0174833Y0168045D02*
X0178767Y0168045D01*
X0177168Y0169644D02*
X0176432Y0169644D01*
X0176600Y0171242D02*
X0177000Y0171242D01*
X0177000Y0172841D02*
X0176600Y0172841D01*
X0175949Y0174439D02*
X0177651Y0174439D01*
X0179250Y0176038D02*
X0174350Y0176038D01*
X0174707Y0177636D02*
X0178893Y0177636D01*
X0177294Y0179235D02*
X0176306Y0179235D01*
X0176800Y0180833D02*
X0176800Y0180833D01*
X0176800Y0182432D02*
X0176800Y0182432D01*
X0176641Y0184030D02*
X0176959Y0184030D01*
X0178558Y0185629D02*
X0175042Y0185629D01*
X0185949Y0174439D02*
X0194800Y0174439D01*
X0194800Y0172841D02*
X0186600Y0172841D01*
X0186600Y0171242D02*
X0194800Y0171242D01*
X0194800Y0169644D02*
X0186432Y0169644D01*
X0194800Y0188826D02*
X0113611Y0188826D01*
X0112841Y0190424D02*
X0194800Y0190424D01*
X0194800Y0192023D02*
X0111618Y0192023D01*
X0112561Y0191007D02*
X0112561Y0191007D01*
X0110135Y0193621D02*
X0194800Y0193621D01*
X0154782Y0176038D02*
X0121318Y0176038D01*
X0122650Y0174439D02*
X0153450Y0174439D01*
X0153450Y0172841D02*
X0122650Y0172841D01*
X0122650Y0171242D02*
X0153450Y0171242D01*
X0154701Y0169644D02*
X0121399Y0169644D01*
X0118386Y0168045D02*
X0140831Y0168045D01*
X0139232Y0166447D02*
X0116788Y0166447D01*
X0105007Y0164848D02*
X0060966Y0164848D01*
X0062565Y0163250D02*
X0065720Y0163250D01*
X0064122Y0161651D02*
X0062631Y0161651D01*
X0061717Y0155257D02*
X0061605Y0155257D01*
X0061717Y0153659D02*
X0060007Y0153659D01*
X0058408Y0152060D02*
X0062003Y0152060D01*
X0063601Y0150462D02*
X0044999Y0150462D01*
X0046597Y0152060D02*
X0050192Y0152060D01*
X0048593Y0153659D02*
X0046883Y0153659D01*
X0046883Y0155257D02*
X0046995Y0155257D01*
X0045969Y0161651D02*
X0044478Y0161651D01*
X0046035Y0163250D02*
X0042880Y0163250D01*
X0039288Y0166447D02*
X0049232Y0166447D01*
X0050831Y0168045D02*
X0040886Y0168045D01*
X0037689Y0164848D02*
X0047634Y0164848D01*
X0030221Y0156856D02*
X0029697Y0156856D01*
X0030221Y0155257D02*
X0028098Y0155257D01*
X0026500Y0153659D02*
X0030221Y0153659D01*
X0030507Y0152060D02*
X0024901Y0152060D01*
X0023303Y0150462D02*
X0032105Y0150462D01*
X0026727Y0148863D02*
X0021704Y0148863D01*
X0021650Y0147265D02*
X0025129Y0147265D01*
X0023530Y0145666D02*
X0021650Y0145666D01*
X0021650Y0144068D02*
X0023331Y0144068D01*
X0023331Y0142469D02*
X0021650Y0142469D01*
X0021650Y0140870D02*
X0023331Y0140870D01*
X0023331Y0139272D02*
X0021650Y0139272D01*
X0021650Y0137673D02*
X0024224Y0137673D01*
X0025822Y0136075D02*
X0021650Y0136075D01*
X0021650Y0134476D02*
X0027421Y0134476D01*
X0026860Y0131279D02*
X0021650Y0131279D01*
X0021650Y0129681D02*
X0025262Y0129681D01*
X0023663Y0128082D02*
X0021650Y0128082D01*
X0021650Y0126484D02*
X0023331Y0126484D01*
X0023331Y0124885D02*
X0021650Y0124885D01*
X0021650Y0123287D02*
X0023331Y0123287D01*
X0023331Y0121688D02*
X0021650Y0121688D01*
X0021650Y0120090D02*
X0024091Y0120090D01*
X0025689Y0118491D02*
X0021650Y0118491D01*
X0021650Y0116893D02*
X0027288Y0116893D01*
X0021650Y0132878D02*
X0051779Y0132878D01*
X0061491Y0129681D02*
X0070537Y0129681D01*
X0068939Y0128082D02*
X0062355Y0128082D01*
X0063018Y0126484D02*
X0068607Y0126484D01*
X0068607Y0124885D02*
X0063190Y0124885D01*
X0063190Y0123287D02*
X0068607Y0123287D01*
X0068607Y0121688D02*
X0062840Y0121688D01*
X0062178Y0120090D02*
X0069367Y0120090D01*
X0070965Y0118491D02*
X0061063Y0118491D01*
X0059465Y0116893D02*
X0072564Y0116893D01*
X0071098Y0136075D02*
X0037502Y0136075D01*
X0039101Y0137673D02*
X0069499Y0137673D01*
X0068607Y0139272D02*
X0039993Y0139272D01*
X0039993Y0140870D02*
X0068607Y0140870D01*
X0068607Y0142469D02*
X0039993Y0142469D01*
X0039993Y0144068D02*
X0068607Y0144068D01*
X0068806Y0145666D02*
X0039794Y0145666D01*
X0038196Y0147265D02*
X0070404Y0147265D01*
X0065200Y0148863D02*
X0043400Y0148863D01*
X0012294Y0179235D02*
X0003800Y0179235D01*
X0003800Y0180833D02*
X0011800Y0180833D01*
X0011800Y0182432D02*
X0003800Y0182432D01*
X0003800Y0184030D02*
X0011959Y0184030D01*
X0003800Y0188826D02*
X0084808Y0188826D01*
X0084840Y0188929D02*
X0084840Y0188929D01*
X0085859Y0190424D02*
X0003800Y0190424D01*
X0003800Y0192023D02*
X0086949Y0192023D01*
X0087535Y0192882D02*
X0087535Y0192882D01*
X0088462Y0193621D02*
X0003800Y0193621D01*
X0076495Y0150462D02*
X0098114Y0150462D01*
X0109307Y0194514D02*
X0109307Y0194514D01*
X0171873Y0148863D02*
X0194800Y0148863D01*
X0194800Y0147265D02*
X0173471Y0147265D01*
X0175070Y0145666D02*
X0194800Y0145666D01*
X0194800Y0144068D02*
X0175268Y0144068D01*
X0175268Y0142469D02*
X0194800Y0142469D01*
X0194800Y0140870D02*
X0175268Y0140870D01*
X0175268Y0139272D02*
X0194800Y0139272D01*
X0194800Y0137673D02*
X0174376Y0137673D01*
X0172778Y0136075D02*
X0194800Y0136075D01*
X0118150Y0049755D02*
X0115450Y0049755D01*
X0116258Y0048157D02*
X0117342Y0048157D01*
X0117200Y0046558D02*
X0116400Y0046558D01*
X0116400Y0044960D02*
X0117200Y0044960D01*
X0117200Y0043361D02*
X0116400Y0043361D01*
X0116400Y0041763D02*
X0117200Y0041763D01*
X0117457Y0040164D02*
X0116143Y0040164D01*
X0115171Y0038566D02*
X0118429Y0038566D01*
X0119212Y0036967D02*
X0103997Y0036967D01*
X0104200Y0035369D02*
X0117613Y0035369D01*
X0117200Y0033770D02*
X0103579Y0033770D01*
X0102446Y0032172D02*
X0117200Y0032172D01*
X0117771Y0030573D02*
X0106858Y0030573D01*
X0109307Y0029159D02*
X0109307Y0029159D01*
X0109478Y0028975D02*
X0119370Y0028975D01*
X0124230Y0028975D02*
X0136904Y0028975D01*
X0136800Y0027376D02*
X0110961Y0027376D01*
X0112445Y0025778D02*
X0136800Y0025778D01*
X0137350Y0024179D02*
X0113270Y0024179D01*
X0114040Y0022581D02*
X0138948Y0022581D01*
X0138911Y0020982D02*
X0114691Y0020982D01*
X0114637Y0021342D02*
X0114637Y0021342D01*
X0114932Y0019384D02*
X0137313Y0019384D01*
X0136800Y0017785D02*
X0115173Y0017785D01*
X0115286Y0016187D02*
X0118714Y0016187D01*
X0119977Y0017450D02*
X0117400Y0014873D01*
X0117400Y0013050D01*
X0121800Y0013050D01*
X0121800Y0013050D01*
X0121800Y0017450D01*
X0123623Y0017450D01*
X0126200Y0014873D01*
X0126200Y0013050D01*
X0121800Y0013050D01*
X0121800Y0013050D01*
X0121800Y0013050D01*
X0121800Y0017450D01*
X0119977Y0017450D01*
X0121800Y0016187D02*
X0121800Y0016187D01*
X0121800Y0014588D02*
X0121800Y0014588D01*
X0121800Y0013050D02*
X0117400Y0013050D01*
X0117400Y0011227D01*
X0119977Y0008650D01*
X0121800Y0008650D01*
X0123623Y0008650D01*
X0126200Y0011227D01*
X0126200Y0013050D01*
X0121800Y0013050D01*
X0121800Y0008650D01*
X0121800Y0013050D01*
X0121800Y0013050D01*
X0121800Y0012990D02*
X0121800Y0012990D01*
X0121800Y0011391D02*
X0121800Y0011391D01*
X0121800Y0009793D02*
X0121800Y0009793D01*
X0124765Y0009793D02*
X0194800Y0009793D01*
X0194800Y0011391D02*
X0126200Y0011391D01*
X0126200Y0012990D02*
X0138539Y0012990D01*
X0136941Y0014588D02*
X0126200Y0014588D01*
X0124886Y0016187D02*
X0136800Y0016187D01*
X0144689Y0020982D02*
X0148911Y0020982D01*
X0148948Y0022581D02*
X0144652Y0022581D01*
X0146250Y0024179D02*
X0147350Y0024179D01*
X0146800Y0024729D02*
X0146800Y0028871D01*
X0147779Y0029850D01*
X0145821Y0029850D01*
X0146800Y0028871D01*
X0146800Y0024729D01*
X0146800Y0025778D02*
X0146800Y0025778D01*
X0146800Y0027376D02*
X0146800Y0027376D01*
X0146696Y0028975D02*
X0146904Y0028975D01*
X0147313Y0019384D02*
X0146287Y0019384D01*
X0146800Y0017785D02*
X0146800Y0017785D01*
X0146800Y0016187D02*
X0146800Y0016187D01*
X0146659Y0014588D02*
X0146941Y0014588D01*
X0148539Y0012990D02*
X0145061Y0012990D01*
X0118835Y0009793D02*
X0113631Y0009793D01*
X0114401Y0011391D02*
X0117400Y0011391D01*
X0117400Y0012990D02*
X0114804Y0012990D01*
X0114637Y0011880D02*
X0114637Y0011880D01*
X0112862Y0008194D02*
X0194800Y0008194D01*
X0194800Y0006596D02*
X0111657Y0006596D01*
X0112561Y0007570D02*
X0112561Y0007570D01*
X0110174Y0004997D02*
X0194800Y0004997D01*
X0194800Y0012990D02*
X0184778Y0012990D01*
X0186376Y0014588D02*
X0194800Y0014588D01*
X0194800Y0016187D02*
X0186600Y0016187D01*
X0186600Y0017785D02*
X0194800Y0017785D01*
X0194800Y0019384D02*
X0186005Y0019384D01*
X0117400Y0014588D02*
X0115045Y0014588D01*
X0109307Y0004063D02*
X0109307Y0004063D01*
X0108429Y0038566D02*
X0103374Y0038566D01*
X0104200Y0040164D02*
X0107457Y0040164D01*
X0107200Y0041763D02*
X0104081Y0041763D01*
X0103670Y0043361D02*
X0107200Y0043361D01*
X0107200Y0044960D02*
X0104200Y0044960D01*
X0105867Y0046558D02*
X0107200Y0046558D01*
X0107342Y0048157D02*
X0106700Y0048157D01*
X0106584Y0049755D02*
X0108150Y0049755D01*
X0073522Y0080127D02*
X0070078Y0080127D01*
X0071104Y0078529D02*
X0072496Y0078529D01*
X0072200Y0076930D02*
X0071400Y0076930D01*
X0071400Y0075332D02*
X0072200Y0075332D01*
X0072200Y0073733D02*
X0071400Y0073733D01*
X0071400Y0072134D02*
X0072200Y0072134D01*
X0072303Y0070536D02*
X0071297Y0070536D01*
X0053600Y0062543D02*
X0015819Y0062543D01*
X0014220Y0060945D02*
X0053600Y0060945D01*
X0053600Y0059346D02*
X0013750Y0059346D01*
X0013750Y0057748D02*
X0053600Y0057748D01*
X0053600Y0056149D02*
X0013750Y0056149D01*
X0013750Y0054551D02*
X0053600Y0054551D01*
X0053600Y0052952D02*
X0013750Y0052952D01*
X0013750Y0051354D02*
X0015532Y0051354D01*
X0013152Y0084923D02*
X0003800Y0084923D01*
X0003800Y0086521D02*
X0011553Y0086521D01*
X0009955Y0088120D02*
X0003800Y0088120D01*
X0003800Y0089718D02*
X0008356Y0089718D01*
X0006758Y0091317D02*
X0003800Y0091317D01*
X0003800Y0092915D02*
X0005159Y0092915D01*
X0003869Y0094514D02*
X0003800Y0094514D01*
D16*
X0018050Y0098050D02*
X0023296Y0092804D01*
X0038552Y0092804D01*
X0018050Y0098050D02*
X0018050Y0150300D01*
X0040550Y0172800D01*
X0108050Y0162800D02*
X0118050Y0172800D01*
X0108050Y0162800D02*
X0108050Y0100550D01*
X0115796Y0092804D01*
X0128552Y0092804D01*
D17*
X0135300Y0081800D02*
X0119300Y0081800D01*
X0102300Y0098800D01*
X0102300Y0145300D01*
X0100300Y0147300D01*
X0135300Y0081800D02*
X0141800Y0075300D01*
X0141800Y0074300D01*
X0151800Y0066800D02*
X0183050Y0066800D01*
X0188050Y0061800D01*
X0188050Y0033050D01*
X0181800Y0026800D01*
X0151800Y0035550D02*
X0151800Y0044300D01*
X0151800Y0066800D01*
X0056800Y0066800D01*
X0056800Y0044300D01*
X0056800Y0039300D01*
X0063050Y0033050D01*
X0076800Y0033050D01*
X0056800Y0066800D02*
X0015550Y0066800D01*
X0010550Y0061800D01*
X0010550Y0033050D01*
X0016800Y0026800D01*
X0046800Y0074300D02*
X0046800Y0078800D01*
X0043800Y0081800D01*
X0020800Y0081800D01*
X0006800Y0095800D01*
X0006800Y0160300D01*
X0121800Y0033050D02*
X0149300Y0033050D01*
X0151800Y0035550D01*
D18*
X0128300Y0052300D03*
X0125800Y0055800D03*
X0103300Y0055800D03*
X0100800Y0052300D03*
X0103300Y0048800D03*
X0100800Y0045300D03*
X0100800Y0040800D03*
X0100800Y0035800D03*
X0100300Y0059300D03*
X0102800Y0062800D03*
X0067800Y0058800D03*
X0065300Y0055300D03*
D19*
X0091800Y0055300D01*
X0095300Y0051800D01*
X0095300Y0048800D01*
X0098800Y0045300D01*
X0100800Y0045300D01*
X0099300Y0048800D02*
X0097300Y0050800D01*
X0097300Y0053300D01*
X0093300Y0057300D01*
X0069300Y0057300D01*
X0067800Y0058800D01*
X0070800Y0053300D02*
X0066800Y0049300D01*
X0066800Y0044300D01*
X0070800Y0053300D02*
X0090300Y0053300D01*
X0093300Y0050300D01*
X0093300Y0047300D01*
X0099800Y0040800D01*
X0100800Y0040800D01*
X0100800Y0036300D02*
X0100800Y0035800D01*
X0100800Y0036300D02*
X0091300Y0045800D01*
X0091300Y0048800D01*
X0088800Y0051300D01*
X0078800Y0051300D01*
X0076800Y0049300D01*
X0076800Y0044300D01*
X0099300Y0048800D02*
X0103300Y0048800D01*
X0100800Y0052300D02*
X0128300Y0052300D01*
X0125800Y0055800D02*
X0103300Y0055800D01*
X0100300Y0059300D02*
X0128550Y0059300D01*
X0131800Y0056050D01*
X0131800Y0044300D01*
X0141800Y0044300D02*
X0141800Y0059300D01*
X0138300Y0062800D01*
X0102800Y0062800D01*
D20*
X0100300Y0147300D03*
X0006800Y0160300D03*
M02*
