G75*
%MOIN*%
%OFA0B0*%
%FSLAX25Y25*%
%IPPOS*%
%LPD*%
%AMOC8*
5,1,8,0,0,1.08239X$1,22.5*
%
%ADD10C,0.00000*%
%ADD11C,0.00500*%
%ADD12C,0.00200*%
%ADD13C,0.00400*%
%ADD14C,0.00600*%
%ADD15R,0.03400X0.02400*%
%ADD16C,0.00300*%
%ADD17C,0.01200*%
%ADD18C,0.00591*%
D10*
X0005737Y0005737D02*
X0005737Y0190776D01*
X0190776Y0190776D01*
X0190776Y0005737D01*
X0005737Y0005737D01*
X0093001Y0016446D02*
X0093003Y0016604D01*
X0093009Y0016762D01*
X0093019Y0016920D01*
X0093033Y0017078D01*
X0093051Y0017235D01*
X0093072Y0017392D01*
X0093098Y0017548D01*
X0093128Y0017704D01*
X0093161Y0017859D01*
X0093199Y0018012D01*
X0093240Y0018165D01*
X0093285Y0018317D01*
X0093334Y0018468D01*
X0093387Y0018617D01*
X0093443Y0018765D01*
X0093503Y0018911D01*
X0093567Y0019056D01*
X0093635Y0019199D01*
X0093706Y0019341D01*
X0093780Y0019481D01*
X0093858Y0019618D01*
X0093940Y0019754D01*
X0094024Y0019888D01*
X0094113Y0020019D01*
X0094204Y0020148D01*
X0094299Y0020275D01*
X0094396Y0020400D01*
X0094497Y0020522D01*
X0094601Y0020641D01*
X0094708Y0020758D01*
X0094818Y0020872D01*
X0094931Y0020983D01*
X0095046Y0021092D01*
X0095164Y0021197D01*
X0095285Y0021299D01*
X0095408Y0021399D01*
X0095534Y0021495D01*
X0095662Y0021588D01*
X0095792Y0021678D01*
X0095925Y0021764D01*
X0096060Y0021848D01*
X0096196Y0021927D01*
X0096335Y0022004D01*
X0096476Y0022076D01*
X0096618Y0022146D01*
X0096762Y0022211D01*
X0096908Y0022273D01*
X0097055Y0022331D01*
X0097204Y0022386D01*
X0097354Y0022437D01*
X0097505Y0022484D01*
X0097657Y0022527D01*
X0097810Y0022566D01*
X0097965Y0022602D01*
X0098120Y0022633D01*
X0098276Y0022661D01*
X0098432Y0022685D01*
X0098589Y0022705D01*
X0098747Y0022721D01*
X0098904Y0022733D01*
X0099063Y0022741D01*
X0099221Y0022745D01*
X0099379Y0022745D01*
X0099537Y0022741D01*
X0099696Y0022733D01*
X0099853Y0022721D01*
X0100011Y0022705D01*
X0100168Y0022685D01*
X0100324Y0022661D01*
X0100480Y0022633D01*
X0100635Y0022602D01*
X0100790Y0022566D01*
X0100943Y0022527D01*
X0101095Y0022484D01*
X0101246Y0022437D01*
X0101396Y0022386D01*
X0101545Y0022331D01*
X0101692Y0022273D01*
X0101838Y0022211D01*
X0101982Y0022146D01*
X0102124Y0022076D01*
X0102265Y0022004D01*
X0102404Y0021927D01*
X0102540Y0021848D01*
X0102675Y0021764D01*
X0102808Y0021678D01*
X0102938Y0021588D01*
X0103066Y0021495D01*
X0103192Y0021399D01*
X0103315Y0021299D01*
X0103436Y0021197D01*
X0103554Y0021092D01*
X0103669Y0020983D01*
X0103782Y0020872D01*
X0103892Y0020758D01*
X0103999Y0020641D01*
X0104103Y0020522D01*
X0104204Y0020400D01*
X0104301Y0020275D01*
X0104396Y0020148D01*
X0104487Y0020019D01*
X0104576Y0019888D01*
X0104660Y0019754D01*
X0104742Y0019618D01*
X0104820Y0019481D01*
X0104894Y0019341D01*
X0104965Y0019199D01*
X0105033Y0019056D01*
X0105097Y0018911D01*
X0105157Y0018765D01*
X0105213Y0018617D01*
X0105266Y0018468D01*
X0105315Y0018317D01*
X0105360Y0018165D01*
X0105401Y0018012D01*
X0105439Y0017859D01*
X0105472Y0017704D01*
X0105502Y0017548D01*
X0105528Y0017392D01*
X0105549Y0017235D01*
X0105567Y0017078D01*
X0105581Y0016920D01*
X0105591Y0016762D01*
X0105597Y0016604D01*
X0105599Y0016446D01*
X0105597Y0016288D01*
X0105591Y0016130D01*
X0105581Y0015972D01*
X0105567Y0015814D01*
X0105549Y0015657D01*
X0105528Y0015500D01*
X0105502Y0015344D01*
X0105472Y0015188D01*
X0105439Y0015033D01*
X0105401Y0014880D01*
X0105360Y0014727D01*
X0105315Y0014575D01*
X0105266Y0014424D01*
X0105213Y0014275D01*
X0105157Y0014127D01*
X0105097Y0013981D01*
X0105033Y0013836D01*
X0104965Y0013693D01*
X0104894Y0013551D01*
X0104820Y0013411D01*
X0104742Y0013274D01*
X0104660Y0013138D01*
X0104576Y0013004D01*
X0104487Y0012873D01*
X0104396Y0012744D01*
X0104301Y0012617D01*
X0104204Y0012492D01*
X0104103Y0012370D01*
X0103999Y0012251D01*
X0103892Y0012134D01*
X0103782Y0012020D01*
X0103669Y0011909D01*
X0103554Y0011800D01*
X0103436Y0011695D01*
X0103315Y0011593D01*
X0103192Y0011493D01*
X0103066Y0011397D01*
X0102938Y0011304D01*
X0102808Y0011214D01*
X0102675Y0011128D01*
X0102540Y0011044D01*
X0102404Y0010965D01*
X0102265Y0010888D01*
X0102124Y0010816D01*
X0101982Y0010746D01*
X0101838Y0010681D01*
X0101692Y0010619D01*
X0101545Y0010561D01*
X0101396Y0010506D01*
X0101246Y0010455D01*
X0101095Y0010408D01*
X0100943Y0010365D01*
X0100790Y0010326D01*
X0100635Y0010290D01*
X0100480Y0010259D01*
X0100324Y0010231D01*
X0100168Y0010207D01*
X0100011Y0010187D01*
X0099853Y0010171D01*
X0099696Y0010159D01*
X0099537Y0010151D01*
X0099379Y0010147D01*
X0099221Y0010147D01*
X0099063Y0010151D01*
X0098904Y0010159D01*
X0098747Y0010171D01*
X0098589Y0010187D01*
X0098432Y0010207D01*
X0098276Y0010231D01*
X0098120Y0010259D01*
X0097965Y0010290D01*
X0097810Y0010326D01*
X0097657Y0010365D01*
X0097505Y0010408D01*
X0097354Y0010455D01*
X0097204Y0010506D01*
X0097055Y0010561D01*
X0096908Y0010619D01*
X0096762Y0010681D01*
X0096618Y0010746D01*
X0096476Y0010816D01*
X0096335Y0010888D01*
X0096196Y0010965D01*
X0096060Y0011044D01*
X0095925Y0011128D01*
X0095792Y0011214D01*
X0095662Y0011304D01*
X0095534Y0011397D01*
X0095408Y0011493D01*
X0095285Y0011593D01*
X0095164Y0011695D01*
X0095046Y0011800D01*
X0094931Y0011909D01*
X0094818Y0012020D01*
X0094708Y0012134D01*
X0094601Y0012251D01*
X0094497Y0012370D01*
X0094396Y0012492D01*
X0094299Y0012617D01*
X0094204Y0012744D01*
X0094113Y0012873D01*
X0094024Y0013004D01*
X0093940Y0013138D01*
X0093858Y0013274D01*
X0093780Y0013411D01*
X0093706Y0013551D01*
X0093635Y0013693D01*
X0093567Y0013836D01*
X0093503Y0013981D01*
X0093443Y0014127D01*
X0093387Y0014275D01*
X0093334Y0014424D01*
X0093285Y0014575D01*
X0093240Y0014727D01*
X0093199Y0014880D01*
X0093161Y0015033D01*
X0093128Y0015188D01*
X0093098Y0015344D01*
X0093072Y0015500D01*
X0093051Y0015657D01*
X0093033Y0015814D01*
X0093019Y0015972D01*
X0093009Y0016130D01*
X0093003Y0016288D01*
X0093001Y0016446D01*
X0047410Y0124300D02*
X0047412Y0124469D01*
X0047418Y0124638D01*
X0047429Y0124807D01*
X0047443Y0124975D01*
X0047462Y0125143D01*
X0047485Y0125311D01*
X0047511Y0125478D01*
X0047542Y0125644D01*
X0047577Y0125810D01*
X0047616Y0125974D01*
X0047660Y0126138D01*
X0047707Y0126300D01*
X0047758Y0126461D01*
X0047813Y0126621D01*
X0047872Y0126780D01*
X0047934Y0126937D01*
X0048001Y0127092D01*
X0048072Y0127246D01*
X0048146Y0127398D01*
X0048224Y0127548D01*
X0048305Y0127696D01*
X0048390Y0127842D01*
X0048479Y0127986D01*
X0048571Y0128128D01*
X0048667Y0128267D01*
X0048766Y0128404D01*
X0048868Y0128539D01*
X0048974Y0128671D01*
X0049083Y0128800D01*
X0049195Y0128927D01*
X0049310Y0129051D01*
X0049428Y0129172D01*
X0049549Y0129290D01*
X0049673Y0129405D01*
X0049800Y0129517D01*
X0049929Y0129626D01*
X0050061Y0129732D01*
X0050196Y0129834D01*
X0050333Y0129933D01*
X0050472Y0130029D01*
X0050614Y0130121D01*
X0050758Y0130210D01*
X0050904Y0130295D01*
X0051052Y0130376D01*
X0051202Y0130454D01*
X0051354Y0130528D01*
X0051508Y0130599D01*
X0051663Y0130666D01*
X0051820Y0130728D01*
X0051979Y0130787D01*
X0052139Y0130842D01*
X0052300Y0130893D01*
X0052462Y0130940D01*
X0052626Y0130984D01*
X0052790Y0131023D01*
X0052956Y0131058D01*
X0053122Y0131089D01*
X0053289Y0131115D01*
X0053457Y0131138D01*
X0053625Y0131157D01*
X0053793Y0131171D01*
X0053962Y0131182D01*
X0054131Y0131188D01*
X0054300Y0131190D01*
X0054469Y0131188D01*
X0054638Y0131182D01*
X0054807Y0131171D01*
X0054975Y0131157D01*
X0055143Y0131138D01*
X0055311Y0131115D01*
X0055478Y0131089D01*
X0055644Y0131058D01*
X0055810Y0131023D01*
X0055974Y0130984D01*
X0056138Y0130940D01*
X0056300Y0130893D01*
X0056461Y0130842D01*
X0056621Y0130787D01*
X0056780Y0130728D01*
X0056937Y0130666D01*
X0057092Y0130599D01*
X0057246Y0130528D01*
X0057398Y0130454D01*
X0057548Y0130376D01*
X0057696Y0130295D01*
X0057842Y0130210D01*
X0057986Y0130121D01*
X0058128Y0130029D01*
X0058267Y0129933D01*
X0058404Y0129834D01*
X0058539Y0129732D01*
X0058671Y0129626D01*
X0058800Y0129517D01*
X0058927Y0129405D01*
X0059051Y0129290D01*
X0059172Y0129172D01*
X0059290Y0129051D01*
X0059405Y0128927D01*
X0059517Y0128800D01*
X0059626Y0128671D01*
X0059732Y0128539D01*
X0059834Y0128404D01*
X0059933Y0128267D01*
X0060029Y0128128D01*
X0060121Y0127986D01*
X0060210Y0127842D01*
X0060295Y0127696D01*
X0060376Y0127548D01*
X0060454Y0127398D01*
X0060528Y0127246D01*
X0060599Y0127092D01*
X0060666Y0126937D01*
X0060728Y0126780D01*
X0060787Y0126621D01*
X0060842Y0126461D01*
X0060893Y0126300D01*
X0060940Y0126138D01*
X0060984Y0125974D01*
X0061023Y0125810D01*
X0061058Y0125644D01*
X0061089Y0125478D01*
X0061115Y0125311D01*
X0061138Y0125143D01*
X0061157Y0124975D01*
X0061171Y0124807D01*
X0061182Y0124638D01*
X0061188Y0124469D01*
X0061190Y0124300D01*
X0061188Y0124131D01*
X0061182Y0123962D01*
X0061171Y0123793D01*
X0061157Y0123625D01*
X0061138Y0123457D01*
X0061115Y0123289D01*
X0061089Y0123122D01*
X0061058Y0122956D01*
X0061023Y0122790D01*
X0060984Y0122626D01*
X0060940Y0122462D01*
X0060893Y0122300D01*
X0060842Y0122139D01*
X0060787Y0121979D01*
X0060728Y0121820D01*
X0060666Y0121663D01*
X0060599Y0121508D01*
X0060528Y0121354D01*
X0060454Y0121202D01*
X0060376Y0121052D01*
X0060295Y0120904D01*
X0060210Y0120758D01*
X0060121Y0120614D01*
X0060029Y0120472D01*
X0059933Y0120333D01*
X0059834Y0120196D01*
X0059732Y0120061D01*
X0059626Y0119929D01*
X0059517Y0119800D01*
X0059405Y0119673D01*
X0059290Y0119549D01*
X0059172Y0119428D01*
X0059051Y0119310D01*
X0058927Y0119195D01*
X0058800Y0119083D01*
X0058671Y0118974D01*
X0058539Y0118868D01*
X0058404Y0118766D01*
X0058267Y0118667D01*
X0058128Y0118571D01*
X0057986Y0118479D01*
X0057842Y0118390D01*
X0057696Y0118305D01*
X0057548Y0118224D01*
X0057398Y0118146D01*
X0057246Y0118072D01*
X0057092Y0118001D01*
X0056937Y0117934D01*
X0056780Y0117872D01*
X0056621Y0117813D01*
X0056461Y0117758D01*
X0056300Y0117707D01*
X0056138Y0117660D01*
X0055974Y0117616D01*
X0055810Y0117577D01*
X0055644Y0117542D01*
X0055478Y0117511D01*
X0055311Y0117485D01*
X0055143Y0117462D01*
X0054975Y0117443D01*
X0054807Y0117429D01*
X0054638Y0117418D01*
X0054469Y0117412D01*
X0054300Y0117410D01*
X0054131Y0117412D01*
X0053962Y0117418D01*
X0053793Y0117429D01*
X0053625Y0117443D01*
X0053457Y0117462D01*
X0053289Y0117485D01*
X0053122Y0117511D01*
X0052956Y0117542D01*
X0052790Y0117577D01*
X0052626Y0117616D01*
X0052462Y0117660D01*
X0052300Y0117707D01*
X0052139Y0117758D01*
X0051979Y0117813D01*
X0051820Y0117872D01*
X0051663Y0117934D01*
X0051508Y0118001D01*
X0051354Y0118072D01*
X0051202Y0118146D01*
X0051052Y0118224D01*
X0050904Y0118305D01*
X0050758Y0118390D01*
X0050614Y0118479D01*
X0050472Y0118571D01*
X0050333Y0118667D01*
X0050196Y0118766D01*
X0050061Y0118868D01*
X0049929Y0118974D01*
X0049800Y0119083D01*
X0049673Y0119195D01*
X0049549Y0119310D01*
X0049428Y0119428D01*
X0049310Y0119549D01*
X0049195Y0119673D01*
X0049083Y0119800D01*
X0048974Y0119929D01*
X0048868Y0120061D01*
X0048766Y0120196D01*
X0048667Y0120333D01*
X0048571Y0120472D01*
X0048479Y0120614D01*
X0048390Y0120758D01*
X0048305Y0120904D01*
X0048224Y0121052D01*
X0048146Y0121202D01*
X0048072Y0121354D01*
X0048001Y0121508D01*
X0047934Y0121663D01*
X0047872Y0121820D01*
X0047813Y0121979D01*
X0047758Y0122139D01*
X0047707Y0122300D01*
X0047660Y0122462D01*
X0047616Y0122626D01*
X0047577Y0122790D01*
X0047542Y0122956D01*
X0047511Y0123122D01*
X0047485Y0123289D01*
X0047462Y0123457D01*
X0047443Y0123625D01*
X0047429Y0123793D01*
X0047418Y0123962D01*
X0047412Y0124131D01*
X0047410Y0124300D01*
X0093001Y0181800D02*
X0093003Y0181958D01*
X0093009Y0182116D01*
X0093019Y0182274D01*
X0093033Y0182432D01*
X0093051Y0182589D01*
X0093072Y0182746D01*
X0093098Y0182902D01*
X0093128Y0183058D01*
X0093161Y0183213D01*
X0093199Y0183366D01*
X0093240Y0183519D01*
X0093285Y0183671D01*
X0093334Y0183822D01*
X0093387Y0183971D01*
X0093443Y0184119D01*
X0093503Y0184265D01*
X0093567Y0184410D01*
X0093635Y0184553D01*
X0093706Y0184695D01*
X0093780Y0184835D01*
X0093858Y0184972D01*
X0093940Y0185108D01*
X0094024Y0185242D01*
X0094113Y0185373D01*
X0094204Y0185502D01*
X0094299Y0185629D01*
X0094396Y0185754D01*
X0094497Y0185876D01*
X0094601Y0185995D01*
X0094708Y0186112D01*
X0094818Y0186226D01*
X0094931Y0186337D01*
X0095046Y0186446D01*
X0095164Y0186551D01*
X0095285Y0186653D01*
X0095408Y0186753D01*
X0095534Y0186849D01*
X0095662Y0186942D01*
X0095792Y0187032D01*
X0095925Y0187118D01*
X0096060Y0187202D01*
X0096196Y0187281D01*
X0096335Y0187358D01*
X0096476Y0187430D01*
X0096618Y0187500D01*
X0096762Y0187565D01*
X0096908Y0187627D01*
X0097055Y0187685D01*
X0097204Y0187740D01*
X0097354Y0187791D01*
X0097505Y0187838D01*
X0097657Y0187881D01*
X0097810Y0187920D01*
X0097965Y0187956D01*
X0098120Y0187987D01*
X0098276Y0188015D01*
X0098432Y0188039D01*
X0098589Y0188059D01*
X0098747Y0188075D01*
X0098904Y0188087D01*
X0099063Y0188095D01*
X0099221Y0188099D01*
X0099379Y0188099D01*
X0099537Y0188095D01*
X0099696Y0188087D01*
X0099853Y0188075D01*
X0100011Y0188059D01*
X0100168Y0188039D01*
X0100324Y0188015D01*
X0100480Y0187987D01*
X0100635Y0187956D01*
X0100790Y0187920D01*
X0100943Y0187881D01*
X0101095Y0187838D01*
X0101246Y0187791D01*
X0101396Y0187740D01*
X0101545Y0187685D01*
X0101692Y0187627D01*
X0101838Y0187565D01*
X0101982Y0187500D01*
X0102124Y0187430D01*
X0102265Y0187358D01*
X0102404Y0187281D01*
X0102540Y0187202D01*
X0102675Y0187118D01*
X0102808Y0187032D01*
X0102938Y0186942D01*
X0103066Y0186849D01*
X0103192Y0186753D01*
X0103315Y0186653D01*
X0103436Y0186551D01*
X0103554Y0186446D01*
X0103669Y0186337D01*
X0103782Y0186226D01*
X0103892Y0186112D01*
X0103999Y0185995D01*
X0104103Y0185876D01*
X0104204Y0185754D01*
X0104301Y0185629D01*
X0104396Y0185502D01*
X0104487Y0185373D01*
X0104576Y0185242D01*
X0104660Y0185108D01*
X0104742Y0184972D01*
X0104820Y0184835D01*
X0104894Y0184695D01*
X0104965Y0184553D01*
X0105033Y0184410D01*
X0105097Y0184265D01*
X0105157Y0184119D01*
X0105213Y0183971D01*
X0105266Y0183822D01*
X0105315Y0183671D01*
X0105360Y0183519D01*
X0105401Y0183366D01*
X0105439Y0183213D01*
X0105472Y0183058D01*
X0105502Y0182902D01*
X0105528Y0182746D01*
X0105549Y0182589D01*
X0105567Y0182432D01*
X0105581Y0182274D01*
X0105591Y0182116D01*
X0105597Y0181958D01*
X0105599Y0181800D01*
X0105597Y0181642D01*
X0105591Y0181484D01*
X0105581Y0181326D01*
X0105567Y0181168D01*
X0105549Y0181011D01*
X0105528Y0180854D01*
X0105502Y0180698D01*
X0105472Y0180542D01*
X0105439Y0180387D01*
X0105401Y0180234D01*
X0105360Y0180081D01*
X0105315Y0179929D01*
X0105266Y0179778D01*
X0105213Y0179629D01*
X0105157Y0179481D01*
X0105097Y0179335D01*
X0105033Y0179190D01*
X0104965Y0179047D01*
X0104894Y0178905D01*
X0104820Y0178765D01*
X0104742Y0178628D01*
X0104660Y0178492D01*
X0104576Y0178358D01*
X0104487Y0178227D01*
X0104396Y0178098D01*
X0104301Y0177971D01*
X0104204Y0177846D01*
X0104103Y0177724D01*
X0103999Y0177605D01*
X0103892Y0177488D01*
X0103782Y0177374D01*
X0103669Y0177263D01*
X0103554Y0177154D01*
X0103436Y0177049D01*
X0103315Y0176947D01*
X0103192Y0176847D01*
X0103066Y0176751D01*
X0102938Y0176658D01*
X0102808Y0176568D01*
X0102675Y0176482D01*
X0102540Y0176398D01*
X0102404Y0176319D01*
X0102265Y0176242D01*
X0102124Y0176170D01*
X0101982Y0176100D01*
X0101838Y0176035D01*
X0101692Y0175973D01*
X0101545Y0175915D01*
X0101396Y0175860D01*
X0101246Y0175809D01*
X0101095Y0175762D01*
X0100943Y0175719D01*
X0100790Y0175680D01*
X0100635Y0175644D01*
X0100480Y0175613D01*
X0100324Y0175585D01*
X0100168Y0175561D01*
X0100011Y0175541D01*
X0099853Y0175525D01*
X0099696Y0175513D01*
X0099537Y0175505D01*
X0099379Y0175501D01*
X0099221Y0175501D01*
X0099063Y0175505D01*
X0098904Y0175513D01*
X0098747Y0175525D01*
X0098589Y0175541D01*
X0098432Y0175561D01*
X0098276Y0175585D01*
X0098120Y0175613D01*
X0097965Y0175644D01*
X0097810Y0175680D01*
X0097657Y0175719D01*
X0097505Y0175762D01*
X0097354Y0175809D01*
X0097204Y0175860D01*
X0097055Y0175915D01*
X0096908Y0175973D01*
X0096762Y0176035D01*
X0096618Y0176100D01*
X0096476Y0176170D01*
X0096335Y0176242D01*
X0096196Y0176319D01*
X0096060Y0176398D01*
X0095925Y0176482D01*
X0095792Y0176568D01*
X0095662Y0176658D01*
X0095534Y0176751D01*
X0095408Y0176847D01*
X0095285Y0176947D01*
X0095164Y0177049D01*
X0095046Y0177154D01*
X0094931Y0177263D01*
X0094818Y0177374D01*
X0094708Y0177488D01*
X0094601Y0177605D01*
X0094497Y0177724D01*
X0094396Y0177846D01*
X0094299Y0177971D01*
X0094204Y0178098D01*
X0094113Y0178227D01*
X0094024Y0178358D01*
X0093940Y0178492D01*
X0093858Y0178628D01*
X0093780Y0178765D01*
X0093706Y0178905D01*
X0093635Y0179047D01*
X0093567Y0179190D01*
X0093503Y0179335D01*
X0093443Y0179481D01*
X0093387Y0179629D01*
X0093334Y0179778D01*
X0093285Y0179929D01*
X0093240Y0180081D01*
X0093199Y0180234D01*
X0093161Y0180387D01*
X0093128Y0180542D01*
X0093098Y0180698D01*
X0093072Y0180854D01*
X0093051Y0181011D01*
X0093033Y0181168D01*
X0093019Y0181326D01*
X0093009Y0181484D01*
X0093003Y0181642D01*
X0093001Y0181800D01*
X0137410Y0124300D02*
X0137412Y0124469D01*
X0137418Y0124638D01*
X0137429Y0124807D01*
X0137443Y0124975D01*
X0137462Y0125143D01*
X0137485Y0125311D01*
X0137511Y0125478D01*
X0137542Y0125644D01*
X0137577Y0125810D01*
X0137616Y0125974D01*
X0137660Y0126138D01*
X0137707Y0126300D01*
X0137758Y0126461D01*
X0137813Y0126621D01*
X0137872Y0126780D01*
X0137934Y0126937D01*
X0138001Y0127092D01*
X0138072Y0127246D01*
X0138146Y0127398D01*
X0138224Y0127548D01*
X0138305Y0127696D01*
X0138390Y0127842D01*
X0138479Y0127986D01*
X0138571Y0128128D01*
X0138667Y0128267D01*
X0138766Y0128404D01*
X0138868Y0128539D01*
X0138974Y0128671D01*
X0139083Y0128800D01*
X0139195Y0128927D01*
X0139310Y0129051D01*
X0139428Y0129172D01*
X0139549Y0129290D01*
X0139673Y0129405D01*
X0139800Y0129517D01*
X0139929Y0129626D01*
X0140061Y0129732D01*
X0140196Y0129834D01*
X0140333Y0129933D01*
X0140472Y0130029D01*
X0140614Y0130121D01*
X0140758Y0130210D01*
X0140904Y0130295D01*
X0141052Y0130376D01*
X0141202Y0130454D01*
X0141354Y0130528D01*
X0141508Y0130599D01*
X0141663Y0130666D01*
X0141820Y0130728D01*
X0141979Y0130787D01*
X0142139Y0130842D01*
X0142300Y0130893D01*
X0142462Y0130940D01*
X0142626Y0130984D01*
X0142790Y0131023D01*
X0142956Y0131058D01*
X0143122Y0131089D01*
X0143289Y0131115D01*
X0143457Y0131138D01*
X0143625Y0131157D01*
X0143793Y0131171D01*
X0143962Y0131182D01*
X0144131Y0131188D01*
X0144300Y0131190D01*
X0144469Y0131188D01*
X0144638Y0131182D01*
X0144807Y0131171D01*
X0144975Y0131157D01*
X0145143Y0131138D01*
X0145311Y0131115D01*
X0145478Y0131089D01*
X0145644Y0131058D01*
X0145810Y0131023D01*
X0145974Y0130984D01*
X0146138Y0130940D01*
X0146300Y0130893D01*
X0146461Y0130842D01*
X0146621Y0130787D01*
X0146780Y0130728D01*
X0146937Y0130666D01*
X0147092Y0130599D01*
X0147246Y0130528D01*
X0147398Y0130454D01*
X0147548Y0130376D01*
X0147696Y0130295D01*
X0147842Y0130210D01*
X0147986Y0130121D01*
X0148128Y0130029D01*
X0148267Y0129933D01*
X0148404Y0129834D01*
X0148539Y0129732D01*
X0148671Y0129626D01*
X0148800Y0129517D01*
X0148927Y0129405D01*
X0149051Y0129290D01*
X0149172Y0129172D01*
X0149290Y0129051D01*
X0149405Y0128927D01*
X0149517Y0128800D01*
X0149626Y0128671D01*
X0149732Y0128539D01*
X0149834Y0128404D01*
X0149933Y0128267D01*
X0150029Y0128128D01*
X0150121Y0127986D01*
X0150210Y0127842D01*
X0150295Y0127696D01*
X0150376Y0127548D01*
X0150454Y0127398D01*
X0150528Y0127246D01*
X0150599Y0127092D01*
X0150666Y0126937D01*
X0150728Y0126780D01*
X0150787Y0126621D01*
X0150842Y0126461D01*
X0150893Y0126300D01*
X0150940Y0126138D01*
X0150984Y0125974D01*
X0151023Y0125810D01*
X0151058Y0125644D01*
X0151089Y0125478D01*
X0151115Y0125311D01*
X0151138Y0125143D01*
X0151157Y0124975D01*
X0151171Y0124807D01*
X0151182Y0124638D01*
X0151188Y0124469D01*
X0151190Y0124300D01*
X0151188Y0124131D01*
X0151182Y0123962D01*
X0151171Y0123793D01*
X0151157Y0123625D01*
X0151138Y0123457D01*
X0151115Y0123289D01*
X0151089Y0123122D01*
X0151058Y0122956D01*
X0151023Y0122790D01*
X0150984Y0122626D01*
X0150940Y0122462D01*
X0150893Y0122300D01*
X0150842Y0122139D01*
X0150787Y0121979D01*
X0150728Y0121820D01*
X0150666Y0121663D01*
X0150599Y0121508D01*
X0150528Y0121354D01*
X0150454Y0121202D01*
X0150376Y0121052D01*
X0150295Y0120904D01*
X0150210Y0120758D01*
X0150121Y0120614D01*
X0150029Y0120472D01*
X0149933Y0120333D01*
X0149834Y0120196D01*
X0149732Y0120061D01*
X0149626Y0119929D01*
X0149517Y0119800D01*
X0149405Y0119673D01*
X0149290Y0119549D01*
X0149172Y0119428D01*
X0149051Y0119310D01*
X0148927Y0119195D01*
X0148800Y0119083D01*
X0148671Y0118974D01*
X0148539Y0118868D01*
X0148404Y0118766D01*
X0148267Y0118667D01*
X0148128Y0118571D01*
X0147986Y0118479D01*
X0147842Y0118390D01*
X0147696Y0118305D01*
X0147548Y0118224D01*
X0147398Y0118146D01*
X0147246Y0118072D01*
X0147092Y0118001D01*
X0146937Y0117934D01*
X0146780Y0117872D01*
X0146621Y0117813D01*
X0146461Y0117758D01*
X0146300Y0117707D01*
X0146138Y0117660D01*
X0145974Y0117616D01*
X0145810Y0117577D01*
X0145644Y0117542D01*
X0145478Y0117511D01*
X0145311Y0117485D01*
X0145143Y0117462D01*
X0144975Y0117443D01*
X0144807Y0117429D01*
X0144638Y0117418D01*
X0144469Y0117412D01*
X0144300Y0117410D01*
X0144131Y0117412D01*
X0143962Y0117418D01*
X0143793Y0117429D01*
X0143625Y0117443D01*
X0143457Y0117462D01*
X0143289Y0117485D01*
X0143122Y0117511D01*
X0142956Y0117542D01*
X0142790Y0117577D01*
X0142626Y0117616D01*
X0142462Y0117660D01*
X0142300Y0117707D01*
X0142139Y0117758D01*
X0141979Y0117813D01*
X0141820Y0117872D01*
X0141663Y0117934D01*
X0141508Y0118001D01*
X0141354Y0118072D01*
X0141202Y0118146D01*
X0141052Y0118224D01*
X0140904Y0118305D01*
X0140758Y0118390D01*
X0140614Y0118479D01*
X0140472Y0118571D01*
X0140333Y0118667D01*
X0140196Y0118766D01*
X0140061Y0118868D01*
X0139929Y0118974D01*
X0139800Y0119083D01*
X0139673Y0119195D01*
X0139549Y0119310D01*
X0139428Y0119428D01*
X0139310Y0119549D01*
X0139195Y0119673D01*
X0139083Y0119800D01*
X0138974Y0119929D01*
X0138868Y0120061D01*
X0138766Y0120196D01*
X0138667Y0120333D01*
X0138571Y0120472D01*
X0138479Y0120614D01*
X0138390Y0120758D01*
X0138305Y0120904D01*
X0138224Y0121052D01*
X0138146Y0121202D01*
X0138072Y0121354D01*
X0138001Y0121508D01*
X0137934Y0121663D01*
X0137872Y0121820D01*
X0137813Y0121979D01*
X0137758Y0122139D01*
X0137707Y0122300D01*
X0137660Y0122462D01*
X0137616Y0122626D01*
X0137577Y0122790D01*
X0137542Y0122956D01*
X0137511Y0123122D01*
X0137485Y0123289D01*
X0137462Y0123457D01*
X0137443Y0123625D01*
X0137429Y0123793D01*
X0137418Y0123962D01*
X0137412Y0124131D01*
X0137410Y0124300D01*
D11*
X0101300Y0123627D02*
X0099966Y0122293D01*
X0099966Y0122960D02*
X0099966Y0120958D01*
X0101300Y0120958D02*
X0097297Y0120958D01*
X0097297Y0122960D01*
X0097964Y0123627D01*
X0099298Y0123627D01*
X0099966Y0122960D01*
X0101300Y0125102D02*
X0101300Y0126436D01*
X0101300Y0125769D02*
X0097297Y0125769D01*
X0097297Y0125102D02*
X0097297Y0126436D01*
X0097297Y0127864D02*
X0099966Y0127864D01*
X0101300Y0129199D01*
X0099966Y0130533D01*
X0097297Y0130533D01*
X0097297Y0132008D02*
X0101300Y0132008D01*
X0101300Y0134677D01*
X0101300Y0136151D02*
X0097297Y0136151D01*
X0097297Y0138153D01*
X0097964Y0138820D01*
X0099298Y0138820D01*
X0099966Y0138153D01*
X0099966Y0136151D01*
X0099966Y0137486D02*
X0101300Y0138820D01*
X0099298Y0133342D02*
X0099298Y0132008D01*
X0097297Y0132008D02*
X0097297Y0134677D01*
X0097964Y0119484D02*
X0097297Y0118816D01*
X0097297Y0116815D01*
X0101300Y0116815D01*
X0101300Y0118816D01*
X0100633Y0119484D01*
X0097964Y0119484D01*
X0097297Y0111197D02*
X0097297Y0108528D01*
X0101300Y0108528D01*
X0101300Y0111197D01*
X0099298Y0109862D02*
X0099298Y0108528D01*
X0097297Y0107100D02*
X0097297Y0105765D01*
X0097297Y0106433D02*
X0101300Y0106433D01*
X0101300Y0107100D02*
X0101300Y0105765D01*
X0101300Y0104291D02*
X0097297Y0101622D01*
X0097297Y0100194D02*
X0097297Y0098859D01*
X0097297Y0099527D02*
X0101300Y0099527D01*
X0101300Y0100194D02*
X0101300Y0098859D01*
X0101300Y0097385D02*
X0097297Y0097385D01*
X0097297Y0094716D02*
X0101300Y0097385D01*
X0101300Y0094716D02*
X0097297Y0094716D01*
X0097964Y0089098D02*
X0097297Y0088430D01*
X0097297Y0086429D01*
X0101300Y0086429D01*
X0101300Y0088430D01*
X0100633Y0089098D01*
X0099966Y0089098D01*
X0099298Y0088430D01*
X0099298Y0086429D01*
X0099298Y0088430D02*
X0098631Y0089098D01*
X0097964Y0089098D01*
X0097297Y0084954D02*
X0101300Y0082285D01*
X0101300Y0080811D02*
X0098631Y0080811D01*
X0097297Y0079476D01*
X0098631Y0078142D01*
X0101300Y0078142D01*
X0101300Y0076667D02*
X0101300Y0073998D01*
X0098631Y0076667D01*
X0097964Y0076667D01*
X0097297Y0076000D01*
X0097297Y0074665D01*
X0097964Y0073998D01*
X0097297Y0071189D02*
X0101300Y0071189D01*
X0101300Y0069855D02*
X0101300Y0072524D01*
X0098631Y0069855D02*
X0097297Y0071189D01*
X0099298Y0068380D02*
X0099298Y0065711D01*
X0097297Y0064236D02*
X0101300Y0064236D01*
X0097297Y0061568D01*
X0101300Y0061568D01*
X0101300Y0060140D02*
X0101300Y0058805D01*
X0101300Y0059472D02*
X0097297Y0059472D01*
X0097297Y0058805D02*
X0097297Y0060140D01*
X0099298Y0078142D02*
X0099298Y0080811D01*
X0101300Y0101622D02*
X0097297Y0104291D01*
X0067800Y0030449D02*
X0067800Y0027446D01*
X0067800Y0028947D02*
X0063296Y0028947D01*
X0064797Y0027446D01*
X0064047Y0025845D02*
X0065548Y0025845D01*
X0066299Y0025094D01*
X0066299Y0022842D01*
X0067800Y0022842D02*
X0063296Y0022842D01*
X0063296Y0025094D01*
X0064047Y0025845D01*
X0063296Y0021241D02*
X0063296Y0019739D01*
X0063296Y0020490D02*
X0067049Y0020490D01*
X0067800Y0019739D01*
X0067800Y0018989D01*
X0067049Y0018238D01*
X0130796Y0019739D02*
X0130796Y0021241D01*
X0130796Y0020490D02*
X0134549Y0020490D01*
X0135300Y0019739D01*
X0135300Y0018989D01*
X0134549Y0018238D01*
X0133799Y0022842D02*
X0133799Y0025094D01*
X0133048Y0025845D01*
X0131547Y0025845D01*
X0130796Y0025094D01*
X0130796Y0022842D01*
X0135300Y0022842D01*
X0135300Y0027446D02*
X0132297Y0030449D01*
X0131547Y0030449D01*
X0130796Y0029698D01*
X0130796Y0028197D01*
X0131547Y0027446D01*
X0135300Y0027446D02*
X0135300Y0030449D01*
X0173989Y0160800D02*
X0174739Y0160800D01*
X0175490Y0161551D01*
X0175490Y0165304D01*
X0174739Y0165304D02*
X0176241Y0165304D01*
X0177842Y0165304D02*
X0180094Y0165304D01*
X0180845Y0164553D01*
X0180845Y0163052D01*
X0180094Y0162301D01*
X0177842Y0162301D01*
X0177842Y0160800D02*
X0177842Y0165304D01*
X0182446Y0164553D02*
X0183197Y0165304D01*
X0184698Y0165304D01*
X0185449Y0164553D01*
X0185449Y0163803D01*
X0184698Y0163052D01*
X0185449Y0162301D01*
X0185449Y0161551D01*
X0184698Y0160800D01*
X0183197Y0160800D01*
X0182446Y0161551D01*
X0183947Y0163052D02*
X0184698Y0163052D01*
X0173989Y0160800D02*
X0173238Y0161551D01*
X0022292Y0166989D02*
X0019289Y0166989D01*
X0021541Y0169241D01*
X0021541Y0164737D01*
X0017688Y0166989D02*
X0016937Y0166238D01*
X0014685Y0166238D01*
X0014685Y0164737D02*
X0014685Y0169241D01*
X0016937Y0169241D01*
X0017688Y0168490D01*
X0017688Y0166989D01*
X0013084Y0169241D02*
X0011583Y0169241D01*
X0012333Y0169241D02*
X0012333Y0165488D01*
X0011583Y0164737D01*
X0010832Y0164737D01*
X0010081Y0165488D01*
D12*
X0014690Y0035352D02*
X0014690Y0034251D01*
X0015424Y0034618D01*
X0015791Y0034618D01*
X0016158Y0034251D01*
X0016158Y0033517D01*
X0015791Y0033150D01*
X0015057Y0033150D01*
X0014690Y0033517D01*
X0014690Y0035352D02*
X0016158Y0035352D01*
X0016900Y0035352D02*
X0016900Y0033884D01*
X0017634Y0033150D01*
X0018368Y0033884D01*
X0018368Y0035352D01*
X0024690Y0034985D02*
X0025057Y0035352D01*
X0025791Y0035352D01*
X0026158Y0034985D01*
X0026158Y0034618D01*
X0024690Y0033150D01*
X0026158Y0033150D01*
X0026900Y0033150D02*
X0028001Y0033150D01*
X0028368Y0033517D01*
X0028368Y0034985D01*
X0028001Y0035352D01*
X0026900Y0035352D01*
X0026900Y0033150D01*
X0034690Y0033150D02*
X0036158Y0034618D01*
X0036158Y0034985D01*
X0035791Y0035352D01*
X0035057Y0035352D01*
X0034690Y0034985D01*
X0034690Y0033150D02*
X0036158Y0033150D01*
X0036900Y0033150D02*
X0038001Y0033150D01*
X0038368Y0033517D01*
X0038368Y0033884D01*
X0038001Y0034251D01*
X0036900Y0034251D01*
X0036900Y0035352D02*
X0038001Y0035352D01*
X0038368Y0034985D01*
X0038368Y0034618D01*
X0038001Y0034251D01*
X0036900Y0033150D02*
X0036900Y0035352D01*
X0044690Y0034618D02*
X0045424Y0035352D01*
X0045424Y0033150D01*
X0044690Y0033150D02*
X0046158Y0033150D01*
X0046900Y0033150D02*
X0048001Y0033150D01*
X0048368Y0033517D01*
X0048368Y0034985D01*
X0048001Y0035352D01*
X0046900Y0035352D01*
X0046900Y0033150D01*
X0054690Y0033150D02*
X0056158Y0033150D01*
X0055424Y0033150D02*
X0055424Y0035352D01*
X0054690Y0034618D01*
X0056900Y0034618D02*
X0056900Y0033150D01*
X0056900Y0034251D02*
X0058368Y0034251D01*
X0058368Y0034618D02*
X0058368Y0033150D01*
X0058368Y0034618D02*
X0057634Y0035352D01*
X0056900Y0034618D01*
X0056900Y0010452D02*
X0058001Y0010452D01*
X0058368Y0010085D01*
X0058368Y0009718D01*
X0058001Y0009351D01*
X0056900Y0009351D01*
X0056900Y0008250D02*
X0056900Y0010452D01*
X0055424Y0010452D02*
X0055424Y0008250D01*
X0054690Y0008250D02*
X0056158Y0008250D01*
X0056900Y0008250D02*
X0058001Y0008250D01*
X0058368Y0008617D01*
X0058368Y0008984D01*
X0058001Y0009351D01*
X0055424Y0010452D02*
X0054690Y0009718D01*
X0048368Y0010085D02*
X0048001Y0010452D01*
X0047267Y0010452D01*
X0046900Y0010085D01*
X0046900Y0008617D01*
X0047267Y0008250D01*
X0048001Y0008250D01*
X0048368Y0008617D01*
X0046158Y0008250D02*
X0044690Y0008250D01*
X0045424Y0008250D02*
X0045424Y0010452D01*
X0044690Y0009718D01*
X0038368Y0010085D02*
X0038001Y0010452D01*
X0037267Y0010452D01*
X0036900Y0010085D01*
X0036900Y0008617D01*
X0037267Y0008250D01*
X0038001Y0008250D01*
X0038368Y0008617D01*
X0036158Y0008250D02*
X0034690Y0008250D01*
X0036158Y0009718D01*
X0036158Y0010085D01*
X0035791Y0010452D01*
X0035057Y0010452D01*
X0034690Y0010085D01*
X0028368Y0009718D02*
X0028368Y0008250D01*
X0028368Y0009351D02*
X0026900Y0009351D01*
X0026900Y0009718D02*
X0027634Y0010452D01*
X0028368Y0009718D01*
X0026900Y0009718D02*
X0026900Y0008250D01*
X0026158Y0008250D02*
X0024690Y0008250D01*
X0026158Y0009718D01*
X0026158Y0010085D01*
X0025791Y0010452D01*
X0025057Y0010452D01*
X0024690Y0010085D01*
X0019473Y0010085D02*
X0019473Y0008617D01*
X0019106Y0008250D01*
X0018005Y0008250D01*
X0018005Y0010452D01*
X0019106Y0010452D01*
X0019473Y0010085D01*
X0017263Y0010452D02*
X0017263Y0008250D01*
X0015795Y0010452D01*
X0015795Y0008250D01*
X0015053Y0008617D02*
X0015053Y0009351D01*
X0014319Y0009351D01*
X0013585Y0010085D02*
X0013585Y0008617D01*
X0013952Y0008250D01*
X0014686Y0008250D01*
X0015053Y0008617D01*
X0015053Y0010085D02*
X0014686Y0010452D01*
X0013952Y0010452D01*
X0013585Y0010085D01*
X0139690Y0010085D02*
X0140057Y0010452D01*
X0140791Y0010452D01*
X0141158Y0010085D01*
X0141158Y0009718D01*
X0139690Y0008250D01*
X0141158Y0008250D01*
X0141900Y0008617D02*
X0142267Y0008250D01*
X0143001Y0008250D01*
X0143368Y0008617D01*
X0143368Y0010085D02*
X0143001Y0010452D01*
X0142267Y0010452D01*
X0141900Y0010085D01*
X0141900Y0008617D01*
X0149690Y0008250D02*
X0151158Y0009718D01*
X0151158Y0010085D01*
X0150791Y0010452D01*
X0150057Y0010452D01*
X0149690Y0010085D01*
X0149690Y0008250D02*
X0151158Y0008250D01*
X0151900Y0008250D02*
X0153001Y0008250D01*
X0153368Y0008617D01*
X0153368Y0008984D01*
X0153001Y0009351D01*
X0151900Y0009351D01*
X0151900Y0008250D02*
X0151900Y0010452D01*
X0153001Y0010452D01*
X0153368Y0010085D01*
X0153368Y0009718D01*
X0153001Y0009351D01*
X0159690Y0009718D02*
X0160424Y0010452D01*
X0160424Y0008250D01*
X0159690Y0008250D02*
X0161158Y0008250D01*
X0161900Y0008250D02*
X0161900Y0009718D01*
X0162634Y0010452D01*
X0163368Y0009718D01*
X0163368Y0008250D01*
X0163368Y0009351D02*
X0161900Y0009351D01*
X0169690Y0009718D02*
X0170424Y0010452D01*
X0170424Y0008250D01*
X0169690Y0008250D02*
X0171158Y0008250D01*
X0171900Y0008617D02*
X0172267Y0008250D01*
X0173001Y0008250D01*
X0173368Y0008617D01*
X0173368Y0010085D02*
X0173001Y0010452D01*
X0172267Y0010452D01*
X0171900Y0010085D01*
X0171900Y0008617D01*
X0178585Y0008617D02*
X0178952Y0008250D01*
X0179686Y0008250D01*
X0180053Y0008617D01*
X0180053Y0009351D01*
X0179319Y0009351D01*
X0178585Y0010085D02*
X0178585Y0008617D01*
X0178585Y0010085D02*
X0178952Y0010452D01*
X0179686Y0010452D01*
X0180053Y0010085D01*
X0180795Y0010452D02*
X0182263Y0008250D01*
X0182263Y0010452D01*
X0183005Y0010452D02*
X0183005Y0008250D01*
X0184106Y0008250D01*
X0184473Y0008617D01*
X0184473Y0010085D01*
X0184106Y0010452D01*
X0183005Y0010452D01*
X0180795Y0010452D02*
X0180795Y0008250D01*
X0180791Y0033150D02*
X0180057Y0033150D01*
X0179690Y0033517D01*
X0179690Y0034251D02*
X0180424Y0034618D01*
X0180791Y0034618D01*
X0181158Y0034251D01*
X0181158Y0033517D01*
X0180791Y0033150D01*
X0181900Y0033884D02*
X0182634Y0033150D01*
X0183368Y0033884D01*
X0183368Y0035352D01*
X0181900Y0035352D02*
X0181900Y0033884D01*
X0181158Y0035352D02*
X0179690Y0035352D01*
X0179690Y0034251D01*
X0173368Y0034618D02*
X0173001Y0034251D01*
X0171900Y0034251D01*
X0171900Y0035352D02*
X0173001Y0035352D01*
X0173368Y0034985D01*
X0173368Y0034618D01*
X0173001Y0034251D02*
X0173368Y0033884D01*
X0173368Y0033517D01*
X0173001Y0033150D01*
X0171900Y0033150D01*
X0171900Y0035352D01*
X0170424Y0035352D02*
X0170424Y0033150D01*
X0169690Y0033150D02*
X0171158Y0033150D01*
X0169690Y0034618D02*
X0170424Y0035352D01*
X0163368Y0034985D02*
X0163368Y0033517D01*
X0163001Y0033150D01*
X0161900Y0033150D01*
X0161900Y0035352D01*
X0163001Y0035352D01*
X0163368Y0034985D01*
X0161158Y0033150D02*
X0159690Y0033150D01*
X0160424Y0033150D02*
X0160424Y0035352D01*
X0159690Y0034618D01*
X0153368Y0034618D02*
X0153368Y0033150D01*
X0153368Y0034251D02*
X0151900Y0034251D01*
X0151900Y0034618D02*
X0152634Y0035352D01*
X0153368Y0034618D01*
X0151900Y0034618D02*
X0151900Y0033150D01*
X0151158Y0033150D02*
X0149690Y0033150D01*
X0151158Y0034618D01*
X0151158Y0034985D01*
X0150791Y0035352D01*
X0150057Y0035352D01*
X0149690Y0034985D01*
X0143368Y0034985D02*
X0143368Y0033517D01*
X0143001Y0033150D01*
X0141900Y0033150D01*
X0141900Y0035352D01*
X0143001Y0035352D01*
X0143368Y0034985D01*
X0141158Y0034985D02*
X0140791Y0035352D01*
X0140057Y0035352D01*
X0139690Y0034985D01*
X0141158Y0034985D02*
X0141158Y0034618D01*
X0139690Y0033150D01*
X0141158Y0033150D01*
D13*
X0109735Y0032625D02*
X0109735Y0035694D01*
X0108200Y0037229D01*
X0106666Y0035694D01*
X0106666Y0032625D01*
X0106666Y0034927D02*
X0109735Y0034927D01*
X0100527Y0034160D02*
X0100527Y0037229D01*
X0097458Y0037229D02*
X0097458Y0034160D01*
X0098992Y0032625D01*
X0100527Y0034160D01*
X0095923Y0032625D02*
X0092854Y0032625D01*
X0092854Y0037229D01*
X0095923Y0037229D01*
X0094389Y0034927D02*
X0092854Y0034927D01*
X0091319Y0034927D02*
X0091319Y0036462D01*
X0090552Y0037229D01*
X0088250Y0037229D01*
X0088250Y0032625D01*
X0088250Y0034160D02*
X0090552Y0034160D01*
X0091319Y0034927D01*
X0089785Y0034160D02*
X0091319Y0032625D01*
X0105746Y0083250D02*
X0110350Y0083250D01*
X0108048Y0083250D02*
X0107281Y0084017D01*
X0107281Y0085552D01*
X0108048Y0086319D01*
X0110350Y0086319D01*
X0109583Y0088621D02*
X0110350Y0089389D01*
X0109583Y0088621D02*
X0106513Y0088621D01*
X0107281Y0087854D02*
X0107281Y0089389D01*
X0107281Y0090923D02*
X0107281Y0092458D01*
X0106513Y0091691D02*
X0109583Y0091691D01*
X0110350Y0092458D01*
X0110350Y0093992D02*
X0110350Y0096294D01*
X0109583Y0097062D01*
X0108048Y0097062D01*
X0107281Y0096294D01*
X0107281Y0093992D01*
X0111885Y0093992D01*
X0110350Y0098596D02*
X0109583Y0098596D01*
X0109583Y0099364D01*
X0110350Y0099364D01*
X0110350Y0098596D01*
X0108048Y0098596D02*
X0108048Y0099364D01*
X0107281Y0099364D01*
X0107281Y0098596D01*
X0108048Y0098596D01*
X0110350Y0100898D02*
X0105746Y0103968D01*
X0105746Y0108572D02*
X0110350Y0105502D01*
X0109583Y0110106D02*
X0108048Y0110106D01*
X0107281Y0110874D01*
X0107281Y0113175D01*
X0111117Y0113175D01*
X0111885Y0112408D01*
X0111885Y0111641D01*
X0110350Y0110874D02*
X0110350Y0113175D01*
X0110350Y0114710D02*
X0110350Y0116245D01*
X0110350Y0115477D02*
X0107281Y0115477D01*
X0107281Y0114710D01*
X0105746Y0115477D02*
X0104979Y0115477D01*
X0106513Y0118547D02*
X0109583Y0118547D01*
X0110350Y0119314D01*
X0110350Y0120849D02*
X0110350Y0121616D01*
X0109583Y0121616D01*
X0109583Y0120849D01*
X0110350Y0120849D01*
X0107281Y0119314D02*
X0107281Y0117779D01*
X0107281Y0123151D02*
X0107281Y0123918D01*
X0110350Y0123918D01*
X0110350Y0123151D02*
X0110350Y0124685D01*
X0109583Y0126220D02*
X0108048Y0126220D01*
X0107281Y0126987D01*
X0107281Y0128522D01*
X0108048Y0129289D01*
X0109583Y0129289D01*
X0110350Y0128522D01*
X0110350Y0126987D01*
X0109583Y0126220D01*
X0105746Y0123918D02*
X0104979Y0123918D01*
X0110350Y0130824D02*
X0105746Y0133893D01*
X0105746Y0135428D02*
X0110350Y0135428D01*
X0108815Y0135428D02*
X0107281Y0137730D01*
X0107281Y0139264D02*
X0107281Y0141566D01*
X0108048Y0142334D01*
X0109583Y0142334D01*
X0110350Y0141566D01*
X0110350Y0139264D01*
X0110350Y0137730D02*
X0108815Y0135428D01*
X0107281Y0139264D02*
X0111885Y0139264D01*
X0109583Y0143868D02*
X0110350Y0144636D01*
X0110350Y0146170D01*
X0109583Y0146938D01*
X0108815Y0146938D01*
X0108048Y0146170D01*
X0108048Y0144636D01*
X0107281Y0143868D01*
X0106513Y0143868D01*
X0105746Y0144636D01*
X0105746Y0146170D01*
X0106513Y0146938D01*
X0108048Y0148472D02*
X0108048Y0151542D01*
X0108815Y0153076D02*
X0108815Y0155378D01*
X0108048Y0156145D01*
X0106513Y0156145D01*
X0105746Y0155378D01*
X0105746Y0153076D01*
X0110350Y0153076D01*
X0109583Y0157680D02*
X0107281Y0157680D01*
X0109583Y0157680D02*
X0110350Y0158447D01*
X0109583Y0159215D01*
X0110350Y0159982D01*
X0109583Y0160749D01*
X0107281Y0160749D01*
X0110350Y0110874D02*
X0109583Y0110106D01*
D14*
X0106800Y0070800D02*
X0106800Y0063300D01*
X0106926Y0063298D01*
X0107051Y0063292D01*
X0107176Y0063282D01*
X0107301Y0063268D01*
X0107426Y0063251D01*
X0107550Y0063229D01*
X0107673Y0063204D01*
X0107795Y0063174D01*
X0107916Y0063141D01*
X0108036Y0063104D01*
X0108155Y0063064D01*
X0108272Y0063019D01*
X0108389Y0062971D01*
X0108503Y0062919D01*
X0108616Y0062864D01*
X0108727Y0062805D01*
X0108836Y0062743D01*
X0108943Y0062677D01*
X0109048Y0062608D01*
X0109151Y0062536D01*
X0109252Y0062461D01*
X0109350Y0062382D01*
X0109445Y0062300D01*
X0109538Y0062216D01*
X0109628Y0062128D01*
X0109716Y0062038D01*
X0109800Y0061945D01*
X0109882Y0061850D01*
X0109961Y0061752D01*
X0110036Y0061651D01*
X0110108Y0061548D01*
X0110177Y0061443D01*
X0110243Y0061336D01*
X0110305Y0061227D01*
X0110364Y0061116D01*
X0110419Y0061003D01*
X0110471Y0060889D01*
X0110519Y0060772D01*
X0110564Y0060655D01*
X0110604Y0060536D01*
X0110641Y0060416D01*
X0110674Y0060295D01*
X0110704Y0060173D01*
X0110729Y0060050D01*
X0110751Y0059926D01*
X0110768Y0059801D01*
X0110782Y0059676D01*
X0110792Y0059551D01*
X0110798Y0059426D01*
X0110800Y0059300D01*
X0110798Y0059174D01*
X0110792Y0059049D01*
X0110782Y0058924D01*
X0110768Y0058799D01*
X0110751Y0058674D01*
X0110729Y0058550D01*
X0110704Y0058427D01*
X0110674Y0058305D01*
X0110641Y0058184D01*
X0110604Y0058064D01*
X0110564Y0057945D01*
X0110519Y0057828D01*
X0110471Y0057711D01*
X0110419Y0057597D01*
X0110364Y0057484D01*
X0110305Y0057373D01*
X0110243Y0057264D01*
X0110177Y0057157D01*
X0110108Y0057052D01*
X0110036Y0056949D01*
X0109961Y0056848D01*
X0109882Y0056750D01*
X0109800Y0056655D01*
X0109716Y0056562D01*
X0109628Y0056472D01*
X0109538Y0056384D01*
X0109445Y0056300D01*
X0109350Y0056218D01*
X0109252Y0056139D01*
X0109151Y0056064D01*
X0109048Y0055992D01*
X0108943Y0055923D01*
X0108836Y0055857D01*
X0108727Y0055795D01*
X0108616Y0055736D01*
X0108503Y0055681D01*
X0108389Y0055629D01*
X0108272Y0055581D01*
X0108155Y0055536D01*
X0108036Y0055496D01*
X0107916Y0055459D01*
X0107795Y0055426D01*
X0107673Y0055396D01*
X0107550Y0055371D01*
X0107426Y0055349D01*
X0107301Y0055332D01*
X0107176Y0055318D01*
X0107051Y0055308D01*
X0106926Y0055302D01*
X0106800Y0055300D01*
X0106800Y0047800D01*
X0186800Y0047800D01*
X0186800Y0070800D01*
X0106800Y0070800D01*
X0091800Y0070800D02*
X0091800Y0047800D01*
X0011800Y0047800D01*
X0011800Y0055300D01*
X0011926Y0055302D01*
X0012051Y0055308D01*
X0012176Y0055318D01*
X0012301Y0055332D01*
X0012426Y0055349D01*
X0012550Y0055371D01*
X0012673Y0055396D01*
X0012795Y0055426D01*
X0012916Y0055459D01*
X0013036Y0055496D01*
X0013155Y0055536D01*
X0013272Y0055581D01*
X0013389Y0055629D01*
X0013503Y0055681D01*
X0013616Y0055736D01*
X0013727Y0055795D01*
X0013836Y0055857D01*
X0013943Y0055923D01*
X0014048Y0055992D01*
X0014151Y0056064D01*
X0014252Y0056139D01*
X0014350Y0056218D01*
X0014445Y0056300D01*
X0014538Y0056384D01*
X0014628Y0056472D01*
X0014716Y0056562D01*
X0014800Y0056655D01*
X0014882Y0056750D01*
X0014961Y0056848D01*
X0015036Y0056949D01*
X0015108Y0057052D01*
X0015177Y0057157D01*
X0015243Y0057264D01*
X0015305Y0057373D01*
X0015364Y0057484D01*
X0015419Y0057597D01*
X0015471Y0057711D01*
X0015519Y0057828D01*
X0015564Y0057945D01*
X0015604Y0058064D01*
X0015641Y0058184D01*
X0015674Y0058305D01*
X0015704Y0058427D01*
X0015729Y0058550D01*
X0015751Y0058674D01*
X0015768Y0058799D01*
X0015782Y0058924D01*
X0015792Y0059049D01*
X0015798Y0059174D01*
X0015800Y0059300D01*
X0015798Y0059426D01*
X0015792Y0059551D01*
X0015782Y0059676D01*
X0015768Y0059801D01*
X0015751Y0059926D01*
X0015729Y0060050D01*
X0015704Y0060173D01*
X0015674Y0060295D01*
X0015641Y0060416D01*
X0015604Y0060536D01*
X0015564Y0060655D01*
X0015519Y0060772D01*
X0015471Y0060889D01*
X0015419Y0061003D01*
X0015364Y0061116D01*
X0015305Y0061227D01*
X0015243Y0061336D01*
X0015177Y0061443D01*
X0015108Y0061548D01*
X0015036Y0061651D01*
X0014961Y0061752D01*
X0014882Y0061850D01*
X0014800Y0061945D01*
X0014716Y0062038D01*
X0014628Y0062128D01*
X0014538Y0062216D01*
X0014445Y0062300D01*
X0014350Y0062382D01*
X0014252Y0062461D01*
X0014151Y0062536D01*
X0014048Y0062608D01*
X0013943Y0062677D01*
X0013836Y0062743D01*
X0013727Y0062805D01*
X0013616Y0062864D01*
X0013503Y0062919D01*
X0013389Y0062971D01*
X0013272Y0063019D01*
X0013155Y0063064D01*
X0013036Y0063104D01*
X0012916Y0063141D01*
X0012795Y0063174D01*
X0012673Y0063204D01*
X0012550Y0063229D01*
X0012426Y0063251D01*
X0012301Y0063268D01*
X0012176Y0063282D01*
X0012051Y0063292D01*
X0011926Y0063298D01*
X0011800Y0063300D01*
X0011800Y0070800D01*
X0091800Y0070800D01*
X0081800Y0037550D02*
X0071800Y0037550D01*
X0071740Y0037548D01*
X0071679Y0037543D01*
X0071620Y0037534D01*
X0071561Y0037521D01*
X0071502Y0037505D01*
X0071445Y0037485D01*
X0071390Y0037462D01*
X0071335Y0037435D01*
X0071283Y0037406D01*
X0071232Y0037373D01*
X0071183Y0037337D01*
X0071137Y0037299D01*
X0071093Y0037257D01*
X0071051Y0037213D01*
X0071013Y0037167D01*
X0070977Y0037118D01*
X0070944Y0037067D01*
X0070915Y0037015D01*
X0070888Y0036960D01*
X0070865Y0036905D01*
X0070845Y0036848D01*
X0070829Y0036789D01*
X0070816Y0036730D01*
X0070807Y0036671D01*
X0070802Y0036610D01*
X0070800Y0036550D01*
X0070800Y0009550D01*
X0070802Y0009490D01*
X0070807Y0009429D01*
X0070816Y0009370D01*
X0070829Y0009311D01*
X0070845Y0009252D01*
X0070865Y0009195D01*
X0070888Y0009140D01*
X0070915Y0009085D01*
X0070944Y0009033D01*
X0070977Y0008982D01*
X0071013Y0008933D01*
X0071051Y0008887D01*
X0071093Y0008843D01*
X0071137Y0008801D01*
X0071183Y0008763D01*
X0071232Y0008727D01*
X0071283Y0008694D01*
X0071335Y0008665D01*
X0071390Y0008638D01*
X0071445Y0008615D01*
X0071502Y0008595D01*
X0071561Y0008579D01*
X0071620Y0008566D01*
X0071679Y0008557D01*
X0071740Y0008552D01*
X0071800Y0008550D01*
X0081800Y0008550D01*
X0081860Y0008552D01*
X0081921Y0008557D01*
X0081980Y0008566D01*
X0082039Y0008579D01*
X0082098Y0008595D01*
X0082155Y0008615D01*
X0082210Y0008638D01*
X0082265Y0008665D01*
X0082317Y0008694D01*
X0082368Y0008727D01*
X0082417Y0008763D01*
X0082463Y0008801D01*
X0082507Y0008843D01*
X0082549Y0008887D01*
X0082587Y0008933D01*
X0082623Y0008982D01*
X0082656Y0009033D01*
X0082685Y0009085D01*
X0082712Y0009140D01*
X0082735Y0009195D01*
X0082755Y0009252D01*
X0082771Y0009311D01*
X0082784Y0009370D01*
X0082793Y0009429D01*
X0082798Y0009490D01*
X0082800Y0009550D01*
X0082800Y0036550D01*
X0082798Y0036610D01*
X0082793Y0036671D01*
X0082784Y0036730D01*
X0082771Y0036789D01*
X0082755Y0036848D01*
X0082735Y0036905D01*
X0082712Y0036960D01*
X0082685Y0037015D01*
X0082656Y0037067D01*
X0082623Y0037118D01*
X0082587Y0037167D01*
X0082549Y0037213D01*
X0082507Y0037257D01*
X0082463Y0037299D01*
X0082417Y0037337D01*
X0082368Y0037373D01*
X0082317Y0037406D01*
X0082265Y0037435D01*
X0082210Y0037462D01*
X0082155Y0037485D01*
X0082098Y0037505D01*
X0082039Y0037521D01*
X0081980Y0037534D01*
X0081921Y0037543D01*
X0081860Y0037548D01*
X0081800Y0037550D01*
X0076800Y0029050D02*
X0076800Y0024250D01*
X0076800Y0021750D02*
X0076800Y0017050D01*
X0061800Y0014300D02*
X0059300Y0011800D01*
X0054300Y0011800D01*
X0051800Y0014300D01*
X0051800Y0029300D01*
X0049300Y0031800D01*
X0044300Y0031800D01*
X0041800Y0029300D01*
X0041800Y0014300D01*
X0039300Y0011800D01*
X0034300Y0011800D01*
X0031800Y0014300D01*
X0031800Y0029300D01*
X0029300Y0031800D01*
X0024300Y0031800D01*
X0021800Y0029300D01*
X0019300Y0031800D01*
X0014300Y0031800D01*
X0011800Y0029300D01*
X0011800Y0014300D01*
X0014300Y0011800D01*
X0019300Y0011800D01*
X0021800Y0014300D01*
X0021800Y0029300D01*
X0031800Y0029300D02*
X0034300Y0031800D01*
X0039300Y0031800D01*
X0041800Y0029300D01*
X0051800Y0029300D02*
X0054300Y0031800D01*
X0059300Y0031800D01*
X0061800Y0029300D01*
X0061800Y0014300D01*
X0051800Y0014300D02*
X0049300Y0011800D01*
X0044300Y0011800D01*
X0041800Y0014300D01*
X0031800Y0014300D02*
X0029300Y0011800D01*
X0024300Y0011800D01*
X0021800Y0014300D01*
X0115800Y0009550D02*
X0115800Y0036550D01*
X0115802Y0036610D01*
X0115807Y0036671D01*
X0115816Y0036730D01*
X0115829Y0036789D01*
X0115845Y0036848D01*
X0115865Y0036905D01*
X0115888Y0036960D01*
X0115915Y0037015D01*
X0115944Y0037067D01*
X0115977Y0037118D01*
X0116013Y0037167D01*
X0116051Y0037213D01*
X0116093Y0037257D01*
X0116137Y0037299D01*
X0116183Y0037337D01*
X0116232Y0037373D01*
X0116283Y0037406D01*
X0116335Y0037435D01*
X0116390Y0037462D01*
X0116445Y0037485D01*
X0116502Y0037505D01*
X0116561Y0037521D01*
X0116620Y0037534D01*
X0116679Y0037543D01*
X0116740Y0037548D01*
X0116800Y0037550D01*
X0126800Y0037550D01*
X0126860Y0037548D01*
X0126921Y0037543D01*
X0126980Y0037534D01*
X0127039Y0037521D01*
X0127098Y0037505D01*
X0127155Y0037485D01*
X0127210Y0037462D01*
X0127265Y0037435D01*
X0127317Y0037406D01*
X0127368Y0037373D01*
X0127417Y0037337D01*
X0127463Y0037299D01*
X0127507Y0037257D01*
X0127549Y0037213D01*
X0127587Y0037167D01*
X0127623Y0037118D01*
X0127656Y0037067D01*
X0127685Y0037015D01*
X0127712Y0036960D01*
X0127735Y0036905D01*
X0127755Y0036848D01*
X0127771Y0036789D01*
X0127784Y0036730D01*
X0127793Y0036671D01*
X0127798Y0036610D01*
X0127800Y0036550D01*
X0127800Y0009550D01*
X0127798Y0009490D01*
X0127793Y0009429D01*
X0127784Y0009370D01*
X0127771Y0009311D01*
X0127755Y0009252D01*
X0127735Y0009195D01*
X0127712Y0009140D01*
X0127685Y0009085D01*
X0127656Y0009033D01*
X0127623Y0008982D01*
X0127587Y0008933D01*
X0127549Y0008887D01*
X0127507Y0008843D01*
X0127463Y0008801D01*
X0127417Y0008763D01*
X0127368Y0008727D01*
X0127317Y0008694D01*
X0127265Y0008665D01*
X0127210Y0008638D01*
X0127155Y0008615D01*
X0127098Y0008595D01*
X0127039Y0008579D01*
X0126980Y0008566D01*
X0126921Y0008557D01*
X0126860Y0008552D01*
X0126800Y0008550D01*
X0116800Y0008550D01*
X0116740Y0008552D01*
X0116679Y0008557D01*
X0116620Y0008566D01*
X0116561Y0008579D01*
X0116502Y0008595D01*
X0116445Y0008615D01*
X0116390Y0008638D01*
X0116335Y0008665D01*
X0116283Y0008694D01*
X0116232Y0008727D01*
X0116183Y0008763D01*
X0116137Y0008801D01*
X0116093Y0008843D01*
X0116051Y0008887D01*
X0116013Y0008933D01*
X0115977Y0008982D01*
X0115944Y0009033D01*
X0115915Y0009085D01*
X0115888Y0009140D01*
X0115865Y0009195D01*
X0115845Y0009252D01*
X0115829Y0009311D01*
X0115816Y0009370D01*
X0115807Y0009429D01*
X0115802Y0009490D01*
X0115800Y0009550D01*
X0121800Y0017050D02*
X0121800Y0021750D01*
X0121800Y0024250D02*
X0121800Y0029050D01*
X0136800Y0029300D02*
X0136800Y0014300D01*
X0139300Y0011800D01*
X0144300Y0011800D01*
X0146800Y0014300D01*
X0146800Y0029300D01*
X0144300Y0031800D01*
X0139300Y0031800D01*
X0136800Y0029300D01*
X0146800Y0029300D02*
X0149300Y0031800D01*
X0154300Y0031800D01*
X0156800Y0029300D01*
X0156800Y0014300D01*
X0154300Y0011800D01*
X0149300Y0011800D01*
X0146800Y0014300D01*
X0156800Y0014300D02*
X0159300Y0011800D01*
X0164300Y0011800D01*
X0166800Y0014300D01*
X0166800Y0029300D01*
X0164300Y0031800D01*
X0159300Y0031800D01*
X0156800Y0029300D01*
X0166800Y0029300D02*
X0169300Y0031800D01*
X0174300Y0031800D01*
X0176800Y0029300D01*
X0176800Y0014300D01*
X0174300Y0011800D01*
X0169300Y0011800D01*
X0166800Y0014300D01*
X0176800Y0014300D02*
X0179300Y0011800D01*
X0184300Y0011800D01*
X0186800Y0014300D01*
X0186800Y0029300D01*
X0184300Y0031800D01*
X0179300Y0031800D01*
X0176800Y0029300D01*
X0174300Y0166800D02*
X0169300Y0166800D01*
X0166800Y0169300D01*
X0166800Y0184300D01*
X0169300Y0186800D01*
X0174300Y0186800D01*
X0176800Y0184300D01*
X0176800Y0169300D01*
X0179300Y0166800D01*
X0184300Y0166800D01*
X0186800Y0169300D01*
X0186800Y0184300D01*
X0184300Y0186800D01*
X0179300Y0186800D01*
X0176800Y0184300D01*
X0176800Y0169300D02*
X0174300Y0166800D01*
X0150550Y0169300D02*
X0150550Y0176300D01*
X0150548Y0176360D01*
X0150543Y0176421D01*
X0150534Y0176480D01*
X0150521Y0176539D01*
X0150505Y0176598D01*
X0150485Y0176655D01*
X0150462Y0176710D01*
X0150435Y0176765D01*
X0150406Y0176817D01*
X0150373Y0176868D01*
X0150337Y0176917D01*
X0150299Y0176963D01*
X0150257Y0177007D01*
X0150213Y0177049D01*
X0150167Y0177087D01*
X0150118Y0177123D01*
X0150067Y0177156D01*
X0150015Y0177185D01*
X0149960Y0177212D01*
X0149905Y0177235D01*
X0149848Y0177255D01*
X0149789Y0177271D01*
X0149730Y0177284D01*
X0149671Y0177293D01*
X0149610Y0177298D01*
X0149550Y0177300D01*
X0148050Y0177300D01*
X0147550Y0176800D01*
X0128550Y0176800D01*
X0128050Y0177300D01*
X0126550Y0177300D01*
X0126490Y0177298D01*
X0126429Y0177293D01*
X0126370Y0177284D01*
X0126311Y0177271D01*
X0126252Y0177255D01*
X0126195Y0177235D01*
X0126140Y0177212D01*
X0126085Y0177185D01*
X0126033Y0177156D01*
X0125982Y0177123D01*
X0125933Y0177087D01*
X0125887Y0177049D01*
X0125843Y0177007D01*
X0125801Y0176963D01*
X0125763Y0176917D01*
X0125727Y0176868D01*
X0125694Y0176817D01*
X0125665Y0176765D01*
X0125638Y0176710D01*
X0125615Y0176655D01*
X0125595Y0176598D01*
X0125579Y0176539D01*
X0125566Y0176480D01*
X0125557Y0176421D01*
X0125552Y0176360D01*
X0125550Y0176300D01*
X0125550Y0169300D01*
X0125552Y0169240D01*
X0125557Y0169179D01*
X0125566Y0169120D01*
X0125579Y0169061D01*
X0125595Y0169002D01*
X0125615Y0168945D01*
X0125638Y0168890D01*
X0125665Y0168835D01*
X0125694Y0168783D01*
X0125727Y0168732D01*
X0125763Y0168683D01*
X0125801Y0168637D01*
X0125843Y0168593D01*
X0125887Y0168551D01*
X0125933Y0168513D01*
X0125982Y0168477D01*
X0126033Y0168444D01*
X0126085Y0168415D01*
X0126140Y0168388D01*
X0126195Y0168365D01*
X0126252Y0168345D01*
X0126311Y0168329D01*
X0126370Y0168316D01*
X0126429Y0168307D01*
X0126490Y0168302D01*
X0126550Y0168300D01*
X0128050Y0168300D01*
X0128550Y0168800D01*
X0147550Y0168800D01*
X0148050Y0168300D01*
X0149550Y0168300D01*
X0149610Y0168302D01*
X0149671Y0168307D01*
X0149730Y0168316D01*
X0149789Y0168329D01*
X0149848Y0168345D01*
X0149905Y0168365D01*
X0149960Y0168388D01*
X0150015Y0168415D01*
X0150067Y0168444D01*
X0150118Y0168477D01*
X0150167Y0168513D01*
X0150213Y0168551D01*
X0150257Y0168593D01*
X0150299Y0168637D01*
X0150337Y0168683D01*
X0150373Y0168732D01*
X0150406Y0168783D01*
X0150435Y0168835D01*
X0150462Y0168890D01*
X0150485Y0168945D01*
X0150505Y0169002D01*
X0150521Y0169061D01*
X0150534Y0169120D01*
X0150543Y0169179D01*
X0150548Y0169240D01*
X0150550Y0169300D01*
X0073050Y0169300D02*
X0073050Y0176300D01*
X0073048Y0176360D01*
X0073043Y0176421D01*
X0073034Y0176480D01*
X0073021Y0176539D01*
X0073005Y0176598D01*
X0072985Y0176655D01*
X0072962Y0176710D01*
X0072935Y0176765D01*
X0072906Y0176817D01*
X0072873Y0176868D01*
X0072837Y0176917D01*
X0072799Y0176963D01*
X0072757Y0177007D01*
X0072713Y0177049D01*
X0072667Y0177087D01*
X0072618Y0177123D01*
X0072567Y0177156D01*
X0072515Y0177185D01*
X0072460Y0177212D01*
X0072405Y0177235D01*
X0072348Y0177255D01*
X0072289Y0177271D01*
X0072230Y0177284D01*
X0072171Y0177293D01*
X0072110Y0177298D01*
X0072050Y0177300D01*
X0070550Y0177300D01*
X0070050Y0176800D01*
X0051050Y0176800D01*
X0050550Y0177300D01*
X0049050Y0177300D01*
X0048990Y0177298D01*
X0048929Y0177293D01*
X0048870Y0177284D01*
X0048811Y0177271D01*
X0048752Y0177255D01*
X0048695Y0177235D01*
X0048640Y0177212D01*
X0048585Y0177185D01*
X0048533Y0177156D01*
X0048482Y0177123D01*
X0048433Y0177087D01*
X0048387Y0177049D01*
X0048343Y0177007D01*
X0048301Y0176963D01*
X0048263Y0176917D01*
X0048227Y0176868D01*
X0048194Y0176817D01*
X0048165Y0176765D01*
X0048138Y0176710D01*
X0048115Y0176655D01*
X0048095Y0176598D01*
X0048079Y0176539D01*
X0048066Y0176480D01*
X0048057Y0176421D01*
X0048052Y0176360D01*
X0048050Y0176300D01*
X0048050Y0169300D01*
X0048052Y0169240D01*
X0048057Y0169179D01*
X0048066Y0169120D01*
X0048079Y0169061D01*
X0048095Y0169002D01*
X0048115Y0168945D01*
X0048138Y0168890D01*
X0048165Y0168835D01*
X0048194Y0168783D01*
X0048227Y0168732D01*
X0048263Y0168683D01*
X0048301Y0168637D01*
X0048343Y0168593D01*
X0048387Y0168551D01*
X0048433Y0168513D01*
X0048482Y0168477D01*
X0048533Y0168444D01*
X0048585Y0168415D01*
X0048640Y0168388D01*
X0048695Y0168365D01*
X0048752Y0168345D01*
X0048811Y0168329D01*
X0048870Y0168316D01*
X0048929Y0168307D01*
X0048990Y0168302D01*
X0049050Y0168300D01*
X0050550Y0168300D01*
X0051050Y0168800D01*
X0070050Y0168800D01*
X0070550Y0168300D01*
X0072050Y0168300D01*
X0072110Y0168302D01*
X0072171Y0168307D01*
X0072230Y0168316D01*
X0072289Y0168329D01*
X0072348Y0168345D01*
X0072405Y0168365D01*
X0072460Y0168388D01*
X0072515Y0168415D01*
X0072567Y0168444D01*
X0072618Y0168477D01*
X0072667Y0168513D01*
X0072713Y0168551D01*
X0072757Y0168593D01*
X0072799Y0168637D01*
X0072837Y0168683D01*
X0072873Y0168732D01*
X0072906Y0168783D01*
X0072935Y0168835D01*
X0072962Y0168890D01*
X0072985Y0168945D01*
X0073005Y0169002D01*
X0073021Y0169061D01*
X0073034Y0169120D01*
X0073043Y0169179D01*
X0073048Y0169240D01*
X0073050Y0169300D01*
X0031800Y0169300D02*
X0031800Y0184300D01*
X0029300Y0186800D01*
X0024300Y0186800D01*
X0021800Y0184300D01*
X0021800Y0169300D01*
X0024300Y0166800D01*
X0029300Y0166800D01*
X0031800Y0169300D01*
X0021800Y0169300D02*
X0019300Y0166800D01*
X0014300Y0166800D01*
X0011800Y0169300D01*
X0011800Y0184300D01*
X0014300Y0186800D01*
X0019300Y0186800D01*
X0021800Y0184300D01*
D15*
X0046350Y0172800D03*
X0074750Y0172800D03*
X0123850Y0172800D03*
X0152250Y0172800D03*
D16*
X0130581Y0177950D02*
X0128647Y0177950D01*
X0129614Y0177950D02*
X0129614Y0180852D01*
X0128647Y0179885D01*
X0127635Y0180369D02*
X0127635Y0179401D01*
X0127151Y0178917D01*
X0125700Y0178917D01*
X0125700Y0177950D02*
X0125700Y0180852D01*
X0127151Y0180852D01*
X0127635Y0180369D01*
X0126667Y0178917D02*
X0127635Y0177950D01*
X0053081Y0177950D02*
X0051147Y0177950D01*
X0053081Y0179885D01*
X0053081Y0180369D01*
X0052598Y0180852D01*
X0051630Y0180852D01*
X0051147Y0180369D01*
X0050135Y0180369D02*
X0050135Y0179401D01*
X0049651Y0178917D01*
X0048200Y0178917D01*
X0048200Y0177950D02*
X0048200Y0180852D01*
X0049651Y0180852D01*
X0050135Y0180369D01*
X0049167Y0178917D02*
X0050135Y0177950D01*
X0010150Y0054796D02*
X0010150Y0052861D01*
X0008215Y0054796D01*
X0007731Y0054796D01*
X0007248Y0054312D01*
X0007248Y0053345D01*
X0007731Y0052861D01*
X0007731Y0051849D02*
X0007248Y0051366D01*
X0007248Y0050398D01*
X0007731Y0049914D01*
X0009666Y0049914D01*
X0010150Y0050398D01*
X0010150Y0051366D01*
X0009666Y0051849D01*
X0010150Y0048917D02*
X0010150Y0047950D01*
X0010150Y0048434D02*
X0007248Y0048434D01*
X0007248Y0048917D02*
X0007248Y0047950D01*
X0102248Y0047950D02*
X0102248Y0048917D01*
X0102248Y0048434D02*
X0105150Y0048434D01*
X0105150Y0048917D02*
X0105150Y0047950D01*
X0104666Y0049914D02*
X0102731Y0049914D01*
X0102248Y0050398D01*
X0102248Y0051366D01*
X0102731Y0051849D01*
X0103215Y0052861D02*
X0102248Y0053828D01*
X0105150Y0053828D01*
X0105150Y0052861D02*
X0105150Y0054796D01*
X0104666Y0051849D02*
X0105150Y0051366D01*
X0105150Y0050398D01*
X0104666Y0049914D01*
D17*
X0119300Y0024250D02*
X0121800Y0024250D01*
X0124300Y0024250D01*
X0124300Y0021750D02*
X0121800Y0021750D01*
X0119300Y0021750D01*
X0079300Y0021750D02*
X0076800Y0021750D01*
X0074300Y0021750D01*
X0074300Y0024250D02*
X0076800Y0024250D01*
X0079300Y0024250D01*
D18*
X0095580Y0148939D02*
X0097020Y0148939D01*
X0097213Y0150844D01*
X0097854Y0151049D01*
X0098452Y0151357D01*
X0099936Y0150146D01*
X0100954Y0151164D01*
X0099743Y0152648D01*
X0100051Y0153246D01*
X0098005Y0154094D01*
X0097793Y0153715D01*
X0097499Y0153397D01*
X0097138Y0153155D01*
X0096731Y0153005D01*
X0096300Y0152954D01*
X0095861Y0153007D01*
X0095448Y0153163D01*
X0095083Y0153412D01*
X0094789Y0153741D01*
X0094580Y0154131D01*
X0094471Y0154559D01*
X0094466Y0155001D01*
X0094566Y0155431D01*
X0094766Y0155825D01*
X0095054Y0156160D01*
X0095413Y0156418D01*
X0095823Y0156582D01*
X0096260Y0156645D01*
X0096700Y0156601D01*
X0097116Y0156455D01*
X0097486Y0156214D01*
X0097788Y0155891D01*
X0098005Y0155506D01*
X0100051Y0156354D01*
X0099743Y0156952D01*
X0100954Y0158436D01*
X0099936Y0159454D01*
X0098452Y0158243D01*
X0097854Y0158551D01*
X0097213Y0158756D01*
X0097020Y0160661D01*
X0095580Y0160661D01*
X0095387Y0158756D01*
X0094746Y0158551D01*
X0094148Y0158243D01*
X0092664Y0159454D01*
X0091646Y0158436D01*
X0092857Y0156952D01*
X0092549Y0156354D01*
X0092344Y0155713D01*
X0090439Y0155520D01*
X0090439Y0154080D01*
X0092344Y0153887D01*
X0092549Y0153246D01*
X0092857Y0152648D01*
X0091646Y0151164D01*
X0092664Y0150146D01*
X0094148Y0151357D01*
X0094746Y0151049D01*
X0095387Y0150844D01*
X0095580Y0148939D01*
X0095567Y0149066D02*
X0097033Y0149066D01*
X0097092Y0149655D02*
X0095508Y0149655D01*
X0095448Y0150244D02*
X0097152Y0150244D01*
X0097212Y0150833D02*
X0095388Y0150833D01*
X0093506Y0150833D02*
X0091978Y0150833D01*
X0091857Y0151422D02*
X0100743Y0151422D01*
X0100622Y0150833D02*
X0099094Y0150833D01*
X0099816Y0150244D02*
X0100033Y0150244D01*
X0100263Y0152011D02*
X0092337Y0152011D01*
X0092817Y0152600D02*
X0099783Y0152600D01*
X0100022Y0153189D02*
X0097188Y0153189D01*
X0097828Y0153778D02*
X0098767Y0153778D01*
X0098099Y0155545D02*
X0097983Y0155545D01*
X0097560Y0156134D02*
X0099521Y0156134D01*
X0099861Y0156723D02*
X0092739Y0156723D01*
X0092562Y0157313D02*
X0100038Y0157313D01*
X0100518Y0157902D02*
X0092082Y0157902D01*
X0091701Y0158491D02*
X0093845Y0158491D01*
X0094629Y0158491D02*
X0097971Y0158491D01*
X0098755Y0158491D02*
X0100899Y0158491D01*
X0100310Y0159080D02*
X0099477Y0159080D01*
X0097181Y0159080D02*
X0095420Y0159080D01*
X0095479Y0159669D02*
X0097121Y0159669D01*
X0097061Y0160258D02*
X0095539Y0160258D01*
X0093123Y0159080D02*
X0092290Y0159080D01*
X0092479Y0156134D02*
X0095031Y0156134D01*
X0094624Y0155545D02*
X0090691Y0155545D01*
X0090439Y0154956D02*
X0094466Y0154956D01*
X0094520Y0154367D02*
X0090439Y0154367D01*
X0092378Y0153778D02*
X0094769Y0153778D01*
X0095410Y0153189D02*
X0092578Y0153189D01*
X0092567Y0150244D02*
X0092783Y0150244D01*
M02*
