%
M48
M72
T01C0.0160
T02C0.0236
T03C0.0320
T04C0.0400
T05C0.0866
T06C0.1260
T07C0.1378
%
T01
X10280Y6280
X10030Y5930
X10330Y5580
X10080Y5230
X10330Y4880
X10080Y4530
X10080Y4080
X10080Y3580
X12830Y5230
X12580Y5580
X6780Y5880
X6530Y5530
T02
X680Y16030
X10030Y14730
T03
X4055Y17280
X8055Y17280
X11805Y17280
X15805Y17280
X14180Y7430
X13180Y7430
X12180Y7430
X11180Y7430
X8680Y7430
X7680Y7430
X6680Y7430
X5680Y7430
X4680Y7430
X3680Y7430
X2680Y7430
X1680Y7430
X1680Y4430
X2680Y4430
X3680Y4430
X4680Y4430
X5680Y4430
X6680Y4430
X7680Y4430
X8680Y4430
X7680Y3305
X7680Y1305
X11180Y4430
X12180Y4430
X13180Y4430
X14180Y4430
X15180Y4430
X16180Y4430
X17180Y4430
X18180Y4430
X18180Y7430
X17180Y7430
X16180Y7430
X15180Y7430
X12180Y3305
X12180Y1305
T04
X1680Y18180
X1680Y17180
X2680Y17180
X2680Y18180
X17180Y17180
X17180Y18180
X18180Y18180
X18180Y17180
X18180Y2680
X18180Y1680
X17180Y1680
X17180Y2680
X16180Y2680
X16180Y1680
X15180Y1680
X15180Y2680
X14180Y2680
X14180Y1680
X5680Y1680
X5680Y2680
X4680Y2680
X4680Y1680
X3680Y1680
X3680Y2680
X2680Y2680
X2680Y1680
X1680Y1680
X1680Y2680
T05
X5430Y8887
X3855Y9280
X3166Y10658
X3166Y12430
X3166Y14202
X3855Y15580
X5430Y15973
X7005Y15580
X7694Y14202
X7694Y12430
X7694Y10658
X7005Y9280
X12855Y15580
X12166Y14202
X12166Y12430
X12166Y10658
X12855Y9280
X14430Y8887
X16005Y9280
X16694Y10658
X16694Y12430
X16694Y14202
X16005Y15580
X14430Y15973
T06
X9930Y1645
X9930Y18180
T07
X5430Y12430
X14430Y12430
M30
